<?xml version="1.0" encoding="UTF-8"?>
<svg width="332px" height="340px" viewBox="0 0 332 340" version="1.1" xmlns="http://www.w3.org/2000/svg" xmlns:xlink="http://www.w3.org/1999/xlink">
    <!-- Generator: Sketch 51.3 (57544) - http://www.bohemiancoding.com/sketch -->
    <title>img_robot</title>
    <desc>Created with Sketch.</desc>
    <defs>
        <polygon id="path-1" points="292.5 96 300 111 285 111"></polygon>
        <filter x="-240.0%" y="-80.0%" width="420.0%" height="366.7%" filterUnits="objectBoundingBox" id="filter-2">
            <feOffset dx="-20" dy="12" in="SourceAlpha" result="shadowOffsetOuter1"></feOffset>
            <feGaussianBlur stdDeviation="2" in="shadowOffsetOuter1" result="shadowBlurOuter1"></feGaussianBlur>
            <feColorMatrix values="0 0 0 0 0   0 0 0 0 0   0 0 0 0 0  0 0 0 0.05 0" type="matrix" in="shadowBlurOuter1"></feColorMatrix>
        </filter>
        <path d="M290,25 C282.820347,25 277,19.4035124 277,12.5 C277,5.5964876 282.820347,0 290,0" id="path-3"></path>
        <filter x="-157.7%" y="-34.0%" width="323.1%" height="200.0%" filterUnits="objectBoundingBox" id="filter-4">
            <feMorphology radius="2.5" operator="dilate" in="SourceAlpha" result="shadowSpreadOuter1"></feMorphology>
            <feOffset dx="-10" dy="6" in="shadowSpreadOuter1" result="shadowOffsetOuter1"></feOffset>
            <feMorphology radius="2.5" operator="erode" in="SourceAlpha" result="shadowInner"></feMorphology>
            <feOffset dx="-10" dy="6" in="shadowInner" result="shadowInner"></feOffset>
            <feComposite in="shadowOffsetOuter1" in2="shadowInner" operator="out" result="shadowOffsetOuter1"></feComposite>
            <feGaussianBlur stdDeviation="1" in="shadowOffsetOuter1" result="shadowBlurOuter1"></feGaussianBlur>
            <feColorMatrix values="0 0 0 0 0   0 0 0 0 0   0 0 0 0 0  0 0 0 0.05 0" type="matrix" in="shadowBlurOuter1"></feColorMatrix>
        </filter>
        <path d="M19,83 C11.8203471,83 6,77.4035124 6,70.5 C6,63.5964876 11.8203471,58 19,58" id="path-5"></path>
        <filter x="-157.7%" y="-34.0%" width="323.1%" height="200.0%" filterUnits="objectBoundingBox" id="filter-6">
            <feMorphology radius="2.5" operator="dilate" in="SourceAlpha" result="shadowSpreadOuter1"></feMorphology>
            <feOffset dx="-10" dy="6" in="shadowSpreadOuter1" result="shadowOffsetOuter1"></feOffset>
            <feMorphology radius="2.5" operator="erode" in="SourceAlpha" result="shadowInner"></feMorphology>
            <feOffset dx="-10" dy="6" in="shadowInner" result="shadowInner"></feOffset>
            <feComposite in="shadowOffsetOuter1" in2="shadowInner" operator="out" result="shadowOffsetOuter1"></feComposite>
            <feGaussianBlur stdDeviation="1" in="shadowOffsetOuter1" result="shadowBlurOuter1"></feGaussianBlur>
            <feColorMatrix values="0 0 0 0 0   0 0 0 0 0   0 0 0 0 0  0 0 0 0.05 0" type="matrix" in="shadowBlurOuter1"></feColorMatrix>
        </filter>
        <polyline id="path-7" points="218 78 227.5 68 237 78 246.5 68 256 78 265.5 68 275 78"></polyline>
        <filter x="-36.0%" y="-85.0%" width="150.9%" height="350.0%" filterUnits="objectBoundingBox" id="filter-8">
            <feMorphology radius="2.5" operator="dilate" in="SourceAlpha" result="shadowSpreadOuter1"></feMorphology>
            <feOffset dx="-10" dy="6" in="shadowSpreadOuter1" result="shadowOffsetOuter1"></feOffset>
            <feMorphology radius="2.5" operator="erode" in="SourceAlpha" result="shadowInner"></feMorphology>
            <feOffset dx="-10" dy="6" in="shadowInner" result="shadowInner"></feOffset>
            <feComposite in="shadowOffsetOuter1" in2="shadowInner" operator="out" result="shadowOffsetOuter1"></feComposite>
            <feGaussianBlur stdDeviation="1" in="shadowOffsetOuter1" result="shadowBlurOuter1"></feGaussianBlur>
            <feColorMatrix values="0 0 0 0 0   0 0 0 0 0   0 0 0 0 0  0 0 0 0.05 0" type="matrix" in="shadowBlurOuter1"></feColorMatrix>
        </filter>
        <polyline id="path-9" points="-17 125 -7.5 115 2 125 11.5 115 21 125"></polyline>
        <filter x="-53.9%" y="-85.0%" width="176.3%" height="350.0%" filterUnits="objectBoundingBox" id="filter-10">
            <feMorphology radius="2.5" operator="dilate" in="SourceAlpha" result="shadowSpreadOuter1"></feMorphology>
            <feOffset dx="-10" dy="6" in="shadowSpreadOuter1" result="shadowOffsetOuter1"></feOffset>
            <feMorphology radius="2.5" operator="erode" in="SourceAlpha" result="shadowInner"></feMorphology>
            <feOffset dx="-10" dy="6" in="shadowInner" result="shadowInner"></feOffset>
            <feComposite in="shadowOffsetOuter1" in2="shadowInner" operator="out" result="shadowOffsetOuter1"></feComposite>
            <feGaussianBlur stdDeviation="1" in="shadowOffsetOuter1" result="shadowBlurOuter1"></feGaussianBlur>
            <feColorMatrix values="0 0 0 0 0   0 0 0 0 0   0 0 0 0 0  0 0 0 0.05 0" type="matrix" in="shadowBlurOuter1"></feColorMatrix>
        </filter>
    </defs>
    <g id="desktop" stroke="none" stroke-width="1" fill="none" fill-rule="evenodd">
        <g id="homepage_2020" transform="translate(-919.000000, -5745.000000)">
            <g transform="translate(64.000000, 245.000000)" id="ai_competition">
                <g transform="translate(111.000000, 5397.000000)">
                    <g id="img_robot" transform="translate(772.000000, 103.000000)">
                        <g id="details" transform="translate(4.000000, 91.000000)">
                            <g id="Triangle">
                                <use fill="black" fill-opacity="1" filter="url(#filter-2)" xlink:href="#path-1"></use>
                                <use fill="#F9CA5A" fill-rule="evenodd" xlink:href="#path-1"></use>
                            </g>
                            <circle id="Oval" fill="#FFEFE4" cx="278" cy="196" r="5"></circle>
                            <rect id="Rectangle" fill="#FFEFE4" x="205" y="21" width="9" height="9"></rect>
                            <rect id="Rectangle" fill="#FFEFE4" x="24" y="207" width="9" height="9"></rect>
                            <circle id="Oval" fill="#FFEFE4" cx="60.5" cy="99.5" r="3.5"></circle>
                            <g id="Fill-1" stroke-linecap="round">
                                <use fill="black" fill-opacity="1" filter="url(#filter-4)" xlink:href="#path-3"></use>
                                <use stroke="#00D7FF" stroke-width="5" xlink:href="#path-3"></use>
                            </g>
                            <g id="Fill-1" stroke-linecap="round" transform="translate(12.500000, 70.500000) rotate(-270.000000) translate(-12.500000, -70.500000) ">
                                <use fill="black" fill-opacity="1" filter="url(#filter-6)" xlink:href="#path-5"></use>
                                <use stroke="#00FFCD" stroke-width="5" xlink:href="#path-5"></use>
                            </g>
                            <g id="Path-2" stroke-linecap="round" stroke-linejoin="round">
                                <use fill="black" fill-opacity="1" filter="url(#filter-8)" xlink:href="#path-7"></use>
                                <use stroke="#00E8BB" stroke-width="5" xlink:href="#path-7"></use>
                            </g>
                            <g id="Path-2-" stroke-linecap="round" stroke-linejoin="round">
                                <use fill="black" fill-opacity="1" filter="url(#filter-10)" xlink:href="#path-9"></use>
                                <use stroke="#CBBAED" stroke-width="5" xlink:href="#path-9"></use>
                            </g>
                        </g>
                        <g id="speech" transform="translate(35.000000, 0.000000)" fill-rule="nonzero">
                            <path d="M134.668515,0 L29.2757642,0 C13.1072476,0 1.13686838e-13,13.0912414 1.13686838e-13,29.2400136 L1.13686838e-13,104.289382 C1.13686838e-13,120.438154 13.1072476,133.529395 29.2757642,133.529395 L60.980929,133.529395 L60.5413046,133.567407 L81.9721398,154.972072 L81.9872656,133.529395 L134.668515,133.529395 C150.837032,133.529395 163.94428,120.438154 163.94428,104.289382 L163.94428,29.2400136 C163.94428,13.0912414 150.837032,0 134.668515,0 Z" id="Path" fill="#FFEFE4"></path>
                            <path d="M96.7687379,78.3468324 C88.5767377,72.0203076 84.9564073,60.1555469 88.1575588,50.1351806 C89.5673752,45.7305313 92.3886458,41.5970668 96.1023088,38.4944422 C100.056672,35.194745 104.456413,33.368879 109.178725,33.0640066 L110.175913,33 L107.452887,57.8883736 C107.321894,59.0691231 106.973124,62.2037509 109.031358,63.6253662 C109.648664,64.0481453 110.38059,64.2553239 111.268071,64.2553239 C112.062218,64.2553239 112.835079,64.0885703 113.345953,63.9757169 C116.931898,63.2143779 121.316902,62.2391228 125.132085,61.3851433 L127.848561,60.7838199 C130.250652,60.2515564 132.634732,59.7226618 134.833784,59.2459827 L135.940678,59.0068007 L135.840796,60.165653 C135.190741,67.743671 131.319886,74.7506847 125.487404,78.9127835 C121.54614,81.7223265 116.59459,83.2702703 111.543157,83.2702703 C106.131491,83.2702703 100.883568,81.5218854 96.7687379,78.3468324 Z" id="Path" fill="#A4E3FF"></path>
                            <path d="M136.005932,111.998198 C134.689372,111.998198 133.397842,111.463295 132.466738,110.533462 C131.535635,109.60363 131,108.313862 131,106.999099 C131,105.684336 131.535134,104.394568 132.466738,103.464736 C133.397842,102.534904 134.689372,102 136.005932,102 C137.322492,102 138.614023,102.534904 139.544626,103.464736 C140.475729,104.394568 141.011864,105.684336 141.011864,106.999099 C141.011864,108.318861 140.47623,109.60363 139.544626,110.533462 C138.614023,111.463295 137.322492,111.998198 136.005932,111.998198 Z" id="Path" fill="#000000"></path>
                            <path d="M10.0042671,52.5078583 C10.2629478,52.6320146 10.5358023,52.6914701 10.8051134,52.6914701 C11.4819351,52.6914701 12.13218,52.3172519 12.4493289,51.6772332 L15.8600134,44.778674 L17.8993364,92.1242993 C17.9205978,92.620926 18.1473862,93.0878244 18.5283198,93.4113309 C18.8631869,93.6963665 19.288415,93.8519997 19.7260458,93.8519997 C19.7862867,93.8519997 19.8482988,93.8502507 19.9103113,93.843256 L57.206364,90.1133126 L51.2974643,95.3873443 C50.5479996,96.0553414 50.4895309,97.1972326 51.1681242,97.9369261 C51.527796,98.33038 52.0256672,98.5297297 52.5235388,98.5297297 C52.9611691,98.5297297 53.4005716,98.3758455 53.7496133,98.0645799 L62.9079645,89.8929786 C63.3048441,89.5397442 63.5245453,89.0326256 63.5103711,88.5045231 C63.4961968,87.9781693 63.2481471,87.4832915 62.8335498,87.1510418 L52.0345265,78.5247821 C51.2496261,77.8987534 50.0961946,78.0176639 49.4618962,78.7923307 C48.8258256,79.5687469 48.9480786,80.7053915 49.732979,81.3314206 L56.3009822,86.5774733 L21.4712529,90.0591033 L19.5063446,44.4201934 L25.0608874,50.2293227 C25.7536551,50.9550267 26.9124015,50.9882519 27.6459199,50.3045162 C28.3794387,49.619032 28.4148743,48.4771409 27.720335,47.7531858 L18.0658843,37.6545343 C17.6548305,37.2226096 17.0541956,37.0197618 16.4606478,37.1089448 C15.8671001,37.1981278 15.3568263,37.5688488 15.0928306,38.1021974 L9.16266958,50.0946741 C8.71972382,50.9900004 9.09711369,52.0706871 10.0042671,52.5078583 Z" id="Path" fill="#040810"></path>
                            <path d="M23.8408526,82.9074791 C24.13315,83.084432 24.4571425,83.1693694 24.7758528,83.1693694 C25.3921427,83.1693694 25.9943459,82.8543934 26.3341862,82.2828355 L39.0280012,61.0679525 L49.2918724,70.3278976 C49.677494,70.6764947 50.191656,70.8392913 50.7075788,70.7844363 C51.2217408,70.7278114 51.6883603,70.4517644 51.9877014,70.0288473 L65.9352266,50.3198331 L66.8843134,57.1891449 C67.0110931,58.1039913 67.7893792,58.7657954 68.6821195,58.7657954 C68.7648786,58.7657954 68.8493984,58.7587168 68.9339182,58.7480999 C69.9287864,58.6083069 70.6225531,57.6863825 70.4852083,56.6883681 L68.5747091,42.8524208 C68.5007545,42.3180233 68.1978915,41.8455589 67.7435979,41.558895 C67.291065,41.2704621 66.7328819,41.2014504 66.2240025,41.3624776 L52.9068543,45.6252728 C51.9507242,45.9314012 51.4224755,46.9594979 51.7270988,47.9203518 C52.0317221,48.8812062 53.0547635,49.4120649 54.0108937,49.1059365 L64.7730795,45.6606634 L50.2075034,66.2438247 L39.8203744,56.8723991 C39.4153836,56.5078759 38.8730483,56.3433098 38.3359956,56.4247084 C37.8007036,56.5061065 37.3288015,56.8228523 37.0488296,57.290008 L23.2210409,80.4000566 C22.7033569,81.2653562 22.979807,82.3872378 23.8408526,82.9074791 Z" id="Path" fill="#040810"></path>
                            <path d="M111.833314,85.9621622 C117.329336,85.9621622 122.823704,84.3563013 127.365693,81.1242311 C136.785319,74.4260787 141.233062,61.4011404 137.94107,50.1567233 C135.384858,41.4236897 128.036988,34.0675923 119.220867,31.4137675 C110.049257,28.6514158 101.770502,30.2708421 94.6177376,36.2279585 C90.4262769,39.7160848 87.3690736,44.1911288 85.7751612,49.169806 C82.2086996,60.2989131 86.2430837,73.473076 95.366744,80.496809 C100.092265,84.1324643 105.96527,85.9621622 111.833314,85.9621622 Z M134.672227,51.1622939 C135.174872,52.8817692 135.46753,54.6487245 135.570043,56.4258545 C132.322695,57.1244977 128.610731,57.9469289 125.00624,58.7473157 C120.900758,59.6579251 116.654734,60.599058 113.127955,61.3485725 C112.218565,61.5435821 111.208315,61.7216342 110.720552,61.3841833 C110.203026,61.0280788 110.042643,59.9207641 110.244362,58.0927619 L112.919622,33.7199668 C114.657383,33.8742787 116.438134,34.2235999 118.26022,34.7713223 C125.996648,37.101262 132.438435,43.5348794 134.672227,51.1622939 Z M96.7672045,38.9445253 C100.637898,35.7226294 104.895496,33.9658482 109.490395,33.6724862 L106.853165,57.6993514 C106.706009,59.0321991 106.317452,62.5695015 108.8191,64.2906724 C109.692115,64.8926583 110.654414,65.0757977 111.548923,65.0757977 C112.415324,65.0757977 113.218894,64.9045281 113.822398,64.7756527 C117.362405,64.0227461 121.615042,63.079918 125.727138,62.1676125 C129.053851,61.4299678 132.463237,60.6736703 135.517133,60.0140296 C134.898748,67.1869873 131.249614,74.1021933 125.421252,78.248265 C117.203675,84.0934627 105.424596,83.8611467 97.4153515,77.6954553 C89.4259482,71.5467214 85.8942086,60.0089423 89.015896,50.2618591 C90.3865944,45.9852159 93.1395655,41.9663248 96.7672045,38.9445253 Z" id="Shape" fill="#040810"></path>
                        </g>
                        <g id="robot" transform="translate(0.000000, 179.000000)">
                            <g id="Group-33">
                                <path d="M17,90.667 C8.729,90.667 2,83.938 2,75.667 C2,67.396 8.729,60.667 17,60.667 C25.271,60.667 32,67.396 32,75.667 C32,83.938 25.271,90.667 17,90.667" id="Fill-1" fill="#CBBAED"></path>
                                <path d="M17,58.667 C7.611,58.667 0,66.277 0,75.667 C0,85.056 7.611,92.667 17,92.667 C26.389,92.667 34,85.056 34,75.667 C34,66.277 26.389,58.667 17,58.667 M17,62.667 C24.168,62.667 30,68.498 30,75.667 C30,82.835 24.168,88.667 17,88.667 C9.832,88.667 4,82.835 4,75.667 C4,68.498 9.832,62.667 17,62.667" id="Fill-3" fill="#000000"></path>
                                <path d="M242,90.2227 C233.729,90.2227 227,83.4937 227,75.2227 C227,66.9517 233.729,60.2227 242,60.2227 C250.271,60.2227 257,66.9517 257,75.2227 C257,83.4937 250.271,90.2227 242,90.2227" id="Fill-5" fill="#CBBAED"></path>
                                <path d="M242,58.2227 C232.611,58.2227 225,65.8327 225,75.2227 C225,84.6117 232.611,92.2227 242,92.2227 C251.389,92.2227 259,84.6117 259,75.2227 C259,65.8327 251.389,58.2227 242,58.2227 M242,62.2227 C249.168,62.2227 255,68.0537 255,75.2227 C255,82.3907 249.168,88.2227 242,88.2227 C234.832,88.2227 229,82.3907 229,75.2227 C229,68.0537 234.832,62.2227 242,62.2227" id="Fill-7" fill="#000000"></path>
                                <path d="M54,109.667 C35.252,109.667 20,94.415 20,75.667 C20,56.919 35.252,41.667 54,41.667 C72.748,41.667 88,56.919 88,75.667 C88,94.415 72.748,109.667 54,109.667" id="Fill-9" fill="#5D00F3"></path>
                                <path d="M54,39.667 C34.118,39.667 18,55.784 18,75.667 C18,95.549 34.118,111.667 54,111.667 C73.882,111.667 90,95.549 90,75.667 C90,55.784 73.882,39.667 54,39.667 M54,43.667 C71.645,43.667 86,58.021 86,75.667 C86,93.312 71.645,107.667 54,107.667 C36.355,107.667 22,93.312 22,75.667 C22,58.021 36.355,43.667 54,43.667" id="Fill-11" fill="#000000"></path>
                                <path d="M205,109.2227 C186.252,109.2227 171,93.9707 171,75.2227 C171,56.4747 186.252,41.2227 205,41.2227 C223.748,41.2227 239,56.4747 239,75.2227 C239,93.9707 223.748,109.2227 205,109.2227" id="Fill-13" fill="#5D00F3"></path>
                                <path d="M205,39.2227 C185.118,39.2227 169,55.3397 169,75.2227 C169,95.1047 185.118,111.2227 205,111.2227 C224.882,111.2227 241,95.1047 241,75.2227 C241,55.3397 224.882,39.2227 205,39.2227 M205,43.2227 C222.645,43.2227 237,57.5767 237,75.2227 C237,92.8677 222.645,107.2227 205,107.2227 C187.355,107.2227 173,92.8677 173,75.2227 C173,57.5767 187.355,43.2227 205,43.2227" id="Fill-15" fill="#000000"></path>
                                <path d="M128.25,119 C95.993,119 69.75,92.757 69.75,60.5 C69.75,28.243 95.993,2 128.25,2 C160.507,2 186.75,28.243 186.75,60.5 C186.75,92.757 160.507,119 128.25,119" id="Fill-17" fill="#5D00F3"></path>
                                <path d="M128.25,0 C94.837,0 67.75,27.087 67.75,60.5 C67.75,93.913 94.837,121 128.25,121 C161.663,121 188.75,93.913 188.75,60.5 C188.75,27.087 161.663,0 128.25,0 M128.25,4 C159.404,4 184.75,29.346 184.75,60.5 C184.75,91.654 159.404,117 128.25,117 C97.096,117 71.75,91.654 71.75,60.5 C71.75,29.346 97.096,4 128.25,4" id="Fill-19" fill="#000000"></path>
                                <path d="M127.25,159 C114.875,159 103.133,157.337 88.25,153.459 L88.25,138 L168.25,138 L168.25,153.458 C153.673,157.236 140.605,159 127.25,159" id="Fill-21" fill="#5D00F3"></path>
                                <path d="M170.25,136 L86.25,136 L86.25,155 C101.25,159 113.587,161 127.25,161 C141.587,161 155.25,159 170.25,155 L170.25,136 Z M166.25,140 L166.25,151.904 C152.441,155.376 139.973,157 127.25,157 C115.471,157 104.257,155.467 90.25,151.908 L90.25,140 L166.25,140 Z" id="Fill-23" fill="#000000"></path>
                                <path d="M127.25,145 C114.875,145 103.133,143.337 88.25,139.459 L88.25,124 L168.25,124 L168.25,139.458 C153.673,143.236 140.605,145 127.25,145" id="Fill-25" fill="#5D00F3"></path>
                                <path d="M170.25,122 L86.25,122 L86.25,141 C101.25,145 113.587,147 127.25,147 C141.587,147 155.25,145 170.25,141 L170.25,122 Z M166.25,126 L166.25,137.904 C152.441,141.376 139.973,143 127.25,143 C115.471,143 104.257,141.467 90.25,137.908 L90.25,126 L166.25,126 Z" id="Fill-27" fill="#000000"></path>
                                <path d="M69.9316,125.7227 C57.0806,125.7227 46.6246,115.2667 46.6246,102.4147 L46.6246,48.0297 C46.6246,35.1777 57.0806,24.7227 69.9316,24.7227 L186.3186,24.7227 C199.1696,24.7227 209.6246,35.1777 209.6246,48.0297 L209.6246,102.4147 C209.6246,115.2667 199.1696,125.7227 186.3186,125.7227 L69.9316,125.7227 Z" id="Fill-29" fill="#CBBAED"></path>
                                <path d="M186.3184,22.7227 L69.9314,22.7227 C55.9554,22.7227 44.6254,34.0527 44.6254,48.0297 L44.6254,102.4147 C44.6254,116.3917 55.9554,127.7227 69.9314,127.7227 L186.3184,127.7227 C200.2954,127.7227 211.6254,116.3917 211.6254,102.4147 L211.6254,48.0297 C211.6254,34.0527 200.2954,22.7227 186.3184,22.7227 M186.3184,26.7227 C198.0674,26.7227 207.6254,36.2807 207.6254,48.0297 L207.6254,102.4147 C207.6254,114.1637 198.0674,123.7227 186.3184,123.7227 L69.9314,123.7227 C58.1834,123.7227 48.6254,114.1637 48.6254,102.4147 L48.6254,48.0297 C48.6254,36.2807 58.1834,26.7227 69.9314,26.7227 L186.3184,26.7227" id="Fill-31" fill="#000000"></path>
                            </g>
                            <g id="Group-55">
                                <path d="M89.125,77 C80.303,77 73.125,69.822 73.125,61 C73.125,52.178 80.303,45 89.125,45 C97.947,45 105.125,52.178 105.125,61 C105.125,69.822 97.947,77 89.125,77" id="Fill-34" fill="#FFFFFF"></path>
                                <path d="M89.125,43 C79.184,43 71.125,51.059 71.125,61 C71.125,70.941 79.184,79 89.125,79 C99.066,79 107.125,70.941 107.125,61 C107.125,51.059 99.066,43 89.125,43 M89.125,47 C96.845,47 103.125,53.28 103.125,61 C103.125,68.72 96.845,75 89.125,75 C81.405,75 75.125,68.72 75.125,61 C75.125,53.28 81.405,47 89.125,47" id="Fill-36" fill="#000000"></path>
                                <path d="M167.125,76 C158.303,76 151.125,68.822 151.125,60 C151.125,51.178 158.303,44 167.125,44 C175.947,44 183.125,51.178 183.125,60 C183.125,68.822 175.947,76 167.125,76" id="Fill-38" fill="#FFFFFF"></path>
                                <path d="M167.125,42 C157.184,42 149.125,50.059 149.125,60 C149.125,69.941 157.184,78 167.125,78 C177.066,78 185.125,69.941 185.125,60 C185.125,50.059 177.066,42 167.125,42 M167.125,46 C174.845,46 181.125,52.28 181.125,60 C181.125,67.72 174.845,74 167.125,74 C159.405,74 153.125,67.72 153.125,60 C153.125,52.28 159.405,46 167.125,46" id="Fill-40" fill="#000000"></path>
                                <path d="M92.125,110 C86.06,110 81.125,105.065 81.125,99 C81.125,92.935 86.06,88 92.125,88 L164.125,88 C170.19,88 175.125,92.935 175.125,99 C175.125,105.065 170.19,110 164.125,110 L92.125,110 Z" id="Fill-42" fill="#FFFFFF"></path>
                                <path d="M164.125,86 L92.125,86 C84.945,86 79.125,91.82 79.125,99 C79.125,106.18 84.945,112 92.125,112 L164.125,112 C171.305,112 177.125,106.18 177.125,99 C177.125,91.82 171.305,86 164.125,86 M164.125,90 C169.087,90 173.125,94.037 173.125,99 C173.125,103.963 169.087,108 164.125,108 L92.125,108 C87.163,108 83.125,103.963 83.125,99 C83.125,94.037 87.163,90 92.125,90 L164.125,90" id="Fill-44" fill="#000000"></path>
                                <polygon id="Clip-47" points="0 161 259 161 259 0 0 0"></polygon>
                                <polygon id="Fill-46" fill="#FFFFFF" points="99.125 110 103.125 110 103.125 88 99.125 88"></polygon>
                                <path d="M97.125,112 L105.125,112 L105.125,86 L97.125,86 L97.125,112 Z M101.125,90 L101.125,108 L101.125,90 Z" id="Fill-48" fill="#000000"></path>
                                <polygon id="Fill-49" fill="#FFFFFF" points="117.125 110 121.125 110 121.125 88 117.125 88"></polygon>
                                <path d="M115.125,112 L123.125,112 L123.125,86 L115.125,86 L115.125,112 Z M119.125,90 L119.125,108 L119.125,90 Z" id="Fill-50" fill="#000000"></path>
                                <polygon id="Fill-51" fill="#FFFFFF" points="135.125 110 139.125 110 139.125 88 135.125 88"></polygon>
                                <path d="M133.125,112 L141.125,112 L141.125,86 L133.125,86 L133.125,112 Z M137.125,90 L137.125,108 L137.125,90 Z" id="Fill-52" fill="#000000"></path>
                                <polygon id="Fill-53" fill="#FFFFFF" points="153.125 110 157.125 110 157.125 88 153.125 88"></polygon>
                                <path d="M151.125,112 L159.125,112 L159.125,86 L151.125,86 L151.125,112 Z M155.125,90 L155.125,108 L155.125,90 Z" id="Fill-54" fill="#000000"></path>
                            </g>
                        </g>
                    </g>
                </g>
            </g>
        </g>
    </g>
</svg>