<?xml version="1.0" encoding="UTF-8"?>
<svg width="26px" height="26px" viewBox="0 0 26 26" version="1.1" xmlns="http://www.w3.org/2000/svg" xmlns:xlink="http://www.w3.org/1999/xlink">
    <!-- Generator: Sketch 60 (88103) - https://sketch.com -->
    <title>icon-twitter</title>
    <desc>Created with Sketch.</desc>
    <g id="icon-twitter" stroke="none" stroke-width="1" fill="none" fill-rule="evenodd">
        <path d="M20.1572857,9.32905714 C20.1643143,9.48751429 20.1679143,9.64682857 20.1679143,9.80677143 C20.1679143,14.6869429 16.4535143,20.3139714 9.66088571,20.3139714 C7.5754,20.3139714 5.63425714,19.7027143 4.00002857,18.6547143 C4.28894286,18.6890571 4.58282857,18.7065429 4.881,18.7065429 C6.61117143,18.7065429 8.20345714,18.1162 9.4674,17.1255143 C7.8514,17.0958571 6.48751429,16.0281429 6.01751429,14.5609429 C6.24311429,14.6042 6.47448571,14.6274 6.71242857,14.6274 C7.04922857,14.6274 7.37551429,14.5820286 7.6854,14.4978 C5.99608571,14.1584286 4.72305714,12.6659714 4.72305714,10.8767714 C4.72305714,10.8611714 4.72305714,10.8456857 4.7234,10.8302571 C5.22122857,11.1068286 5.7906,11.273 6.39602857,11.2922 C5.40505714,10.6299714 4.75328571,9.49957143 4.75328571,8.21848571 C4.75328571,7.54162857 4.9354,6.90734286 5.25334286,6.3618 C7.07465714,8.59614286 9.7958,10.0662571 12.8649429,10.2204286 C12.8019143,9.95002857 12.7691143,9.66814286 12.7691143,9.37877143 C12.7691143,7.33945714 14.4227143,5.68602857 16.4620286,5.68602857 C17.5242571,5.68602857 18.4840286,6.13442857 19.1576286,6.85208571 C19.9987143,6.68665714 20.7891143,6.37917143 21.5026571,5.95602857 C21.227,6.81842857 20.6414571,7.54197143 19.8789429,7.99911429 C20.6260286,7.9098 21.3376857,7.71122857 21.9999714,7.41751429 C21.505,8.15802857 20.8789429,8.80848571 20.1572857,9.32905714 Z" id="icon" fill="#FFFFFF"></path>
    </g>
</svg>