<?xml version="1.0" encoding="UTF-8"?>
<svg width="26px" height="26px" viewBox="0 0 26 26" version="1.1" xmlns="http://www.w3.org/2000/svg" xmlns:xlink="http://www.w3.org/1999/xlink">
    <!-- Generator: Sketch 60 (88103) - https://sketch.com -->
    <title>icon-medium</title>
    <desc>Created with Sketch.</desc>
    <g id="icon-medium" stroke="none" stroke-width="1" fill="none" fill-rule="evenodd">
        <path d="M6.27371018,8.85613814 C6.29575395,8.63937438 6.21272241,8.42554978 6.05106807,8.28006088 L4.40513305,6.29612135 L4.40513305,6 L9.51781872,6 L13.4695324,14.6668766 L16.9436309,6 L21.8175091,6 L21.8175091,6.29612135 L20.4096468,7.64593502 C20.288406,7.73851887 20.228153,7.8906209 20.253136,8.04125335 L20.253136,17.9594814 C20.228153,18.1093791 20.288406,18.2614811 20.4096468,18.354065 L21.7844434,19.7038787 L21.7844434,20 L14.8685771,20 L14.8685771,19.7038787 L16.2933396,18.3209993 C16.4329502,18.1813888 16.4329502,18.1402404 16.4329502,17.9264158 L16.4329502,9.90983047 L12.4731538,19.9676691 L11.938225,19.9676691 L7.32740251,9.90983047 L7.32740251,16.6508161 C7.2891933,16.9337112 7.38324673,17.2195455 7.58237548,17.4238178 L9.43478717,19.670813 L9.43478717,19.9676691 L4.18249095,19.9676691 L4.18249095,19.670813 L6.03490264,17.4238178 C6.23329659,17.2188107 6.32147168,16.9315068 6.27371018,16.6508161 L6.27371018,8.85613814 L6.27371018,8.85613814 Z" id="icon" fill="#FFFFFF"></path>
    </g>
</svg>