<?xml version="1.0" encoding="UTF-8"?>
<svg width="26px" height="26px" viewBox="0 0 26 26" version="1.1" xmlns="http://www.w3.org/2000/svg" xmlns:xlink="http://www.w3.org/1999/xlink">
    <!-- Generator: Sketch 60 (88103) - https://sketch.com -->
    <title>icon-email</title>
    <desc>Created with Sketch.</desc>
    <g id="icon-email" stroke="none" stroke-width="1" fill="none" fill-rule="evenodd">
        <path d="M21,12.133945 C21,13.0733992 20.8497668,13.9329217 20.5492958,14.7125382 C20.2488248,15.4921548 19.8242526,16.1037694 19.2755664,16.5474006 C18.7268803,16.9910318 18.090022,17.212844 17.3649724,17.212844 C16.8816061,17.212844 16.4537679,17.097045 16.0814452,16.8654434 C15.7091224,16.6338419 15.4413154,16.32885 15.2780159,15.9504587 L15.1212492,15.9504587 C14.4157956,16.7920531 13.5176621,17.212844 12.4268218,17.212844 C11.2706617,17.212844 10.3594644,16.8654469 9.69320269,16.1706422 C9.02694094,15.4758375 8.69381506,14.5249806 8.69381506,13.3180428 C8.69381506,11.9414814 9.13145102,10.8324201 10.0067361,9.99082569 C10.8820211,9.14923127 12.0251001,8.72844037 13.4360073,8.72844037 C13.9977575,8.72844037 14.6166531,8.78226246 15.2927128,8.88990826 C15.9687725,8.99755406 16.5256153,9.12640088 16.9632578,9.2764526 L16.7379057,14.0617737 C16.7379057,14.968608 16.9861171,15.4220183 17.4825475,15.4220183 C17.900594,15.4220183 18.2337199,15.1170265 18.4819351,14.5070336 C18.7301503,13.8970408 18.854256,13.0994952 18.854256,12.1143731 C18.854256,11.0640111 18.635438,10.1359877 18.1977955,9.33027523 C17.7601529,8.52456274 17.1445233,7.90968612 16.3508879,7.48562691 C15.5572526,7.06156771 14.6509543,6.84954128 13.6319657,6.84954128 C12.3125062,6.84954128 11.1661612,7.12028272 10.1928965,7.6617737 C9.21963179,8.20326469 8.47336451,8.9845005 7.95407226,10.0055046 C7.43478001,11.0265087 7.17513778,12.2057018 7.17513778,13.5431193 C7.17513778,15.3437399 7.65686393,16.7251736 8.62033068,17.6874618 C9.58379743,18.64975 10.9799868,19.1308869 12.8089406,19.1308869 C13.5013303,19.1308869 14.2622943,19.0542311 15.0918555,18.9009174 C15.9214167,18.7476037 16.7379017,18.5241605 17.541335,18.230581 L17.541335,20.1094801 C16.1434917,20.703163 14.5921702,21 12.8873239,21 C10.4051723,21 8.47010288,20.347611 7.08205756,19.0428135 C5.69401225,17.7380159 5,15.9243745 5,13.6018349 C5,11.9904099 5.35435449,10.5274276 6.0630741,9.21284404 C6.7717937,7.8982605 7.78096916,6.8674859 9.09063074,6.1204893 C10.4002923,5.3734927 11.9075236,5 13.6123699,5 C15.049405,5 16.3329194,5.29357505 17.4629516,5.88073394 C18.5929838,6.46789284 19.4649898,7.30295075 20.0789957,8.38593272 C20.6930016,9.46891469 21,10.7182396 21,12.133945 Z M10.966932,13.3571865 C10.966932,14.733748 11.5286737,15.4220183 12.6521739,15.4220183 C13.2400519,15.4220183 13.6874857,15.2148848 13.9944887,14.8006116 C14.3014916,14.3863384 14.4876502,13.7127468 14.55297,12.7798165 L14.6803429,10.6171254 C14.3472121,10.5453615 13.971629,10.5094801 13.5535824,10.5094801 C12.7370851,10.5094801 12.1018598,10.7639118 11.6478873,11.2727829 C11.1939149,11.7816539 10.966932,12.4764482 10.966932,13.3571865 Z" id="icon" fill="#FFFFFF" fill-rule="nonzero"></path>
    </g>
</svg>