<?xml version="1.0" encoding="UTF-8" standalone="no"?>
<svg width="356px" height="270px" viewBox="0 0 356 270" version="1.1" xmlns="http://www.w3.org/2000/svg" xmlns:xlink="http://www.w3.org/1999/xlink">
    <!-- Generator: Sketch 47.1 (45422) - http://www.bohemiancoding.com/sketch -->
    <title>landing-separator-exes-section</title>
    <desc>Created with Sketch.</desc>
    <defs></defs>
    <g id="Page-1" stroke="none" stroke-width="1" fill="none" fill-rule="evenodd">
        <g id="landing-separator-exes-section" fill="#62C7D5">
            <g id="bottom-left" transform="translate(-1.500000, 24.000000) rotate(-125.000000) translate(1.500000, -24.000000) translate(-89.000000, -64.000000)">
                <path d="M87.4798525,3.10445054 C100.070854,3.10445054 110.277877,11.137526 110.277877,25.7898545 C109.264631,53.5481773 108.758009,74.1829233 108.758009,87.6940923 C108.758009,101.695918 109.264631,122.330664 110.277877,149.59833 C110.277877,164.250659 100.070854,172.283734 87.4798525,172.283734 C74.8888513,172.283734 64.6818282,164.250659 64.6818282,149.59833 C65.6950737,122.146021 66.2016964,101.511275 66.2016964,87.6940923 C66.2016964,73.9982806 65.6950737,53.3635347 64.6818282,25.7898545 C64.6818282,11.137526 74.8888513,3.10445054 87.4798525,3.10445054 Z" id="Rectangle" transform="translate(87.479853, 87.694092) rotate(-19.000000) translate(-87.479853, -87.694092) "></path>
                <path d="M87.4798525,3.10445054 C100.070854,3.10445054 110.277877,11.137526 110.277877,25.7898545 C109.264631,53.5481773 108.758009,74.1829233 108.758009,87.6940923 C108.758009,101.695918 109.264631,122.330664 110.277877,149.59833 C110.277877,164.250659 100.070854,172.283734 87.4798525,172.283734 C74.8888513,172.283734 64.6818282,164.250659 64.6818282,149.59833 C65.6950737,122.146021 66.2016964,101.511275 66.2016964,87.6940923 C66.2016964,73.9982806 65.6950737,53.3635347 64.6818282,25.7898545 C64.6818282,11.137526 74.8888513,3.10445054 87.4798525,3.10445054 Z" id="Rectangle-Copy" transform="translate(87.479853, 87.694092) rotate(80.000000) translate(-87.479853, -87.694092) "></path>
            </g>
            <g id="bottom-left-copy-2" transform="translate(271.500000, 83.000000) rotate(63.000000) translate(-271.500000, -83.000000) translate(184.000000, -5.000000)">
                <path d="M87.4798525,3.10445054 C100.070854,3.10445054 110.277877,11.137526 110.277877,25.7898545 C109.264631,53.5481773 108.758009,74.1829233 108.758009,87.6940923 C108.758009,101.695918 109.264631,122.330664 110.277877,149.59833 C110.277877,164.250659 100.070854,172.283734 87.4798525,172.283734 C74.8888513,172.283734 64.6818282,164.250659 64.6818282,149.59833 C65.6950737,122.146021 66.2016964,101.511275 66.2016964,87.6940923 C66.2016964,73.9982806 65.6950737,53.3635347 64.6818282,25.7898545 C64.6818282,11.137526 74.8888513,3.10445054 87.4798525,3.10445054 Z" id="Rectangle" transform="translate(87.479853, 87.694092) rotate(-19.000000) translate(-87.479853, -87.694092) "></path>
                <path d="M87.4798525,3.10445054 C100.070854,3.10445054 110.277877,11.137526 110.277877,25.7898545 C109.264631,53.5481773 108.758009,74.1829233 108.758009,87.6940923 C108.758009,101.695918 109.264631,122.330664 110.277877,149.59833 C110.277877,164.250659 100.070854,172.283734 87.4798525,172.283734 C74.8888513,172.283734 64.6818282,164.250659 64.6818282,149.59833 C65.6950737,122.146021 66.2016964,101.511275 66.2016964,87.6940923 C66.2016964,73.9982806 65.6950737,53.3635347 64.6818282,25.7898545 C64.6818282,11.137526 74.8888513,3.10445054 87.4798525,3.10445054 Z" id="Rectangle-Copy" transform="translate(87.479853, 87.694092) rotate(80.000000) translate(-87.479853, -87.694092) "></path>
            </g>
            <g id="bottom-left-copy-3" transform="translate(106.171970, 169.122645) rotate(49.000000) translate(-106.171970, -169.122645) translate(51.171970, 114.622645)">
                <path d="M55,2 C62.7319865,2 69,6.98567497 69,16.0795455 C68.3777778,33.3075644 68.0666667,46.1143826 68.0666667,54.5 C68.0666667,63.1901402 68.3777778,75.9969583 69,92.9204545 C69,102.014325 62.7319865,107 55,107 C47.2680135,107 41,102.014325 41,92.9204545 C41.6222222,75.8823611 41.9333333,63.0755429 41.9333333,54.5 C41.9333333,45.9997854 41.6222222,33.1929672 41,16.0795455 C41,6.98567497 47.2680135,2 55,2 Z" id="Rectangle" transform="translate(55.000000, 54.500000) rotate(-19.000000) translate(-55.000000, -54.500000) "></path>
                <path d="M55,2 C62.7319865,2 69,6.98567497 69,16.0795455 C68.3777778,33.3075644 68.0666667,46.1143826 68.0666667,54.5 C68.0666667,63.1901402 68.3777778,75.9969583 69,92.9204545 C69,102.014325 62.7319865,107 55,107 C47.2680135,107 41,102.014325 41,92.9204545 C41.6222222,75.8823611 41.9333333,63.0755429 41.9333333,54.5 C41.9333333,45.9997854 41.6222222,33.1929672 41,16.0795455 C41,6.98567497 47.2680135,2 55,2 Z" id="Rectangle-Copy" transform="translate(55.000000, 54.500000) rotate(80.000000) translate(-55.000000, -54.500000) "></path>
            </g>
        </g>
    </g>
</svg>