<?xml version="1.0" encoding="UTF-8"?>
<svg width="1280px" height="410px" viewBox="0 0 1280 410" version="1.1" xmlns="http://www.w3.org/2000/svg" xmlns:xlink="http://www.w3.org/1999/xlink">
    <!-- Generator: Sketch 47.1 (45422) - http://www.bohemiancoding.com/sketch -->
    <title>landing-separator-exes-content</title>
    <desc>Created with Sketch.</desc>
    <defs></defs>
    <g id="Page-1" stroke="none" stroke-width="1" fill="none" fill-rule="evenodd">
        <g id="landing-separator-exes-content" fill="#62C7D5">
            <g id="top-right" transform="translate(1136.287893, 13.258215) rotate(-19.000000) translate(-1136.287893, -13.258215) translate(939.287893, -184.241785)">
                <path d="M196.906284,7 C225.574779,7 248.815186,25.1131982 248.815186,58.1516692 C246.508124,120.741895 245.354593,167.269684 245.354593,197.735038 C245.354593,229.306737 246.508124,275.834527 248.815186,337.318406 C248.815186,370.356877 225.574779,388.470076 196.906284,388.470076 C168.237788,388.470076 144.997381,370.356877 144.997381,337.318406 C147.304443,275.418189 148.457974,228.8904 148.457974,197.735038 C148.457974,166.853347 147.304443,120.325558 144.997381,58.1516692 C144.997381,25.1131982 168.237788,7 196.906284,7 Z" id="Rectangle" transform="translate(196.906284, 197.735038) rotate(-19.000000) translate(-196.906284, -197.735038) "></path>
                <path d="M196.906284,7 C225.574779,7 248.815186,25.1131982 248.815186,58.1516692 C246.508124,120.741895 245.354593,167.269684 245.354593,197.735038 C245.354593,229.306737 246.508124,275.834527 248.815186,337.318406 C248.815186,370.356877 225.574779,388.470076 196.906284,388.470076 C168.237788,388.470076 144.997381,370.356877 144.997381,337.318406 C147.304443,275.418189 148.457974,228.8904 148.457974,197.735038 C148.457974,166.853347 147.304443,120.325558 144.997381,58.1516692 C144.997381,25.1131982 168.237788,7 196.906284,7 Z" id="Rectangle-Copy" transform="translate(196.906284, 197.735038) rotate(80.000000) translate(-196.906284, -197.735038) "></path>
            </g>
            <g id="middle-bottom" transform="translate(621.261312, 466.639935) rotate(-87.000000) translate(-621.261312, -466.639935) translate(424.261312, 269.139935)">
                <path d="M196.906284,7 C225.574779,7 248.815186,25.1131982 248.815186,58.1516692 C246.508124,120.741895 245.354593,167.269684 245.354593,197.735038 C245.354593,229.306737 246.508124,275.834527 248.815186,337.318406 C248.815186,370.356877 225.574779,388.470076 196.906284,388.470076 C168.237788,388.470076 144.997381,370.356877 144.997381,337.318406 C147.304443,275.418189 148.457974,228.8904 148.457974,197.735038 C148.457974,166.853347 147.304443,120.325558 144.997381,58.1516692 C144.997381,25.1131982 168.237788,7 196.906284,7 Z" id="Rectangle" transform="translate(196.906284, 197.735038) rotate(-19.000000) translate(-196.906284, -197.735038) "></path>
                <path d="M196.906284,7 C225.574779,7 248.815186,25.1131982 248.815186,58.1516692 C246.508124,120.741895 245.354593,167.269684 245.354593,197.735038 C245.354593,229.306737 246.508124,275.834527 248.815186,337.318406 C248.815186,370.356877 225.574779,388.470076 196.906284,388.470076 C168.237788,388.470076 144.997381,370.356877 144.997381,337.318406 C147.304443,275.418189 148.457974,228.8904 148.457974,197.735038 C148.457974,166.853347 147.304443,120.325558 144.997381,58.1516692 C144.997381,25.1131982 168.237788,7 196.906284,7 Z" id="Rectangle-Copy" transform="translate(196.906284, 197.735038) rotate(80.000000) translate(-196.906284, -197.735038) "></path>
            </g>
            <g id="bottom-left" transform="translate(70.730104, 419.682424) rotate(-125.000000) translate(-70.730104, -419.682424) translate(-16.769896, 331.682424)">
                <path d="M87.4798525,3.10445054 C100.070854,3.10445054 110.277877,11.137526 110.277877,25.7898545 C109.264631,53.5481773 108.758009,74.1829233 108.758009,87.6940923 C108.758009,101.695918 109.264631,122.330664 110.277877,149.59833 C110.277877,164.250659 100.070854,172.283734 87.4798525,172.283734 C74.8888513,172.283734 64.6818282,164.250659 64.6818282,149.59833 C65.6950737,122.146021 66.2016964,101.511275 66.2016964,87.6940923 C66.2016964,73.9982806 65.6950737,53.3635347 64.6818282,25.7898545 C64.6818282,11.137526 74.8888513,3.10445054 87.4798525,3.10445054 Z" id="Rectangle" transform="translate(87.479853, 87.694092) rotate(-19.000000) translate(-87.479853, -87.694092) "></path>
                <path d="M87.4798525,3.10445054 C100.070854,3.10445054 110.277877,11.137526 110.277877,25.7898545 C109.264631,53.5481773 108.758009,74.1829233 108.758009,87.6940923 C108.758009,101.695918 109.264631,122.330664 110.277877,149.59833 C110.277877,164.250659 100.070854,172.283734 87.4798525,172.283734 C74.8888513,172.283734 64.6818282,164.250659 64.6818282,149.59833 C65.6950737,122.146021 66.2016964,101.511275 66.2016964,87.6940923 C66.2016964,73.9982806 65.6950737,53.3635347 64.6818282,25.7898545 C64.6818282,11.137526 74.8888513,3.10445054 87.4798525,3.10445054 Z" id="Rectangle-Copy" transform="translate(87.479853, 87.694092) rotate(80.000000) translate(-87.479853, -87.694092) "></path>
            </g>
            <g id="bottom-left-copy-2" transform="translate(324.273318, 370.150530) rotate(72.000000) translate(-324.273318, -370.150530) translate(236.773318, 282.150530)">
                <path d="M87.4798525,3.10445054 C100.070854,3.10445054 110.277877,11.137526 110.277877,25.7898545 C109.264631,53.5481773 108.758009,74.1829233 108.758009,87.6940923 C108.758009,101.695918 109.264631,122.330664 110.277877,149.59833 C110.277877,164.250659 100.070854,172.283734 87.4798525,172.283734 C74.8888513,172.283734 64.6818282,164.250659 64.6818282,149.59833 C65.6950737,122.146021 66.2016964,101.511275 66.2016964,87.6940923 C66.2016964,73.9982806 65.6950737,53.3635347 64.6818282,25.7898545 C64.6818282,11.137526 74.8888513,3.10445054 87.4798525,3.10445054 Z" id="Rectangle" transform="translate(87.479853, 87.694092) rotate(-19.000000) translate(-87.479853, -87.694092) "></path>
                <path d="M87.4798525,3.10445054 C100.070854,3.10445054 110.277877,11.137526 110.277877,25.7898545 C109.264631,53.5481773 108.758009,74.1829233 108.758009,87.6940923 C108.758009,101.695918 109.264631,122.330664 110.277877,149.59833 C110.277877,164.250659 100.070854,172.283734 87.4798525,172.283734 C74.8888513,172.283734 64.6818282,164.250659 64.6818282,149.59833 C65.6950737,122.146021 66.2016964,101.511275 66.2016964,87.6940923 C66.2016964,73.9982806 65.6950737,53.3635347 64.6818282,25.7898545 C64.6818282,11.137526 74.8888513,3.10445054 87.4798525,3.10445054 Z" id="Rectangle-Copy" transform="translate(87.479853, 87.694092) rotate(80.000000) translate(-87.479853, -87.694092) "></path>
            </g>
            <g id="bottom-left-copy-3" transform="translate(531.502313, 113.956833) rotate(-95.000000) translate(-531.502313, -113.956833) translate(507.502313, 90.456833)">
                <path d="M23.7683321,0.389368509 C27.1893152,0.389368509 29.9625699,2.57196026 29.9625699,6.55300731 C29.6872705,14.0949614 29.5496207,19.7014352 29.5496207,23.3724284 C29.5496207,27.1767334 29.6872705,32.7832072 29.9625699,40.1918496 C29.9625699,44.1728966 27.1893152,46.3554884 23.7683321,46.3554884 C20.347349,46.3554884 17.5740942,44.1728966 17.5740942,40.1918496 C17.8493937,32.7330396 17.9870434,27.1265659 17.9870434,23.3724284 C17.9870434,19.6512676 17.8493937,14.0447939 17.5740942,6.55300731 C17.5740942,2.57196026 20.347349,0.389368509 23.7683321,0.389368509 Z" id="Rectangle" transform="translate(23.768332, 23.372428) rotate(2.000000) translate(-23.768332, -23.372428) "></path>
                <path d="M23.7683321,0.389368509 C27.1893152,0.389368509 29.9625699,2.57196026 29.9625699,6.55300731 C29.6872705,14.0949614 29.5496207,19.7014352 29.5496207,23.3724284 C29.5496207,27.1767334 29.6872705,32.7832072 29.9625699,40.1918496 C29.9625699,44.1728966 27.1893152,46.3554884 23.7683321,46.3554884 C20.347349,46.3554884 17.5740942,44.1728966 17.5740942,40.1918496 C17.8493937,32.7330396 17.9870434,27.1265659 17.9870434,23.3724284 C17.9870434,19.6512676 17.8493937,14.0447939 17.5740942,6.55300731 C17.5740942,2.57196026 20.347349,0.389368509 23.7683321,0.389368509 Z" id="Rectangle-Copy" transform="translate(23.768332, 23.372428) rotate(87.000000) translate(-23.768332, -23.372428) "></path>
            </g>
        </g>
    </g>
</svg>