<?xml version="1.0" encoding="UTF-8" standalone="no"?>
<svg width="77px" height="78px" viewBox="0 0 77 78" version="1.1" xmlns="http://www.w3.org/2000/svg" xmlns:xlink="http://www.w3.org/1999/xlink">
    <!-- Generator: Sketch 42 (36781) - http://www.bohemiancoding.com/sketch -->
    <title>Combined Shape</title>
    <desc>Created with Sketch.</desc>
    <defs></defs>
    <g id="Page-1" stroke="none" stroke-width="1" fill="none" fill-rule="evenodd">
        <path d="M0.883282145,6.24536723 C0.883282145,3.22963931 3.3900041,0.783435681 6.48234781,0.783435681 L71.0515278,0.783435681 C74.1437696,0.783435681 76.6505934,3.22963931 76.6505934,6.24536723 L76.6505934,71.569498 C76.6505934,74.5862447 74.1437696,77.0314295 71.0515278,77.0314295 L6.48234781,77.0314295 C3.3900041,77.0314295 0.883282145,74.5862447 0.883282145,71.569498 L0.883282145,6.24536723 L0.883282145,6.24536723 Z M23.8506992,64.6109096 L23.8506992,30.1806699 L12.4067249,30.1806699 L12.4067249,64.6109096 L23.8506992,64.6109096 L23.8506992,64.6109096 Z M18.1286611,25.4798022 C22.1194065,25.4798022 24.6033067,22.8359461 24.6033067,19.5318901 C24.5289323,16.1534598 22.1194065,13.5829593 18.20436,13.5829593 C14.289721,13.5829593 11.7302238,16.1534598 11.7302238,19.5318901 C11.7302238,22.8359461 14.2136146,25.4798022 18.054083,25.4798022 L18.1284574,25.4798022 L18.1286611,25.4798022 Z M30.1830147,65.6109096 L41.6268871,65.6109096 L41.6268871,46.3836064 C41.6268871,45.3545912 41.7012614,44.3265947 42.0034455,43.5910016 C42.830733,41.5350087 44.7137291,39.4056603 47.8751493,39.4056603 C52.0161716,39.4056603 53.6726824,42.5630052 53.6726824,47.1915362 L53.6726824,65.6109096 L65.1156379,65.6109096 L65.1156379,45.8690988 C65.1156379,35.2936745 59.4698081,30.3727401 51.9405747,30.3727401 C45.7668906,30.3727401 43.056607,33.8235072 41.5507807,36.1739411 L41.6271927,36.1739411 L41.6271927,31.1806699 L30.1833203,31.1806699 C30.3334954,34.4113704 30.1833203,65.6109096 30.1833203,65.6109096 L30.1830147,65.6109096 Z" id="Combined-Shape" fill="#8C9FA6" fill-rule="nonzero"></path>
    </g>
</svg>