<?xml version="1.0" encoding="UTF-8"?>
<svg width="74px" height="35px" viewBox="0 0 74 35" version="1.1" xmlns="http://www.w3.org/2000/svg" xmlns:xlink="http://www.w3.org/1999/xlink">
    <!-- Generator: Sketch 60 (88103) - https://sketch.com -->
    <title>mob_logo_main_abbreviated_2a</title>
    <desc>Created with Sketch.</desc>
    <g id="0200_general_phone" stroke="none" stroke-width="1" fill="none" fill-rule="evenodd">
        <g id="0201_homepage_2020_phone_1b" transform="translate(-16.000000, -10.000000)">
            <g id="navbar">
                <g id="mob_logo_main_abbreviated_2a" transform="translate(16.000000, 10.000000)">
                    <rect id="ctn" fill="#FFFFFF" x="7.10542736e-15" y="0" width="73.9285714" height="35"></rect>
                    <polygon id="underscore" fill="#5D00F3" fill-rule="nonzero" points="63.3214286 25.3928571 63.3214286 26.5467857 60.9107143 27.9642857 53.0357143 27.9642857 53.0357143 25.3928571"></polygon>
                    <path d="M14.4882597,10.6071429 L18.1607143,21.4852041 L18.2024467,21.4852041 L21.8540351,10.6071429 L25.7142857,10.6071429 L25.7142857,25.3928571 L22.8973461,25.3928571 L22.8973461,15.6342857 L22.8556137,15.6342857 L19.558751,25.3928571 L16.7835438,25.3928571 L13.4658149,15.507551 L13.4240825,15.507551 L13.4240825,25.3928571 L10.6071429,25.3928571 L10.6071429,10.6071429 L14.4882597,10.6071429 Z M48.0538961,10.6088079 L50.4642857,12.0236933 L50.4642857,16.6695854 L48.6564935,17.72547 L48.6564935,17.7677054 L50.4642857,18.82359 L50.4642857,23.9763067 L48.0538961,25.3911921 L40.1785714,25.3911921 L40.1785714,10.6088079 L48.0538961,10.6088079 Z M35.1772873,14.6415554 L37.6071429,16.0537661 L37.6071429,23.9790083 L35.1772873,25.391219 L30.7155698,25.391219 L28.2857143,23.9790083 L28.2857143,16.0537661 L30.7155698,14.6415554 L35.1772873,14.6415554 Z M34.7142857,17.170888 L31.1785714,17.170888 L31.1785714,22.8618864 L34.7142857,22.8618864 L34.7142857,17.170888 Z M47.5551948,19.0136492 L43.0876623,19.0136492 L43.0876623,22.8570691 L47.5551948,22.8570691 L47.5551948,19.0136492 Z M47.5714286,13.1796573 L43.0714286,13.1796573 L43.0714286,16.3932191 L47.5714286,16.3932191 L47.5714286,13.1796573 Z" id="text" fill="#5D00F3" fill-rule="nonzero"></path>
                </g>
            </g>
        </g>
    </g>
</svg>