<?xml version="1.0" encoding="UTF-8"?>
<svg width="180px" height="38px" viewBox="0 0 180 38" version="1.1" xmlns="http://www.w3.org/2000/svg" xmlns:xlink="http://www.w3.org/1999/xlink">
    <!-- Generator: Sketch 60 (88103) - https://sketch.com -->
    <title>mob_logo_main_2a</title>
    <desc>Created with Sketch.</desc>
    <g id="0000_general" stroke="none" stroke-width="1" fill="none" fill-rule="evenodd">
        <g id="0001_homepage_2020_1e" transform="translate(-64.000000, -16.000000)">
            <g id="navbar">
                <g id="mob_logo_main_2a" transform="translate(64.000000, 16.000000)">
                    <rect id="ctn" fill="#5D00F3" x="0" y="0" width="180" height="38"></rect>
                    <polygon id="underscore" fill="#FFFFFF" fill-rule="nonzero" points="169.303571 26.8035714 169.303571 28.0216071 166.758929 29.5178571 158.446429 29.5178571 158.446429 26.8035714"></polygon>
                    <path d="M148.452666,11.1964286 L148.452666,20.1331213 L148.494988,20.1331213 L151.774985,15.6489726 L155.097305,15.6489726 L151.309437,20.6239237 L155.732143,26.8035714 L152.367501,26.8035714 L149.616535,22.8548434 L148.452666,24.3941781 L148.452666,26.8035714 L145.553571,26.8035714 L145.553571,12.1806579 L147.109547,11.1964286 L148.452666,11.1964286 Z M115.46365,15.6071429 L115.990696,16.52525 L117.549873,15.6071429 L119.767857,15.6071429 L119.767857,18.2271071 L115.990696,18.2271071 L115.990696,26.8035714 L112.982143,26.8035714 L112.982143,15.6071429 L115.46365,15.6071429 Z M86.96365,15.6071429 L87.4906958,16.52525 L89.0498729,15.6071429 L91.2678571,15.6071429 L91.2678571,18.2271071 L87.4906958,18.2271071 L87.4906958,26.8035714 L84.4821429,26.8035714 L84.4821429,15.6071429 L86.96365,15.6071429 Z M44.8245099,11.1964286 L44.8245099,20.1331213 L44.869654,20.1331213 L48.3683175,15.6489726 L51.912125,15.6489726 L47.871733,20.6239237 L52.5892857,26.8035714 L49.0003341,26.8035714 L46.0659712,22.8548434 L44.8245099,24.3941781 L44.8245099,26.8035714 L41.7321429,26.8035714 L41.7321429,12.1806579 L43.3918504,11.1964286 L44.8245099,11.1964286 Z M15.293163,11.1964286 L19.1696429,22.6788265 L19.2136938,22.6788265 L23.0681482,11.1964286 L27.1428571,11.1964286 L27.1428571,26.8035714 L24.1694209,26.8035714 L24.1694209,16.5028571 L24.12537,16.5028571 L20.6453483,26.8035714 L17.7159629,26.8035714 L14.2139157,16.3690816 L14.1698648,16.3690816 L14.1698648,26.8035714 L11.1964286,26.8035714 L11.1964286,11.1964286 L15.293163,11.1964286 Z M140.278701,15.46474 L142.839286,16.9688636 L142.839286,26.8017914 L141.382401,26.8017914 L139.815146,25.8813575 L138.247892,26.8017914 L136.239157,26.8017914 L133.678571,25.2976677 L133.678571,21.4138858 L136.239157,19.9097621 L139.815146,19.9097621 L139.815146,18.0913439 L134.782272,18.0913439 L134.782272,15.46474 L140.278701,15.46474 Z M128.403701,15.46474 L130.964286,16.9688636 L130.964286,22.3343196 L124.827711,22.3343196 L124.827711,24.1751874 L130.964286,24.1751874 L130.964286,26.8017914 L124.364157,26.8017914 L121.803571,25.2976677 L121.803571,16.9688636 L124.364157,15.46474 L128.403701,15.46474 Z M107.723557,11.1981861 L110.267857,12.6916762 L110.267857,17.5956735 L108.359632,18.7102183 L108.359632,18.7548001 L110.267857,19.869345 L110.267857,25.3083238 L107.723557,26.8018139 L99.4107143,26.8018139 L99.4107143,11.1981861 L107.723557,11.1981861 Z M79.2030096,15.4549752 L81.7678571,16.945642 L81.7678571,25.3111754 L79.2030096,26.8018423 L74.4934189,26.8018423 L71.9285714,25.3111754 L71.9285714,16.945642 L74.4934189,15.4549752 L79.2030096,15.4549752 Z M61.2251291,15.46474 L63.7857143,16.9688636 L63.7857143,22.3343196 L57.6491394,22.3343196 L57.6491394,24.1751874 L63.7857143,24.1751874 L63.7857143,26.8017914 L57.1855852,26.8017914 L54.625,25.2976677 L54.625,16.9688636 L57.1855852,15.46474 L61.2251291,15.46474 Z M36.4572719,15.46474 L39.0178571,16.9688636 L39.0178571,26.8017914 L37.5609725,26.8017914 L35.9937177,25.8813575 L34.426463,26.8017914 L32.4177281,26.8017914 L29.8571429,25.2976677 L29.8571429,21.4138858 L32.4177281,19.9097621 L35.9937177,19.9097621 L35.9937177,18.0913439 L30.9608434,18.0913439 L30.9608434,15.46474 L36.4572719,15.46474 Z M139.785714,22.3356802 L136.732143,22.3356802 L136.732143,24.3969623 L139.785714,24.3969623 L139.785714,22.3356802 Z M35.9642857,22.3356802 L32.9107143,22.3356802 L32.9107143,24.3969623 L35.9642857,24.3969623 L35.9642857,22.3356802 Z M78.7142857,18.1248263 L74.9821429,18.1248263 L74.9821429,24.1319912 L78.7142857,24.1319912 L78.7142857,18.1248263 Z M107.19715,20.069963 L102.481421,20.069963 L102.481421,24.1269063 L107.19715,24.1269063 L107.19715,20.069963 Z M127.910714,18.2131161 L124.857143,18.2131161 L124.857143,20.2743981 L127.910714,20.2743981 L127.910714,18.2131161 Z M60.7321429,18.2131161 L57.6785714,18.2131161 L57.6785714,20.2743981 L60.7321429,20.2743981 L60.7321429,18.2131161 Z M107.214286,13.9118605 L102.464286,13.9118605 L102.464286,17.3039535 L107.214286,17.3039535 L107.214286,13.9118605 Z" id="text" fill="#FFFFFF" fill-rule="nonzero"></path>
                </g>
            </g>
        </g>
    </g>
</svg>