<?xml version="1.0" encoding="UTF-8"?>
<svg width="167px" height="167px" viewBox="0 0 167 167" version="1.1" xmlns="http://www.w3.org/2000/svg" xmlns:xlink="http://www.w3.org/1999/xlink">
    <!-- Generator: Sketch 60 (88103) - https://sketch.com -->
    <title>mob_logo</title>
    <desc>Created with Sketch.</desc>
    <defs>
        <circle id="path-1" cx="83.5" cy="84" r="83.5"></circle>
    </defs>
    <g id="0000_general" stroke="none" stroke-width="1" fill="none" fill-rule="evenodd">
        <g id="0001_homepage_2020_1e" transform="translate(-64.000000, -13998.000000)">
            <g id="footer" transform="translate(0.000000, 13997.000000)">
                <g id="mob_logo" transform="translate(64.000000, 0.500000)">
                    <mask id="mask-2" fill="white">
                        <use xlink:href="#path-1"></use>
                    </mask>
                    <use id="Mask" fill="#5D00F3" xlink:href="#path-1"></use>
                    <g id="mob_logo_main_abbreviated_2a" mask="url(#mask-2)">
                        <g transform="translate(0.000000, 44.000000)">
                            <rect id="ctn" fill="#5D00F3" fill-rule="evenodd" x="0" y="0" width="167" height="81.3217391"></rect>
                            <polygon id="underscore" fill="#FFFFFF" fill-rule="nonzero" points="143.03913 57.3608696 143.03913 59.9675217 137.593478 63.1695652 119.804348 63.1695652 119.804348 57.3608696"></polygon>
                            <path d="M32.7280687,23.9608696 L41.023913,48.5337267 L41.118184,48.5337267 L49.3668929,23.9608696 L58.0869565,23.9608696 L58.0869565,57.3608696 L51.7236668,57.3608696 L51.7236668,35.3168696 L51.6293959,35.3168696 L44.1819902,57.3608696 L37.9129714,57.3608696 L30.4184302,35.0305839 L30.3241593,35.0305839 L30.3241593,57.3608696 L23.9608696,57.3608696 L23.9608696,23.9608696 L32.7280687,23.9608696 Z M108.550733,23.9646308 L113.995652,27.160768 L113.995652,37.6555466 L109.911963,40.0407236 L109.911963,40.1361306 L113.995652,42.5213076 L113.995652,54.1609712 L108.550733,57.3571083 L90.7608696,57.3571083 L90.7608696,23.9646308 L108.550733,23.9646308 Z M79.4632829,33.0743542 L84.9521739,36.2644495 L84.9521739,54.1670738 L79.4632829,57.357169 L69.3845432,57.357169 L63.8956522,54.1670738 L63.8956522,36.2644495 L69.3845432,33.0743542 L79.4632829,33.0743542 Z M78.4173913,38.7879577 L70.4304348,38.7879577 L70.4304348,51.6435656 L78.4173913,51.6435656 L78.4173913,38.7879577 Z M107.424199,42.9506394 L97.3323232,42.9506394 L97.3323232,51.6326836 L107.424199,51.6326836 L107.424199,42.9506394 Z M107.46087,29.7720182 L97.2956522,29.7720182 L97.2956522,37.0312524 L107.46087,37.0312524 L107.46087,29.7720182 Z" id="text" fill="#FFFFFF" fill-rule="nonzero"></path>
                        </g>
                    </g>
                </g>
            </g>
        </g>
    </g>
</svg>