<svg width="218px" height="26px" viewBox="0 0 218 26" version="1.1" xmlns="http://www.w3.org/2000/svg" xmlns:xlink="http://www.w3.org/1999/xlink">
    <!-- Generator: Sketch 45.2 (43514) - http://www.bohemiancoding.com/sketch -->
    <desc>Created with Sketch.</desc>
    <defs></defs>
    <g id="0000_general" stroke="none" stroke-width="1" fill="none" fill-rule="evenodd">
        <g id="0001_homepage_active_6a" transform="translate(-113.000000, -17.000000)" fill="#FEFEFE">
            <g id="content_header">
                <g id="navbar_make_break-copy">
                    <g id="navbar">
                        <g id="logo_mob" transform="translate(113.000000, 17.000000)">
                            <path d="M11.7029561,18.5820104 C13.4257604,12.9524687 15.0615271,7.65262153 16.6605846,2.34176042 C16.9532656,1.36955903 17.4422098,0.905350694 18.5098415,1.00032292 C19.5082942,1.08915625 20.5262288,1.08319792 21.5259441,1.00176736 C22.8252855,0.895961806 23.2877125,1.37389236 23.2751754,2.70801736 C23.2207882,8.52235764 23.2560542,14.3375104 23.2577679,20.1524826 C23.2582189,21.526059 23.2207882,22.9007187 23.2649835,24.2728507 C23.2978142,25.2919965 22.8618142,25.6036354 21.8721105,25.6178993 C18.6699367,25.6638507 18.6723719,25.6970729 18.6741758,22.4634132 C18.6762503,18.5366007 18.674717,14.6097882 18.5251746,10.6430729 C17.5727211,13.7030382 16.6201775,16.7630937 15.6679044,19.8231493 C15.153796,21.4752326 14.6587187,23.1336354 14.109705,24.7739826 C14.0094088,25.0737049 13.7041005,25.509566 13.4697753,25.5250937 C12.2865143,25.6033646 11.092971,25.6040868 9.90934919,25.530691 C9.67231816,25.5159757 9.35140629,25.0966354 9.25733347,24.8034132 C8.18555275,21.4660243 7.14624204,18.1181632 6.10738229,14.7703021 C5.68978196,13.424441 5.29454986,12.0716285 4.68772156,10.7294687 L4.68772156,25.5699618 C3.27527638,25.5699618 2.01210302,25.6462465 0.771658668,25.512184 C0.488267687,25.4815799 0.0878944973,24.7312812 0.0744555234,24.3017396 C0.00293131982,22.0145521 0.0349503517,19.7241146 0.035401324,17.4347604 C0.0363032685,12.5356562 0.0753574679,7.63610069 0.0183545718,2.73762847 C0.00320190319,1.43167014 0.418276789,0.846850694 1.74016674,1.02099653 C1.87482706,1.03878125 2.01426769,1.01928125 2.15154365,1.01819792 C6.44326645,0.983440972 6.36678155,1.00546875 7.5535602,5.13450347 C8.82025114,9.54177431 10.2509156,13.9017396 11.7029561,18.5820104" id="Fill-5"></path>
                            <path d="M127.951208,10.5031875 L134.272126,10.5031875 L134.272126,5.58945833 L127.951208,5.58945833 L127.951208,10.5031875 Z M134.33905,20.8609375 C134.33905,19.2017222 134.290074,17.7431944 134.355736,16.2899028 C134.402006,15.2648889 133.979806,14.885 133.002458,14.9076597 C131.614366,14.9399792 130.219148,14.8543958 128.840796,14.976 C128.485971,15.0073264 127.925052,15.6085764 127.900699,15.9771806 C127.796164,17.5633611 127.856053,19.1604653 127.856053,20.8609375 L134.33905,20.8609375 Z M136.3475,13.1008403 C138.857071,13.624 139.206123,15.2403333 138.942846,17.2676111 C138.820091,18.2130903 138.96323,19.1900764 138.911187,20.1487361 C138.853283,21.2175347 139.11169,22.7635417 138.525426,23.2523056 C137.096204,24.4437917 135.689532,25.8584444 133.390475,25.6628125 C130.483868,25.4154514 127.539831,25.5698264 124.613021,25.6185764 C123.538354,25.6365417 123.039398,25.3515347 123.045802,24.1655556 C123.084676,16.9315972 123.081158,9.69736806 123.055543,2.46331944 C123.051755,1.408875 123.410188,0.997027778 124.489906,1.0115625 C127.782725,1.05579861 131.104857,0.770611111 134.35772,1.13334722 C135.896438,1.30496528 137.303471,2.66021528 138.770123,3.479125 C138.753347,6.06413889 138.866722,8.66143056 138.62491,11.2251389 C138.567366,11.8355069 137.322592,12.3336597 136.3475,13.1008403 L136.3475,13.1008403 Z" id="Fill-7"></path>
                            <path d="M58.9455675,7.93631042 C57.5322204,9.93352569 56.424452,11.6330049 55.1799489,13.2255049 C53.3873341,15.5192826 53.2929005,15.5183799 54.7808385,17.9229285 C55.9295551,19.7792201 57.2389982,21.5353938 58.4578861,23.3490743 C58.8765687,23.9721715 59.2372564,24.6344493 59.8043089,25.5780326 C57.9424247,25.5780326 56.4079465,25.6412271 54.8856444,25.5323521 C54.5186432,25.505991 54.1244032,24.9562896 53.8591413,24.5676438 C52.7852861,22.9944632 51.7567988,21.3902271 50.6493912,19.7025743 C49.4348327,20.6663799 48.991076,21.7990049 49.0483494,23.279741 C49.1381831,25.6006924 49.0705373,25.6185674 46.7769825,25.5992479 C44.1461906,25.5770396 44.3206266,25.9312896 44.3162973,23.1863035 C44.3052034,16.093359 44.341191,9.00014375 44.2894194,1.90756042 C44.2797686,0.589414583 44.5660458,0.0208451389 46.0250313,0.0820534722 C49.4268054,0.224602083 49.0469965,-0.385675694 49.0683726,3.19907431 C49.0896585,6.76531736 49.0729725,10.331741 49.3149643,14.0687896 C49.8016535,13.4110257 50.3053896,12.7651785 50.7714243,12.0930604 C51.6273697,10.8588729 52.4546333,9.60482431 53.3109394,8.37090764 C53.4347764,8.19242847 53.6505216,7.95887986 53.8280242,7.95517847 C55.3895609,7.92258819 56.9521798,7.93631042 58.9455675,7.93631042" id="Fill-9"></path>
                            <path d="M194.640872,0.108351389 L194.640872,14.1018583 C194.74685,14.1466361 194.852829,14.1913236 194.958807,14.2361014 C196.201055,12.4915736 197.504455,10.7862264 198.657501,8.9844625 C199.162771,8.19489306 199.678593,7.7852125 200.618419,7.82303889 C201.827566,7.87178889 203.04014,7.83495556 204.251271,7.83495556 C204.329199,7.97389306 204.407127,8.11292083 204.485145,8.25194861 C202.684503,10.7725944 200.883951,13.29315 199.063918,15.8409694 C201.216859,19.0073722 203.326778,22.1102194 205.670391,25.557025 C203.691795,25.557025 202.117631,25.6324972 200.560244,25.5040319 C200.16907,25.4718028 199.774289,24.8245111 199.479985,24.3924417 C198.431294,22.8525736 197.425265,21.2836361 196.403812,19.7269764 C194.243385,21.1663653 194.712757,23.3606569 194.664593,25.5774278 C193.30419,25.5774278 192.040656,25.6510944 190.798047,25.5222681 C190.510236,25.4924764 190.089389,24.777025 190.078114,24.367525 C190.009296,21.8514833 190.039331,19.3326431 190.038699,16.8147958 C190.037527,11.7789208 190.075769,6.74268472 190.011371,1.70762222 C189.994955,0.422969444 190.430594,-0.0131625 191.668153,0.0924625 C192.607889,0.172629167 193.559981,0.108351389 194.640872,0.108351389" id="Fill-10"></path>
                            <path d="M160.656259,14.6421528 L164.516401,14.6421528 L164.516401,12.4790972 L160.656259,12.4790972 L160.656259,14.6421528 Z M160.730669,18.6860556 C160.412103,20.9965347 160.412103,20.9969861 162.536272,20.9980694 C164.363792,20.9989722 166.192305,21.0353542 168.018472,20.9841667 C168.969031,20.9575347 169.292829,21.3505139 169.351816,22.2604236 C169.568914,25.6078333 169.5902,25.6061181 166.265723,25.6042222 C164.392474,25.6031389 162.518594,25.5722639 160.646247,25.6115347 C158.635001,25.6536042 157.606333,23.9479861 156.099184,23.099375 C155.933317,23.0060278 155.961818,22.5029097 155.961096,22.1897361 C155.952167,18.5313194 155.922132,14.8721806 155.991763,11.2151181 C156.001594,10.6956597 156.423433,10.1080417 156.80207,9.68391667 C159.199979,6.99833333 162.42858,7.64445139 165.382268,7.91040972 C166.655363,8.0250625 167.945955,9.22810417 168.97327,10.2056319 C169.426227,10.6366181 169.30735,11.7352986 169.334499,12.5347986 C169.384286,13.9964861 169.275422,15.4660278 169.371839,16.9230208 C169.46005,18.2560625 169.093319,18.8015208 167.639475,18.7198194 C165.366033,18.5921667 163.080235,18.6860556 160.730669,18.6860556 L160.730669,18.6860556 Z" id="Fill-11"></path>
                            <path d="M66.0364391,14.6420535 L70.0234851,14.6420535 L70.0234851,12.3856507 C69.2213858,12.3856507 68.4638425,12.384116 67.7062993,12.3859215 C65.8458583,12.3904354 65.7870515,12.4630187 66.0364391,14.6420535 M74.5906617,18.6711507 L66.2203456,18.6711507 C65.5517341,20.6237687 65.7953494,20.9994146 67.6395554,21.0001368 C69.5604267,21.000859 71.4818392,21.031734 73.4017184,20.9896646 C74.2656009,20.9707062 74.5944499,21.2330535 74.6126692,22.1538868 C74.6809464,25.6094493 74.7134164,25.6080951 71.3055091,25.604484 C69.6590995,25.6027687 68.0088115,25.532984 66.3672724,25.6224493 C64.2284011,25.7390882 63.0628181,24.0846576 61.5444847,23.087359 C61.3185475,22.9389424 61.3484019,22.3223451 61.3466882,21.9220535 C61.3315355,18.443109 61.357241,14.9638937 61.3209828,11.4853104 C61.311332,10.5555396 61.812723,10.1291576 62.4249629,9.50055347 C64.8477664,7.01249792 67.8786609,7.69590069 70.6840693,7.89956736 C71.9614933,7.99228264 73.2643523,9.16869236 74.3239567,10.1138104 C74.7393924,10.4843104 74.5706386,11.5664701 74.5810109,12.3257965 C74.6091516,14.3781715 74.5906617,16.4312687 74.5906617,18.6711507" id="Fill-12"></path>
                            <path d="M89.9640993,12.4783028 C89.9640993,15.2053236 89.9412801,17.838275 89.9969301,20.4696014 C90.0029731,20.7550597 90.4394241,21.2437333 90.7165014,21.2745181 C91.9255581,21.4087611 93.1503086,21.4481222 94.3671221,21.4211292 C94.5876475,21.4162542 94.9800836,20.9426569 94.9845031,20.6802194 C95.0302317,17.9599694 95.0126438,15.2386361 95.0126438,12.4783028 L89.9640993,12.4783028 Z M99.6342979,16.7423931 C99.6341175,18.5254694 99.603722,20.3093583 99.6478271,22.0913514 C99.6679404,22.9030389 99.2824493,23.3156986 98.7240554,23.8821014 C95.9559876,26.6898306 92.4954969,25.8597264 89.2805155,25.6105597 C87.9783782,25.5097194 86.7602118,24.1342472 85.5471866,23.2774208 C85.3698643,23.1521153 85.3940364,22.684025 85.3931345,22.3744625 C85.3826719,18.6710875 85.3998089,14.9676222 85.3722094,11.2644278 C85.3665271,10.5007681 85.7414655,10.1396569 86.2634208,9.61117083 C89.0383434,6.80190694 92.5144377,7.79324722 95.7165213,7.91232361 C96.9632793,7.95872639 98.272542,9.20726806 99.3256525,10.1602403 C99.7455978,10.5403097 99.6031808,11.6004417 99.6231138,12.3534486 C99.6618974,13.8154972 99.6344783,15.2792611 99.6342979,16.7423931 L99.6342979,16.7423931 Z" id="Fill-13"></path>
                            <path d="M181.340157,21.5363417 C181.391207,20.9477306 181.533624,20.3954111 181.452359,19.8782097 C181.393822,19.5052722 181.063621,18.9036611 180.809453,18.8794667 C179.668222,18.7707722 178.510757,18.8321611 177.363934,18.8321611 L177.363934,21.5363417 L181.340157,21.5363417 Z M181.14678,12.4142236 L174.308777,12.4142236 C174.308777,11.0898486 174.241582,9.86784861 174.355949,8.66318194 C174.384721,8.36057083 174.988573,7.89004306 175.341414,7.877675 C177.441862,7.80391806 179.603012,7.54825139 181.629952,7.94141111 C183.086412,8.22389028 184.475587,9.29025139 185.667326,10.2811403 C186.120192,10.6575986 186.022151,11.7999736 186.028735,12.5945083 C186.060484,16.3923139 186.044249,20.1905708 186.04037,23.9887375 C186.038657,25.7449111 185.329818,26.2637375 183.656982,25.6309806 C182.945708,25.3619528 182.313175,24.8842028 181.741432,24.8044875 C180.280733,25.1302097 178.732004,25.9183347 177.382244,25.6609528 C175.805645,25.3604181 174.390223,24.1684806 172.941429,23.3020847 C172.771142,23.2002514 172.797208,22.7124806 172.791707,22.4025569 C172.77475,21.4419111 172.905532,20.4624875 172.761942,19.5235986 C172.479453,17.6763347 173.335399,16.7463833 174.825141,15.7484528 C176.431594,14.6722514 178.042106,14.73355 179.743174,14.7208208 C181.635544,14.7067375 181.811333,14.4472792 181.14678,12.4142236 L181.14678,12.4142236 Z" id="Fill-14"></path>
                            <path d="M35.8897269,21.5512104 C35.6741622,20.5393771 35.6750641,19.0990854 35.2834398,18.9828076 C34.2113885,18.6644882 32.9084394,18.6970785 31.8394547,19.0382382 C31.4856218,19.1511757 31.5658949,20.6269465 31.4377286,21.5512104 L35.8897269,21.5512104 Z M35.647194,14.7233215 L35.647194,12.4915646 L28.5907406,12.4915646 C28.5907406,11.0449535 28.54871,9.73755069 28.63223,8.43818264 C28.64612,8.22187708 29.2029806,7.87692569 29.5154141,7.86970347 C31.6651088,7.82014097 33.8792023,7.53305764 35.9464592,7.94959931 C37.4393579,8.25040486 38.767832,9.47475208 40.096216,10.393509 C40.3455134,10.5660299 40.3006868,11.2408562 40.3020397,11.6841201 C40.3153885,15.8526965 40.3136748,20.0213632 40.3065494,24.1899396 C40.3039338,25.7288146 40.054005,26.0280854 38.5538908,25.7258354 C37.6110881,25.535891 36.743688,24.9715646 35.7169144,24.5199951 C32.5454067,26.5247937 30.0652396,26.2593771 27.2873405,23.4628424 C27.1666603,21.5769396 26.9559661,19.6894118 26.9875341,17.8060368 C26.9955614,17.3234118 27.7196425,16.7956479 28.1992065,16.3883146 C29.9598924,14.8929535 32.0193926,14.4219743 34.2861597,14.716009 C34.6858113,14.7678285 35.0978196,14.7233215 35.647194,14.7233215 L35.647194,14.7233215 Z" id="Fill-15"></path>
                            <path d="M147.888188,9.40145556 C149.251206,7.97344167 150.720023,7.71425417 152.334955,7.82484444 C153.142466,7.88018472 153.424774,8.20428194 153.462746,9.00838611 C153.623833,12.4218792 153.6453,12.4207958 150.263368,12.4184486 C149.581408,12.4179972 148.899538,12.4184486 148.050808,12.4184486 C148.020142,12.9774486 147.971888,13.4577264 147.970806,13.9380944 C147.962869,17.3687403 147.937975,20.7996569 147.980186,24.2297611 C147.992001,25.1809278 147.809267,25.6458583 146.714848,25.6185944 C142.65249,25.5173931 143.412197,26.1305597 143.366739,22.3271569 C143.315329,18.0281292 143.406064,13.727025 143.329128,9.42862917 C143.305768,8.12357361 143.764587,7.72743472 144.984106,7.81536528 C146.144999,7.89914306 147.464183,7.52476111 147.888188,9.40145556" id="Fill-16"></path>
                            <path d="M108.295653,9.32793333 C109.534384,8.06115556 110.92861,7.66546806 112.501692,7.83157917 C112.682982,7.85071806 112.922268,7.77966944 113.040062,7.87175278 C114.367093,8.90886389 113.302528,10.4036833 113.687929,11.6417528 C113.73023,11.7774403 113.026353,12.33635 112.633466,12.3796833 C111.640515,12.4890097 110.623753,12.4704125 109.623586,12.4010792 C108.654176,12.3339125 108.355092,12.7056764 108.367358,13.6569333 C108.411102,17.0399125 108.334257,20.4248778 108.41002,23.8067736 C108.439965,25.1421625 108.089649,25.6760653 106.653754,25.6335444 C103.781782,25.5484125 103.778445,25.6245167 103.778084,22.6978917 C103.777452,18.3541764 103.777994,14.0103708 103.779166,9.66665556 C103.779707,7.83844028 103.782233,7.8741 105.54806,7.81758611 C106.739619,7.77939861 107.853881,7.78030139 108.295653,9.32793333" id="Fill-17"></path>
                            <path d="M209.04829,19.4052896 L217.924327,19.4052896 C217.924327,21.3120465 217.952558,23.1678868 217.88383,25.0200257 C217.876434,25.2213451 217.312448,25.5605188 217.001367,25.5666576 C214.674079,25.6126993 212.344357,25.6238938 210.018242,25.5532063 C209.687138,25.5431854 209.107007,25.0464771 209.091854,24.7518104 C209.003103,23.0292201 209.04829,21.2996785 209.04829,19.4052896" id="Fill-18"></path>
                        </g>
                    </g>
                </g>
            </g>
        </g>
    </g>
</svg>
