<?xml version="1.0" encoding="UTF-8" standalone="no"?>
<!-- Created with Inkscape (http://www.inkscape.org/) -->

<svg
   xmlns:dc="http://purl.org/dc/elements/1.1/"
   xmlns:cc="http://creativecommons.org/ns#"
   xmlns:rdf="http://www.w3.org/1999/02/22-rdf-syntax-ns#"
   xmlns:svg="http://www.w3.org/2000/svg"
   xmlns="http://www.w3.org/2000/svg"
   xmlns:sodipodi="http://sodipodi.sourceforge.net/DTD/sodipodi-0.dtd"
   xmlns:inkscape="http://www.inkscape.org/namespaces/inkscape"
   version="1.1"
   id="svg2"
   xml:space="preserve"
   width="521.57837"
   height="112.63082"
   viewBox="0 0 521.57837 112.63082"
   sodipodi:docname="alumniei_logos.svg"
   inkscape:version="0.92.1 r15371"><metadata
     id="metadata8"><rdf:RDF><cc:Work
         rdf:about=""><dc:format>image/svg+xml</dc:format><dc:type
           rdf:resource="http://purl.org/dc/dcmitype/StillImage" /><dc:title></dc:title></cc:Work></rdf:RDF></metadata><defs
     id="defs6"><clipPath
       clipPathUnits="userSpaceOnUse"
       id="clipPath26"><path
         d="M 0,107 H 428 V 0 H 0 Z"
         id="path24"
         inkscape:connector-curvature="0" /></clipPath><clipPath
       clipPathUnits="userSpaceOnUse"
       id="clipPath38"><path
         d="m 25.965,57.032 c 0,-11.046 8.953,-20 19.998,-20 v 0 c 11.046,0 19.998,8.954 19.998,20 v 0 c 0,11.045 -8.952,19.998 -19.998,19.998 v 0 c -11.045,0 -19.998,-8.953 -19.998,-19.998"
         id="path36"
         inkscape:connector-curvature="0" /></clipPath><clipPath
       clipPathUnits="userSpaceOnUse"
       id="clipPath54"><path
         d="M 0,107 H 428 V 0 H 0 Z"
         id="path52"
         inkscape:connector-curvature="0" /></clipPath><clipPath
       clipPathUnits="userSpaceOnUse"
       id="clipPath66"><path
         d="m 79.637,57.032 c 0,-11.046 8.954,-20 19.998,-20 v 0 c 11.045,0 19.998,8.954 19.998,20 v 0 c 0,11.045 -8.953,19.998 -19.998,19.998 v 0 c -11.044,0 -19.998,-8.953 -19.998,-19.998"
         id="path64"
         inkscape:connector-curvature="0" /></clipPath><clipPath
       clipPathUnits="userSpaceOnUse"
       id="clipPath82"><path
         d="M 0,107 H 428 V 0 H 0 Z"
         id="path80"
         inkscape:connector-curvature="0" /></clipPath><clipPath
       clipPathUnits="userSpaceOnUse"
       id="clipPath94"><path
         d="m 133.308,57.032 c 0,-11.046 8.954,-20 19.998,-20 v 0 c 11.045,0 19.999,8.954 19.999,20 v 0 c 0,11.045 -8.954,19.998 -19.999,19.998 v 0 c -11.044,0 -19.998,-8.953 -19.998,-19.998"
         id="path92"
         inkscape:connector-curvature="0" /></clipPath><clipPath
       clipPathUnits="userSpaceOnUse"
       id="clipPath110"><path
         d="M 0,107 H 428 V 0 H 0 Z"
         id="path108"
         inkscape:connector-curvature="0" /></clipPath><clipPath
       clipPathUnits="userSpaceOnUse"
       id="clipPath122"><path
         d="m 186.98,57.032 c 0,-11.046 8.953,-20 19.998,-20 v 0 c 11.045,0 19.998,8.954 19.998,20 v 0 c 0,11.045 -8.953,19.998 -19.998,19.998 v 0 c -11.045,0 -19.998,-8.953 -19.998,-19.998"
         id="path120"
         inkscape:connector-curvature="0" /></clipPath><clipPath
       clipPathUnits="userSpaceOnUse"
       id="clipPath138"><path
         d="M 0,107 H 428 V 0 H 0 Z"
         id="path136"
         inkscape:connector-curvature="0" /></clipPath><clipPath
       clipPathUnits="userSpaceOnUse"
       id="clipPath150"><path
         d="m 240.652,57.032 c 0,-11.046 8.953,-20 19.999,-20 v 0 c 11.045,0 19.998,8.954 19.998,20 v 0 c 0,11.045 -8.953,19.998 -19.998,19.998 v 0 c -11.046,0 -19.999,-8.953 -19.999,-19.998"
         id="path148"
         inkscape:connector-curvature="0" /></clipPath><clipPath
       clipPathUnits="userSpaceOnUse"
       id="clipPath166"><path
         d="M 0,107 H 428 V 0 H 0 Z"
         id="path164"
         inkscape:connector-curvature="0" /></clipPath><clipPath
       clipPathUnits="userSpaceOnUse"
       id="clipPath178"><path
         d="m 294.324,57.032 c 0,-11.046 8.953,-20 19.998,-20 v 0 c 11.045,0 19.998,8.954 19.998,20 v 0 c 0,11.045 -8.953,19.998 -19.998,19.998 v 0 c -11.045,0 -19.998,-8.953 -19.998,-19.998"
         id="path176"
         inkscape:connector-curvature="0" /></clipPath><clipPath
       clipPathUnits="userSpaceOnUse"
       id="clipPath194"><path
         d="M 0,107 H 428 V 0 H 0 Z"
         id="path192"
         inkscape:connector-curvature="0" /></clipPath></defs><sodipodi:namedview
     pagecolor="#ffffff"
     bordercolor="#666666"
     borderopacity="1"
     objecttolerance="10"
     gridtolerance="10"
     guidetolerance="10"
     inkscape:pageopacity="0"
     inkscape:pageshadow="2"
     inkscape:window-width="1075"
     inkscape:window-height="626"
     id="namedview4"
     showgrid="false"
     fit-margin-top="0"
     fit-margin-left="0"
     fit-margin-right="0"
     fit-margin-bottom="0"
     inkscape:zoom="0.58177568"
     inkscape:cx="250.71334"
     inkscape:cy="49.649089"
     inkscape:window-x="157"
     inkscape:window-y="10"
     inkscape:window-maximized="0"
     inkscape:current-layer="g10" /><g
     id="g10"
     inkscape:groupmode="layer"
     inkscape:label="alumniei_logos"
     transform="matrix(1.3333333,0,0,-1.3333333,-34.619999,134.31506)"><text
       transform="matrix(1,0,0,-1,25.9653,18.9292)"
       style="font-variant:normal;font-weight:normal;font-stretch:normal;font-size:12px;font-family:'Trebuchet MS';-inkscape-font-specification:TrebuchetMS;writing-mode:lr-tb;fill:#231f20;fill-opacity:1;fill-rule:nonzero;stroke:none"
       id="text14"><tspan
         x="0 7.0560002 12.804 18.552 26.615999 33.768002 37.080002 44.136002 51.287998 58.344002 66.407997 69.996002 77.328003 83.736 86.664001 93.720001 101.352 108.3 111.612 119.7 127.764 133.51199 136.44 143.496 149.54401 157.29601 164.92799 172.992 178.74001 182.328 189.66 196.06799 199.65601 206.064 213.696 221.784 228.192 235.82401 243.64799 250.70399 257.664 260.97601 267.37201 270.95999 274.272 281.90399 288.17999 296.24399 303.20401 311.68799 318.74399 325.69199 329.004 336.15601 342.552 346.14001 353.47198 359.86801 363.45599 369.73199 376.14001 383.892"
         y="0"
         sodipodi:role="line"
         id="tspan12">ASSOCIAÇÃO DE ANTIGOS ALUNOS DE ENGENHARIA INFORMÁTICA DA FEUP</tspan></text>
<g
       id="g16"
       transform="translate(348.2324,61.2256)"><path
         d="M 0,0 V -6 L -292.152,-6.166 V 0 Z"
         style="fill:#231f20;fill-opacity:1;fill-rule:evenodd;stroke:none"
         id="path18"
         inkscape:connector-curvature="0" /></g><g
       id="g20"><g
         id="g22"
         clip-path="url(#clipPath26)"><g
           id="g28"
           transform="translate(25.9653,57.0317)"><path
             d="m 0,0 c 0,11.045 8.953,19.998 19.998,19.998 11.045,0 19.998,-8.953 19.998,-19.998 0,-11.045 -8.953,-19.999 -19.998,-19.999 C 8.953,-19.999 0,-11.045 0,0"
             style="fill:#231f20;fill-opacity:1;fill-rule:evenodd;stroke:none"
             id="path30"
             inkscape:connector-curvature="0" /></g></g></g><g
       id="g32"><g
         id="g34"
         clip-path="url(#clipPath38)"><g
           id="g40"
           transform="translate(28.5151,53.0054)"><path
             d="m 0,0 c 1.562,1.02 4.68,2.403 9.351,4.154 v 2.165 c 0,1.733 -0.17,2.939 -0.51,3.619 -0.577,1.138 -1.776,1.706 -3.592,1.707 -0.867,0 -1.691,-0.221 -2.472,-0.663 C 1.995,10.523 1.604,9.895 1.604,9.097 1.604,8.893 1.647,8.544 1.732,8.052 1.816,7.576 1.858,7.271 1.859,7.135 1.859,6.184 1.545,5.521 0.917,5.147 0.561,4.926 0.135,4.816 -0.357,4.816 c -0.764,0 -1.351,0.247 -1.758,0.739 -0.407,0.509 -0.612,1.07 -0.612,1.681 0,1.19 0.73,2.43 2.192,3.721 1.477,1.308 3.635,1.961 6.472,1.962 3.294,0 5.528,-1.07 6.701,-3.211 0.629,-1.172 0.942,-2.879 0.943,-5.121 V -5.631 c 0,-0.986 0.067,-1.665 0.203,-2.039 0.221,-0.662 0.68,-0.993 1.376,-0.993 0.391,0 0.713,0.059 0.969,0.179 0.255,0.118 0.696,0.406 1.325,0.866 v -1.325 c -0.544,-0.662 -1.13,-1.206 -1.759,-1.631 -0.951,-0.646 -1.919,-0.967 -2.904,-0.969 -1.155,0 -1.996,0.374 -2.522,1.122 -0.51,0.747 -0.79,1.639 -0.841,2.675 C 8.136,-8.867 7.032,-9.699 6.115,-10.242 4.568,-11.16 3.1,-11.619 1.707,-11.619 c -1.461,0 -2.727,0.51 -3.797,1.529 -1.07,1.036 -1.605,2.344 -1.605,3.924 0,2.463 1.231,4.518 3.695,6.166 M 9.351,2.88 C 7.397,2.234 5.784,1.521 4.51,0.739 2.063,-0.773 0.841,-2.488 0.841,-4.408 c 0,-1.546 0.51,-2.684 1.528,-3.414 0.663,-0.477 1.402,-0.713 2.217,-0.713 1.121,0 2.191,0.313 3.211,0.942 1.036,0.628 1.554,1.426 1.554,2.396 z"
             style="fill:#ffffff;fill-opacity:1;fill-rule:evenodd;stroke:none"
             id="path42"
             inkscape:connector-curvature="0" /></g><g
           id="g44"
           transform="translate(28.5151,53.0054)"><path
             d="m 0,0 c 1.562,1.02 4.68,2.403 9.351,4.154 v 2.165 c 0,1.733 -0.17,2.939 -0.51,3.619 -0.577,1.138 -1.776,1.706 -3.592,1.707 -0.867,0 -1.691,-0.221 -2.472,-0.663 C 1.995,10.523 1.604,9.895 1.604,9.097 1.604,8.893 1.647,8.544 1.732,8.052 1.816,7.576 1.858,7.271 1.859,7.135 1.859,6.184 1.545,5.521 0.917,5.147 0.561,4.926 0.135,4.816 -0.357,4.816 c -0.764,0 -1.351,0.247 -1.758,0.739 -0.407,0.509 -0.612,1.07 -0.612,1.681 0,1.19 0.73,2.43 2.192,3.721 1.477,1.308 3.635,1.961 6.472,1.962 3.294,0 5.528,-1.07 6.701,-3.211 0.629,-1.172 0.942,-2.879 0.943,-5.121 V -5.631 c 0,-0.986 0.067,-1.665 0.203,-2.039 0.221,-0.662 0.68,-0.993 1.376,-0.993 0.391,0 0.713,0.059 0.969,0.179 0.255,0.118 0.696,0.406 1.325,0.866 v -1.325 c -0.544,-0.662 -1.13,-1.206 -1.759,-1.631 -0.951,-0.646 -1.919,-0.967 -2.904,-0.969 -1.155,0 -1.996,0.374 -2.522,1.122 -0.51,0.747 -0.79,1.639 -0.841,2.675 C 8.136,-8.867 7.032,-9.699 6.115,-10.242 4.568,-11.16 3.1,-11.619 1.707,-11.619 c -1.461,0 -2.727,0.51 -3.797,1.529 -1.07,1.036 -1.605,2.344 -1.605,3.924 0,2.463 1.231,4.518 3.695,6.166 z M 9.351,2.88 C 7.397,2.234 5.784,1.521 4.51,0.739 2.063,-0.773 0.841,-2.488 0.841,-4.408 c 0,-1.546 0.51,-2.684 1.528,-3.414 0.663,-0.477 1.402,-0.713 2.217,-0.713 1.121,0 2.191,0.313 3.211,0.942 1.036,0.628 1.554,1.426 1.554,2.396 z"
             style="fill:none;stroke:#ffffff;stroke-width:2.17400002;stroke-linecap:butt;stroke-linejoin:miter;stroke-miterlimit:3.86400008;stroke-dasharray:none;stroke-opacity:1"
             id="path46"
             inkscape:connector-curvature="0" /></g></g></g><g
       id="g48"><g
         id="g50"
         clip-path="url(#clipPath54)"><g
           id="g56"
           transform="translate(79.6362,57.0317)"><path
             d="m 0,0 c 0,11.045 8.954,19.998 19.999,19.998 11.045,0 19.998,-8.953 19.998,-19.998 0,-11.045 -8.953,-19.999 -19.998,-19.999 C 8.954,-19.999 0,-11.045 0,0"
             style="fill:#231f20;fill-opacity:1;fill-rule:evenodd;stroke:none"
             id="path58"
             inkscape:connector-curvature="0" /></g></g></g><g
       id="g60"><g
         id="g62"
         clip-path="url(#clipPath66)"><g
           id="g68"
           transform="translate(84.8071,42.4819)"><path
             d="m 0,0 c 1.58,0.153 2.65,0.467 3.211,0.943 0.56,0.493 0.841,1.444 0.841,2.854 v 24.894 c 0,1.122 -0.094,1.894 -0.281,2.319 -0.339,0.714 -1.028,1.07 -2.064,1.07 -0.237,0 -0.501,-0.025 -0.789,-0.076 -0.272,-0.051 -0.621,-0.128 -1.045,-0.23 v 0.841 c 2.293,0.612 5.053,1.427 8.281,2.447 0.118,0 0.187,-0.051 0.203,-0.153 0.035,-0.102 0.051,-0.324 0.052,-0.663 V 3.695 C 8.409,2.217 8.664,1.257 9.174,0.815 9.683,0.391 10.735,0.119 12.333,0 V -0.713 H 0 Z"
             style="fill:#ffffff;fill-opacity:1;fill-rule:evenodd;stroke:none"
             id="path70"
             inkscape:connector-curvature="0" /></g><g
           id="g72"
           transform="translate(84.8071,42.4819)"><path
             d="m 0,0 c 1.58,0.153 2.65,0.467 3.211,0.943 0.56,0.493 0.841,1.444 0.841,2.854 v 24.894 c 0,1.122 -0.094,1.894 -0.281,2.319 -0.339,0.714 -1.028,1.07 -2.064,1.07 -0.237,0 -0.501,-0.025 -0.789,-0.076 -0.272,-0.051 -0.621,-0.128 -1.045,-0.23 v 0.841 c 2.293,0.612 5.053,1.427 8.281,2.447 0.118,0 0.187,-0.051 0.203,-0.153 0.035,-0.102 0.051,-0.324 0.052,-0.663 V 3.695 C 8.409,2.217 8.664,1.257 9.174,0.815 9.683,0.391 10.735,0.119 12.333,0 V -0.713 H 0 Z"
             style="fill:none;stroke:#ffffff;stroke-width:2.17400002;stroke-linecap:butt;stroke-linejoin:miter;stroke-miterlimit:3.86400008;stroke-dasharray:none;stroke-opacity:1"
             id="path74"
             inkscape:connector-curvature="0" /></g></g></g><g
       id="g76"><g
         id="g78"
         clip-path="url(#clipPath82)"><g
           id="g84"
           transform="translate(133.3081,57.0317)"><path
             d="m 0,0 c 0,11.045 8.954,19.998 19.998,19.998 11.045,0 19.999,-8.953 19.999,-19.998 0,-11.045 -8.954,-19.999 -19.999,-19.999 C 8.954,-19.999 0,-11.045 0,0"
             style="fill:#231f20;fill-opacity:1;fill-rule:evenodd;stroke:none"
             id="path86"
             inkscape:connector-curvature="0" /></g></g></g><g
       id="g88"><g
         id="g90"
         clip-path="url(#clipPath94)"><g
           id="g96"
           transform="translate(139.6304,65.3638)"><path
             d="m 0,0 v -16.308 c 0,-1.155 0.161,-2.081 0.484,-2.777 0.628,-1.291 1.784,-1.936 3.466,-1.936 1.154,0 2.284,0.381 3.389,1.146 0.628,0.425 1.265,1.011 1.911,1.759 v 13.963 c 0,1.307 -0.255,2.165 -0.765,2.573 -0.509,0.408 -1.529,0.654 -3.057,0.739 V 0 h 8.23 v -17.938 c 0,-1.156 0.204,-1.955 0.612,-2.395 0.424,-0.426 1.307,-0.611 2.649,-0.561 v -0.713 c -0.935,-0.255 -1.622,-0.451 -2.064,-0.586 -0.442,-0.12 -1.18,-0.349 -2.216,-0.689 -0.443,-0.152 -1.41,-0.517 -2.906,-1.096 -0.085,0 -0.135,0.043 -0.152,0.128 -0.018,0.069 -0.025,0.154 -0.025,0.255 v 4.102 C 8.4,-20.868 7.347,-21.888 6.396,-22.55 4.951,-23.569 3.423,-24.079 1.81,-24.079 c -1.478,0 -2.872,0.526 -4.179,1.58 -1.325,1.035 -1.987,2.776 -1.987,5.223 v 13.224 c 0,1.359 -0.29,2.268 -0.867,2.727 -0.375,0.288 -1.173,0.492 -2.395,0.612 V 0 Z"
             style="fill:#ffffff;fill-opacity:1;fill-rule:evenodd;stroke:none"
             id="path98"
             inkscape:connector-curvature="0" /></g><g
           id="g100"
           transform="translate(139.6304,65.3638)"><path
             d="m 0,0 v -16.308 c 0,-1.155 0.161,-2.081 0.484,-2.777 0.628,-1.291 1.784,-1.936 3.466,-1.936 1.154,0 2.284,0.381 3.389,1.146 0.628,0.425 1.265,1.011 1.911,1.759 v 13.963 c 0,1.307 -0.255,2.165 -0.765,2.573 -0.509,0.408 -1.529,0.654 -3.057,0.739 V 0 h 8.23 v -17.938 c 0,-1.156 0.204,-1.955 0.612,-2.395 0.424,-0.426 1.307,-0.611 2.649,-0.561 v -0.713 c -0.935,-0.255 -1.622,-0.451 -2.064,-0.586 -0.442,-0.12 -1.18,-0.349 -2.216,-0.689 -0.443,-0.152 -1.41,-0.517 -2.906,-1.096 -0.085,0 -0.135,0.043 -0.152,0.128 -0.018,0.069 -0.025,0.154 -0.025,0.255 v 4.102 C 8.4,-20.868 7.347,-21.888 6.396,-22.55 4.951,-23.569 3.423,-24.079 1.81,-24.079 c -1.478,0 -2.872,0.526 -4.179,1.58 -1.325,1.035 -1.987,2.776 -1.987,5.223 v 13.224 c 0,1.359 -0.29,2.268 -0.867,2.727 -0.375,0.288 -1.173,0.492 -2.395,0.612 V 0 Z"
             style="fill:none;stroke:#ffffff;stroke-width:2.17400002;stroke-linecap:butt;stroke-linejoin:miter;stroke-miterlimit:3.86400008;stroke-dasharray:none;stroke-opacity:1"
             id="path102"
             inkscape:connector-curvature="0" /></g></g></g><g
       id="g104"><g
         id="g106"
         clip-path="url(#clipPath110)"><g
           id="g112"
           transform="translate(186.98,57.0317)"><path
             d="m 0,0 c 0,11.045 8.953,19.998 19.998,19.998 11.045,0 19.998,-8.953 19.998,-19.998 0,-11.045 -8.953,-19.999 -19.998,-19.999 C 8.953,-19.999 0,-11.045 0,0"
             style="fill:#231f20;fill-opacity:1;fill-rule:evenodd;stroke:none"
             id="path114"
             inkscape:connector-curvature="0" /></g></g></g><g
       id="g116"><g
         id="g118"
         clip-path="url(#clipPath122)"><g
           id="g124"
           transform="translate(181.647,42.4312)"><path
             d="M 0,0 C 1.325,0.119 2.209,0.34 2.65,0.662 3.33,1.154 3.669,2.14 3.67,3.618 v 13.174 c 0,1.257 -0.171,2.081 -0.51,2.472 C 2.837,19.653 2.294,19.849 1.529,19.85 1.173,19.85 0.9,19.832 0.714,19.798 0.543,19.764 0.34,19.705 0.103,19.62 v 0.892 l 1.834,0.612 c 0.663,0.22 1.75,0.619 3.261,1.197 1.512,0.577 2.311,0.866 2.396,0.867 0.084,0 0.135,-0.043 0.152,-0.128 0.018,-0.085 0.025,-0.247 0.025,-0.484 v -3.44 c 1.682,1.529 3.135,2.581 4.358,3.159 1.224,0.595 2.479,0.892 3.771,0.893 1.749,0 3.142,-0.595 4.179,-1.784 0.543,-0.646 0.993,-1.521 1.351,-2.625 1.256,1.274 2.351,2.217 3.287,2.828 1.613,1.053 3.261,1.58 4.943,1.581 2.735,0 4.56,-1.114 5.478,-3.338 0.526,-1.258 0.789,-3.246 0.79,-5.963 V 3.313 c 0,-1.207 0.262,-2.031 0.79,-2.472 C 37.261,0.416 38.229,0.136 39.623,0 V -0.662 H 28.131 v 0.713 c 1.477,0.136 2.446,0.432 2.904,0.892 0.476,0.458 0.713,1.393 0.714,2.803 v 10.983 c 0,1.646 -0.179,2.861 -0.535,3.642 -0.629,1.393 -1.86,2.089 -3.694,2.09 -1.105,0 -2.201,-0.365 -3.288,-1.096 -0.628,-0.425 -1.401,-1.104 -2.318,-2.038 V 4.281 C 21.914,2.904 22.15,1.86 22.627,1.146 23.119,0.434 24.147,0.051 25.71,0 V -0.662 H 14.015 V 0 c 1.613,0.204 2.641,0.594 3.083,1.172 0.441,0.578 0.662,1.996 0.662,4.256 v 7.135 c 0,2.615 -0.17,4.416 -0.509,5.401 -0.561,1.664 -1.751,2.496 -3.567,2.497 -1.038,0 -2.057,-0.289 -3.058,-0.866 -1.003,-0.561 -1.886,-1.3 -2.65,-2.217 V 3.439 C 7.976,2.148 8.196,1.257 8.639,0.765 9.097,0.271 10.082,0.017 11.594,0 V -0.662 H 0 Z"
             style="fill:#ffffff;fill-opacity:1;fill-rule:evenodd;stroke:none"
             id="path126"
             inkscape:connector-curvature="0" /></g><g
           id="g128"
           transform="translate(181.647,42.4312)"><path
             d="M 0,0 C 1.325,0.119 2.209,0.34 2.65,0.662 3.33,1.154 3.669,2.14 3.67,3.618 v 13.174 c 0,1.257 -0.171,2.081 -0.51,2.472 C 2.837,19.653 2.294,19.849 1.529,19.85 1.173,19.85 0.9,19.832 0.714,19.798 0.543,19.764 0.34,19.705 0.103,19.62 v 0.892 l 1.834,0.612 c 0.663,0.22 1.75,0.619 3.261,1.197 1.512,0.577 2.311,0.866 2.396,0.867 0.084,0 0.135,-0.043 0.152,-0.128 0.018,-0.085 0.025,-0.247 0.025,-0.484 v -3.44 c 1.682,1.529 3.135,2.581 4.358,3.159 1.224,0.595 2.479,0.892 3.771,0.893 1.749,0 3.142,-0.595 4.179,-1.784 0.543,-0.646 0.993,-1.521 1.351,-2.625 1.256,1.274 2.351,2.217 3.287,2.828 1.613,1.053 3.261,1.58 4.943,1.581 2.735,0 4.56,-1.114 5.478,-3.338 0.526,-1.258 0.789,-3.246 0.79,-5.963 V 3.313 c 0,-1.207 0.262,-2.031 0.79,-2.472 C 37.261,0.416 38.229,0.136 39.623,0 V -0.662 H 28.131 v 0.713 c 1.477,0.136 2.446,0.432 2.904,0.892 0.476,0.458 0.713,1.393 0.714,2.803 v 10.983 c 0,1.646 -0.179,2.861 -0.535,3.642 -0.629,1.393 -1.86,2.089 -3.694,2.09 -1.105,0 -2.201,-0.365 -3.288,-1.096 -0.628,-0.425 -1.401,-1.104 -2.318,-2.038 V 4.281 C 21.914,2.904 22.15,1.86 22.627,1.146 23.119,0.434 24.147,0.051 25.71,0 V -0.662 H 14.015 V 0 c 1.613,0.204 2.641,0.594 3.083,1.172 0.441,0.578 0.662,1.996 0.662,4.256 v 7.135 c 0,2.615 -0.17,4.416 -0.509,5.401 -0.561,1.664 -1.751,2.496 -3.567,2.497 -1.038,0 -2.057,-0.289 -3.058,-0.866 -1.003,-0.561 -1.886,-1.3 -2.65,-2.217 V 3.439 C 7.976,2.148 8.196,1.257 8.639,0.765 9.097,0.271 10.082,0.017 11.594,0 V -0.662 H 0 Z"
             style="fill:none;stroke:#ffffff;stroke-width:2.17400002;stroke-linecap:butt;stroke-linejoin:miter;stroke-miterlimit:3.86400008;stroke-dasharray:none;stroke-opacity:1"
             id="path130"
             inkscape:connector-curvature="0" /></g></g></g><g
       id="g132"><g
         id="g134"
         clip-path="url(#clipPath138)"><g
           id="g140"
           transform="translate(240.6523,57.0317)"><path
             d="m 0,0 c 0,11.045 8.953,19.998 19.998,19.998 11.045,0 19.998,-8.953 19.998,-19.998 0,-11.045 -8.953,-19.999 -19.998,-19.999 C 8.953,-19.999 0,-11.045 0,0"
             style="fill:#231f20;fill-opacity:1;fill-rule:evenodd;stroke:none"
             id="path142"
             inkscape:connector-curvature="0" /></g></g></g><g
       id="g144"><g
         id="g146"
         clip-path="url(#clipPath150)"><g
           id="g152"
           transform="translate(238.123,42.4819)"><path
             d="m 0,0 c 1.205,0.153 2.047,0.45 2.523,0.893 0.493,0.458 0.739,1.468 0.739,3.031 v 12.919 c 0,1.087 -0.102,1.851 -0.307,2.293 -0.322,0.645 -0.984,0.968 -1.986,0.968 -0.153,0 -0.315,-0.008 -0.485,-0.025 -0.152,-0.017 -0.349,-0.043 -0.586,-0.077 v 0.893 c 0.696,0.203 2.344,0.73 4.944,1.579 l 2.394,0.79 c 0.119,0 0.188,-0.043 0.205,-0.127 0.034,-0.086 0.049,-0.204 0.051,-0.357 v -3.746 c 1.563,1.461 2.785,2.463 3.668,3.007 1.326,0.832 2.701,1.248 4.129,1.249 1.154,0 2.207,-0.332 3.158,-0.994 1.836,-1.292 2.752,-3.593 2.752,-6.905 v -11.9 c 0,-1.223 0.246,-2.106 0.74,-2.649 C 22.432,0.297 23.256,0.018 24.41,0 V -0.713 H 13.531 V 0 c 1.239,0.17 2.106,0.51 2.598,1.02 0.492,0.526 0.738,1.655 0.74,3.388 v 10.881 c 0,1.46 -0.273,2.666 -0.816,3.618 -0.543,0.968 -1.547,1.452 -3.006,1.452 -1.004,0 -2.022,-0.34 -3.059,-1.019 C 9.41,18.949 8.664,18.303 7.746,17.403 V 3.135 C 7.746,1.911 8.018,1.088 8.563,0.663 9.105,0.255 9.963,0.033 11.135,0 V -0.713 H 0 Z"
             style="fill:#ffffff;fill-opacity:1;fill-rule:evenodd;stroke:none"
             id="path154"
             inkscape:connector-curvature="0" /></g><g
           id="g156"
           transform="translate(238.123,42.4819)"><path
             d="m 0,0 c 1.205,0.153 2.047,0.45 2.523,0.893 0.493,0.458 0.739,1.468 0.739,3.031 v 12.919 c 0,1.087 -0.102,1.851 -0.307,2.293 -0.322,0.645 -0.984,0.968 -1.986,0.968 -0.153,0 -0.315,-0.008 -0.485,-0.025 -0.152,-0.017 -0.349,-0.043 -0.586,-0.077 v 0.893 c 0.696,0.203 2.344,0.73 4.944,1.579 l 2.394,0.79 c 0.119,0 0.188,-0.043 0.205,-0.127 0.034,-0.086 0.049,-0.204 0.051,-0.357 v -3.746 c 1.563,1.461 2.785,2.463 3.668,3.007 1.326,0.832 2.701,1.248 4.129,1.249 1.154,0 2.207,-0.332 3.158,-0.994 1.836,-1.292 2.752,-3.593 2.752,-6.905 v -11.9 c 0,-1.223 0.246,-2.106 0.74,-2.649 C 22.432,0.297 23.256,0.018 24.41,0 V -0.713 H 13.531 V 0 c 1.239,0.17 2.106,0.51 2.598,1.02 0.492,0.526 0.738,1.655 0.74,3.388 v 10.881 c 0,1.46 -0.273,2.666 -0.816,3.618 -0.543,0.968 -1.547,1.452 -3.006,1.452 -1.004,0 -2.022,-0.34 -3.059,-1.019 C 9.41,18.949 8.664,18.303 7.746,17.403 V 3.135 C 7.746,1.911 8.018,1.088 8.563,0.663 9.105,0.255 9.963,0.033 11.135,0 V -0.713 H 0 Z"
             style="fill:none;stroke:#ffffff;stroke-width:2.17400002;stroke-linecap:butt;stroke-linejoin:miter;stroke-miterlimit:3.86400008;stroke-dasharray:none;stroke-opacity:1"
             id="path158"
             inkscape:connector-curvature="0" /></g></g></g><g
       id="g160"><g
         id="g162"
         clip-path="url(#clipPath166)"><g
           id="g168"
           transform="translate(294.3242,57.0317)"><path
             d="m 0,0 c 0,11.045 8.953,19.998 19.998,19.998 11.045,0 19.998,-8.953 19.998,-19.998 0,-11.045 -8.953,-19.999 -19.998,-19.999 C 8.953,-19.999 0,-11.045 0,0"
             style="fill:#231f20;fill-opacity:1;fill-rule:evenodd;stroke:none"
             id="path170"
             inkscape:connector-curvature="0" /></g></g></g><g
       id="g172"><g
         id="g174"
         clip-path="url(#clipPath178)"><g
           id="g180"
           transform="translate(297.8691,42.4819)"><path
             d="M 0,0 C 1.816,0.17 2.963,0.476 3.439,0.918 3.914,1.376 4.152,2.6 4.152,4.587 v 12.154 c 0,1.104 -0.076,1.868 -0.228,2.293 -0.256,0.696 -0.791,1.044 -1.606,1.045 -0.187,0 -0.375,-0.017 -0.56,-0.051 -0.17,-0.034 -2.565,-0.09 -3.58,-0.09 l -0.123,0.472 3.269,0.357 c 2.973,0.968 5.045,1.698 6.217,2.191 0.477,0.204 0.781,0.306 0.918,0.306 C 8.492,23.145 8.51,23.017 8.51,22.882 V 4.587 C 8.51,2.65 8.738,1.436 9.197,0.943 9.674,0.45 10.734,0.136 12.383,0 V -0.713 H 0 Z m 4.025,34.067 c 0.51,0.527 1.139,0.79 1.885,0.79 0.731,0 1.35,-0.263 1.861,-0.79 0.526,-0.509 0.79,-1.138 0.79,-1.885 0,-0.731 -0.264,-1.359 -0.79,-1.885 -0.509,-0.51 -1.13,-0.765 -1.861,-0.765 -0.746,0 -1.375,0.255 -1.885,0.765 -0.509,0.526 -0.763,1.154 -0.763,1.885 0,0.73 0.254,1.359 0.763,1.885"
             style="fill:#ffffff;fill-opacity:1;fill-rule:evenodd;stroke:none"
             id="path182"
             inkscape:connector-curvature="0" /></g><g
           id="g184"
           transform="translate(297.8691,42.4819)"><path
             d="M 0,0 C 1.816,0.17 2.963,0.476 3.439,0.918 3.914,1.376 4.152,2.6 4.152,4.587 v 12.154 c 0,1.104 -0.076,1.868 -0.228,2.293 -0.256,0.696 -0.791,1.044 -1.606,1.045 -0.187,0 -0.375,-0.017 -0.56,-0.051 -0.17,-0.034 -2.565,-0.09 -3.58,-0.09 l -0.123,0.472 3.269,0.357 c 2.973,0.968 5.045,1.698 6.217,2.191 0.477,0.204 0.781,0.306 0.918,0.306 C 8.492,23.145 8.51,23.017 8.51,22.882 V 4.587 C 8.51,2.65 8.738,1.436 9.197,0.943 9.674,0.45 10.734,0.136 12.383,0 V -0.713 H 0 Z m 4.025,34.067 c 0.51,0.527 1.139,0.79 1.885,0.79 0.731,0 1.35,-0.263 1.861,-0.79 0.526,-0.509 0.79,-1.138 0.79,-1.885 0,-0.731 -0.264,-1.359 -0.79,-1.885 -0.509,-0.51 -1.13,-0.765 -1.861,-0.765 -0.746,0 -1.375,0.255 -1.885,0.765 -0.509,0.526 -0.763,1.154 -0.763,1.885 0,0.73 0.254,1.359 0.763,1.885 z"
             style="fill:none;stroke:#ffffff;stroke-width:2.17400002;stroke-linecap:butt;stroke-linejoin:miter;stroke-miterlimit:3.86400008;stroke-dasharray:none;stroke-opacity:1"
             id="path186"
             inkscape:connector-curvature="0" /></g></g></g><g
       id="g188"><g
         id="g190"
         clip-path="url(#clipPath194)"><g
           id="g196"
           transform="translate(363.0869,61.1606)"><path
             d="M 0,0 C 0,4.083 5.128,11.502 12.54,11.502 19.905,11.502 25.083,3.583 25.083,0 Z m 33.583,-7.5 c 0,0 0.457,2.109 0.376,4 0,11.831 -9.591,21.421 -21.42,21.421 -11.83,0 -21.419,-9.59 -21.419,-21.421 0,-11.829 9.171,-21.418 21.419,-21.418 10.502,0 17.052,6.536 20.434,13.918 -0.062,-0.002 -8.729,-0.03 -8.973,0 -2.607,-4.793 -6.917,-7.604 -11.461,-7.593 -4.123,0.01 -10.706,3.26 -12.372,11.01 z"
             style="fill:#231f20;fill-opacity:1;fill-rule:nonzero;stroke:none"
             id="path198"
             inkscape:connector-curvature="0" /></g><path
           d="m 405.777,79.29 h 7.332 V 36.035 h -7.332 z"
           style="fill:#231f20;fill-opacity:1;fill-rule:evenodd;stroke:none"
           id="path200"
           inkscape:connector-curvature="0" /><g
           id="g202"
           transform="translate(401.3198,92.8223)"><path
             d="m 0,0 c 0,4.371 3.543,7.914 7.915,7.914 4.371,0 7.914,-3.543 7.914,-7.914 0,-4.371 -3.543,-7.914 -7.914,-7.914 C 3.543,-7.914 0,-4.371 0,0"
             style="fill:#231f20;fill-opacity:1;fill-rule:evenodd;stroke:none"
             id="path204"
             inkscape:connector-curvature="0" /></g></g></g></g></svg>