<?xml version="1.0" encoding="UTF-8" standalone="no"?>
<svg width="24px" height="20px" viewBox="0 0 24 20" version="1.1" xmlns="http://www.w3.org/2000/svg" xmlns:xlink="http://www.w3.org/1999/xlink">
    <!-- Generator: Sketch 45.2 (43514) - http://www.bohemiancoding.com/sketch -->
    <title>Shape</title>
    <desc>Created with Sketch.</desc>
    <defs></defs>
    <g id="Page-1" stroke="none" stroke-width="1" fill="none" fill-rule="evenodd">
        <g id="twitter-purple" fill-rule="nonzero" fill="#5D00F3">
            <path d="M7.54752,19.54464 C16.60416,19.54464 21.55776,12.04128 21.55776,5.5344 C21.55776,5.32128 21.55776,5.10912 21.54336,4.89792 C22.5070381,4.20087446 23.3389013,3.33780422 24,2.34912 C23.1013239,2.74732973 22.1479961,3.00847546 21.17184,3.12384 C22.1997542,2.50846282 22.9690786,1.54058112 23.33664,0.40032 C22.3700712,0.973877088 21.3126203,1.37809152 20.20992,1.59552 C18.6835995,-0.0274614912 16.2582906,-0.424691923 14.2939673,0.626572704 C12.329644,1.67783741 11.314824,3.91615267 11.81856,6.0864 C7.85941987,5.88791952 4.17069677,4.01791037 1.6704,0.94176 C0.36347785,3.19165891 1.03102836,6.06994512 3.19488,7.51488 C2.41127155,7.4916552 1.6447482,7.28026867 0.96,6.89856 L0.96,6.96096 C0.960641405,9.30488928 2.61288144,11.3237138 4.9104,11.78784 C4.18547482,11.9855424 3.42487738,12.0144425 2.68704,11.87232 C3.33210998,13.8781659 5.18071162,15.2522725 7.28736,15.29184 C5.5437456,16.6621746 3.38981712,17.4060746 1.17216,17.40384 C0.780387427,17.4030878 0.388995907,17.3793672 0,17.3328 C2.25181051,18.7778655 4.87191686,19.5443682 7.54752,19.5408" id="Shape"></path>
        </g>
    </g>
</svg>