<?xml version="1.0" encoding="UTF-8"?>
<svg width="40px" height="11px" viewBox="0 0 40 11" version="1.1" xmlns="http://www.w3.org/2000/svg" xmlns:xlink="http://www.w3.org/1999/xlink">
    <!-- Generator: Sketch 60 (88103) - https://sketch.com -->
    <title>zigzag</title>
    <desc>Created with Sketch.</desc>
    <path
      d="M12.4216908,10.267767 C13.3741891,11.2440777 14.9184939,11.2440777 15.8709921,10.267767 L20,6.03553391 L24.1290079,10.267767 C25.0815061,11.2440777 26.6258109,11.2440777 27.5783092,10.267767 L31.7073171,6.03553391 L35.8363249,10.267767 C36.7888232,11.2440777 38.333128,11.2440777 39.2856263,10.267767 C40.2381246,9.29145622 40.2381246,7.70854378 39.2856263,6.73223305 L33.4319678,0.732233047 C32.4794695,-0.244077682 30.9351647,-0.244077682 29.9826664,0.732233047 L25.8536585,4.96446609 L21.7246507,0.732233047 C20.7721524,-0.244077682 19.2278476,-0.244077682 18.2753493,0.732233047 L14.1463415,4.96446609 L10.0173336,0.732233047 C9.06483534,-0.244077682 7.52053051,-0.244077682 6.56803224,0.732233047 L0.714373704,6.73223305 C-0.238124568,7.70854378 -0.238124568,9.29145622 0.714373704,10.267767 C1.66687198,11.2440777 3.2111768,11.2440777 4.16367508,10.267767 L8.29268293,6.03553391 L12.4216908,10.267767 Z"
      id="zigzag"
      fill="#000000"
      fill-rule="nonzero"
      fill-opacity="0.5"
    />
</svg>
