<?xml version="1.0" encoding="UTF-8"?>
<svg width="2367px" height="1537px" viewBox="0 0 2367 1537" version="1.1" xmlns="http://www.w3.org/2000/svg" xmlns:xlink="http://www.w3.org/1999/xlink">
    <!-- Generator: Sketch 48.1 (47250) - http://www.bohemiancoding.com/sketch -->
    <title>bash</title>
    <desc>Created with Sketch.</desc>
    <defs></defs>
    <g id="Page-1" stroke="none" stroke-width="1" fill="none" fill-rule="evenodd">
        <g id="bash" transform="translate(0.000000, 1.000000)" fill="#5D00F3" fill-rule="nonzero">
            <g id="bang" transform="translate(1708.000000, 0.000000)" stroke="#979797">
                <path d="M402.75,1065 C398.083333,1081 387.75,1089 371.75,1089 L146.75,1089 C136.75,1089 128.416667,1085 121.75,1077 C115.75,1069 113.75,1059.66667 115.75,1049 L153.75,896 L217.75,640 L289.75,352 L370.75,24 C375.416667,8 386.083333,0 402.75,0 L626.75,0 C636.75,0 645.083333,4 651.75,12 C657.75,20 659.75,29.3333333 657.75,40 L579.75,352 L402.75,1065 Z" id="dot"></path>
                <path d="M287.75,1500 C283.083333,1516 272.75,1524 256.75,1524 L31.75,1524 C21.75,1524 13.4166667,1520 6.75,1512 C0.75,1504 -1.25,1494.66667 0.75,1484 L55.75,1252 C60.4166667,1236 71.0833333,1228 87.75,1228 L311.75,1228 C321.75,1228 330.083333,1232 336.75,1240 C342.75,1248 344.75,1257.33333 342.75,1268 L287.75,1500 Z"></path>
            </g>
            <path d="M959,896 L1023,640 L769,640 L705,896 L959,896 Z M1727,392 L1671,616 C1666.33333,632 1656,640 1640,640 L1313,640 L1249,896 L1560,896 C1570,896 1578.33333,900 1585,908 C1591.66667,917.333333 1593.66667,926.666667 1591,936 L1535,1160 C1531.66667,1176 1521.33333,1184 1504,1184 L1177,1184 L1096,1512 C1091.33333,1528 1081,1536 1065,1536 L841,1536 C830.333333,1536 821.666667,1532 815,1524 C809,1516 807,1506.66667 809,1496 L887,1184 L633,1184 L552,1512 C547.333333,1528 537,1536 521,1536 L296,1536 C286,1536 277.666667,1532 271,1524 C265,1516 263,1506.66667 265,1496 L343,1184 L32,1184 C22,1184 13.6666667,1180 7,1172 C1,1164 -1,1154.66667 1,1144 L57,920 C61.6666667,904 72,896 88,896 L415,896 L479,640 L168,640 C158,640 149.666667,636 143,628 C136.333333,618.666667 134.333333,609.333333 137,600 L193,376 C196.333333,360 206.666667,352 224,352 L551,352 L632,24 C636.666667,8 647.333333,0 664,0 L888,0 C898,0 906.333333,4 913,12 C919,20 921,29.3333333 919,40 L841,352 L1095,352 L1176,24 C1180.66667,8 1191.33333,0 1208,0 L1432,0 C1442,0 1450.33333,4 1457,12 C1463,20 1465,29.3333333 1463,40 L1385,352 L1696,352 C1706,352 1714.33333,356 1721,364 C1727,372 1729,381.333333 1727,392 Z" id="hash"></path>
        </g>
    </g>
</svg>