<?xml version="1.0" encoding="UTF-8"?>
<svg width="325px" height="365px" viewBox="0 0 325 365" version="1.1" xmlns="http://www.w3.org/2000/svg" xmlns:xlink="http://www.w3.org/1999/xlink">
    <!-- Generator: Sketch 48.1 (47250) - http://www.bohemiancoding.com/sketch -->
    <title>csharp</title>
    <desc>Created with Sketch.</desc>
    <defs>
        <polygon id="path-1" points="0 0 324.757 0 324.757 364.94 0 364.94"></polygon>
    </defs>
    <g id="Page-1" stroke="none" stroke-width="1" fill="none" fill-rule="evenodd">
        <g id="csharp">
            <g id="Group-4">
                <mask id="mask-2" fill="white">
                    <use xlink:href="#path-1"></use>
                </mask>
                <g id="Clip-2"></g>
                <path d="M324.741,107.31 C324.738,101.173 323.426,95.75 320.771,91.095 C318.164,86.518 314.259,82.682 309.022,79.649 C265.787,54.72 222.511,29.867 179.291,4.913 C167.639,-1.814 156.342,-1.569 144.776,5.255 C127.568,15.403 41.411,64.765 15.737,79.635 C5.164,85.756 0.019,95.123 0.017,107.299 C0,157.432 0.017,207.565 0,257.7 C0.003,263.703 1.259,269.021 3.797,273.605 C6.405,278.32 10.365,282.262 15.723,285.364 C41.398,300.234 127.566,349.592 144.771,359.743 C156.342,366.57 167.639,366.814 179.295,360.085 C222.516,335.129 265.795,310.277 309.036,285.349 C314.394,282.248 318.353,278.304 320.962,273.592 C323.496,269.008 324.755,263.69 324.757,257.686 C324.757,257.686 324.757,157.445 324.741,107.31" id="Fill-1" fill="#8D4482" mask="url(#mask-2)"></path>
                <path d="M162.875,182.011 L3.797,273.605 C6.405,278.32 10.365,282.262 15.723,285.364 C41.398,300.234 127.566,349.592 144.771,359.743 C156.342,366.57 167.639,366.814 179.295,360.085 C222.516,335.129 265.795,310.277 309.036,285.349 C314.394,282.248 318.353,278.304 320.962,273.592 L162.875,182.011" id="Fill-3" fill="#5B2863" mask="url(#mask-2)"></path>
            </g>
            <path d="M115.758,209.142 C125.015,225.302 142.417,236.202 162.379,236.202 C182.464,236.202 199.965,225.164 209.174,208.831 L162.875,182.011 L115.758,209.142" id="Fill-5" fill="#5B2863"></path>
            <path d="M324.741,107.31 C324.738,101.173 323.426,95.75 320.771,91.095 L162.875,182.011 L320.962,273.592 C323.496,269.008 324.755,263.69 324.757,257.686 C324.757,257.686 324.757,157.445 324.741,107.31" id="Fill-6" fill="#732E71"></path>
            <path d="M209.174,208.831 C199.965,225.164 182.464,236.202 162.379,236.202 C142.417,236.202 125.015,225.302 115.758,209.142 C111.261,201.289 108.676,192.198 108.676,182.499 C108.676,152.84 132.72,128.797 162.379,128.797 C182.212,128.797 199.523,139.561 208.825,155.556 L255.764,128.526 C237.107,96.32 202.275,74.653 162.379,74.653 C102.815,74.653 54.532,122.938 54.532,182.499 C54.532,202.039 59.73,220.363 68.815,236.169 C87.425,268.545 122.357,290.346 162.379,290.346 C202.474,290.346 237.461,268.458 256.044,235.986 L209.174,208.831" id="Fill-7" fill="#FFFFFE"></path>
            <polygon id="Fill-8" fill="#FFFFFE" points="257.82 208.666 268.487 208.666 268.487 157 257.82 157"></polygon>
            <polygon id="Fill-9" fill="#FFFFFE" points="281.487 208.666 292.153 208.666 292.153 157 281.487 157"></polygon>
            <polygon id="Fill-10" fill="#FFFFFE" points="249.153 176.333 300.82 176.333 300.82 165.666 249.153 165.666"></polygon>
            <polygon id="Fill-11" fill="#FFFFFE" points="249.153 200 300.82 200 300.82 189.333 249.153 189.333"></polygon>
        </g>
    </g>
</svg>