<svg width="17px" height="15px" viewBox="0 0 17 15" version="1.1" xmlns="http://www.w3.org/2000/svg" xmlns:xlink="http://www.w3.org/1999/xlink">
    <!-- Generator: Sketch 45.2 (43514) - http://www.bohemiancoding.com/sketch -->
    <desc>Created with Sketch.</desc>
    <defs></defs>
    <g id="0000_general" stroke="none" stroke-width="1" fill="none" fill-rule="evenodd">
        <g id="0001_homepage_active_6a" transform="translate(-673.000000, -625.000000)" stroke="#FFE200" stroke-width="2" fill="#FFE200">
            <g id="3_areas" transform="translate(-1.000000, 587.000000)">
                <g id="talks" transform="translate(675.000000, 39.000000)">
                    <path d="M2.45833333,7.89049236 C2.45833333,8.11856368 2.43055583,8.45330849 2.375,8.89473684 C2.31944417,9.3361652 2.29166667,9.70769515 2.29166667,10.0093379 C2.29166667,10.7376946 2.41840151,11.348328 2.671875,11.8412564 C2.92534849,12.3341847 3.26041458,12.6615725 3.67708333,12.8234295 L3.67708333,13 L2.1875,13 C1.29166219,12.5732859 0.84375,11.6389433 0.84375,10.196944 C0.84375,9.93208696 0.873263594,9.56975329 0.932291667,9.10993209 C0.99131974,8.65011089 1.02083333,8.29513424 1.02083333,8.04499151 C1.02083333,7.28720617 0.680558958,6.86785553 0,6.78692699 L0,6.21307301 C0.680558958,6.13950161 1.02083333,5.72015097 1.02083333,4.95500849 C1.02083333,4.70486576 0.99131974,4.34988911 0.932291667,3.89006791 C0.873263594,3.43024671 0.84375,3.06791304 0.84375,2.80305603 C0.84375,1.36105674 1.29166219,0.426714075 2.1875,0 L3.67708333,0 L3.67708333,0.176570458 C3.26041458,0.338427521 2.92534849,0.665815306 2.671875,1.15874363 C2.41840151,1.65167196 2.29166667,2.26230536 2.29166667,2.99066214 C2.29166667,3.29230485 2.31944417,3.6638348 2.375,4.10526316 C2.43055583,4.54669151 2.45833333,4.88143632 2.45833333,5.10950764 C2.45833333,5.88200726 2.09375365,6.34182156 1.36458333,6.48896435 L1.36458333,6.51103565 C2.09375365,6.65817844 2.45833333,7.11799274 2.45833333,7.89049236 Z M12.5520833,5.10950764 C12.5520833,4.88143632 12.5798608,4.54669151 12.6354167,4.10526316 C12.6909725,3.6638348 12.71875,3.29230485 12.71875,2.99066214 C12.71875,2.26230536 12.5920152,1.65167196 12.3385417,1.15874363 C12.0850682,0.665815306 11.7500021,0.338427521 11.3333333,0.176570458 L11.3333333,0 L12.8125,0 C13.7083378,0.426714075 14.15625,1.36105674 14.15625,2.80305603 C14.15625,3.06791304 14.1267364,3.43024671 14.0677083,3.89006791 C14.0086803,4.34988911 13.9791667,4.71957981 13.9791667,4.9991511 C13.9791667,5.27872239 14.0555548,5.54173618 14.2083333,5.78820034 C14.3611119,6.0346645 14.6249981,6.17628731 15,6.21307301 L15,6.78692699 C14.6249981,6.83106983 14.3611119,6.97453189 14.2083333,7.21731749 C14.0555548,7.46010308 13.9791667,7.72127761 13.9791667,8.0008489 C13.9791667,8.28042019 14.0086803,8.65011089 14.0677083,9.10993209 C14.1267364,9.56975329 14.15625,9.93208696 14.15625,10.196944 C14.15625,11.6389433 13.7083378,12.5732859 12.8125,13 L11.3333333,13 L11.3333333,12.8234295 C11.7500021,12.6615725 12.0850682,12.3341847 12.3385417,11.8412564 C12.5920152,11.348328 12.71875,10.7376946 12.71875,10.0093379 C12.71875,9.70769515 12.6909725,9.3361652 12.6354167,8.89473684 C12.5798608,8.45330849 12.5520833,8.11856368 12.5520833,7.89049236 C12.5520833,7.11799274 12.916663,6.65817844 13.6458333,6.51103565 L13.6458333,6.48896435 C12.916663,6.34182156 12.5520833,5.88200726 12.5520833,5.10950764 Z" id="{}"></path>
                </g>
            </g>
        </g>
    </g>
</svg>
