<?xml version="1.0" encoding="UTF-8" standalone="no"?>
<svg width="449px" height="98px" viewBox="0 0 449 98" version="1.1" xmlns="http://www.w3.org/2000/svg" xmlns:xlink="http://www.w3.org/1999/xlink">
    <!-- Generator: Sketch 42 (36781) - http://www.bohemiancoding.com/sketch -->
    <title>logo-purple</title>
    <desc>Created with Sketch.</desc>
    <defs></defs>
    <g id="Page-1" stroke="none" stroke-width="1" fill="none" fill-rule="evenodd">
        <g id="logo-purple" fill-rule="nonzero">
            <polygon id="Shape" fill="#5D00F3" points="449 98 0 98 0 0 449 0"></polygon>
            <g id="Group" transform="translate(34.000000, 28.000000)" fill="#FFFFFF">
                <g id="Shape">
                    <polygon points="33.2 40.5 33.2 15.2 33.1 15.2 24.4 40.5 17.1 40.5 8.4 14.8 8.3 14.8 8.3 40.5 0.9 40.5 0.9 2.1 11.1 2.1 20.8 30.4 20.9 30.4 30.5 2.1 40.6 2.1 40.6 40.5"></polygon>
                    <path d="M54.1,40.8 L47.7,37.1 L47.7,27.6 L54.1,23.9 L63,23.9 L63,19.5 L50.5,19.5 L50.5,13.1 L64.2,13.1 L70.6,16.8 L70.6,40.8 L67,40.8 L63.1,38.6 L59.2,40.8 L54.1,40.8 L54.1,40.8 Z M55.3,29.7 L55.3,34.5 L63,34.5 L63,29.7 L55.3,29.7 Z"></path>
                    <polygon points="85.7 0.5 85.7 24.1 85.8 24.1 94.3 13.1 102.9 13.1 93.1 25.3 104.6 40.5 95.9 40.5 88.8 30.8 85.8 34.6 85.8 40.5 78.3 40.5 78.3 0.5"></polygon>
                    <path d="M130.7,34.1 L130.7,40.5 L114.3,40.5 L107.9,36.8 L107.9,16.4 L114.3,12.7 L124.3,12.7 L130.7,16.4 L130.7,29.5 L115.4,29.5 L115.4,34 L130.7,34 L130.7,34.1 Z M115.4,19.3 L115.4,24 L123.1,24 L123.1,19.3 L115.4,19.3 Z"></path>
                    <path d="M174.3,37.1 L167.9,40.8 L156.2,40.8 L149.8,37.1 L149.8,16.5 L156.2,12.8 L167.9,12.8 L174.3,16.5 L174.3,37.1 Z M157.4,19.3 L157.4,34.4 L166.8,34.4 L166.8,19.3 L157.4,19.3 Z"></path>
                    <polygon points="198.9 19.5 189.5 19.5 189.5 40.5 182 40.5 182 13.1 188.2 13.1 189.5 15.3 193.4 13.1 198.9 13.1"></polygon>
                    <path d="M243.1,17.9 L238.3,20.6 L238.3,20.7 L243.1,23.4 L243.1,36.8 L236.7,40.5 L215.9,40.5 L215.9,2.1 L236.7,2.1 L243.1,5.8 L243.1,17.9 Z M223.6,8.7 L223.6,17.4 L235.4,17.4 L235.4,8.7 L223.6,8.7 Z M223.6,24 L223.6,34 L235.4,34 L235.4,24 L223.6,24 Z"></path>
                    <polygon points="268.3 19.5 258.9 19.5 258.9 40.5 251.4 40.5 251.4 13.1 257.6 13.1 258.9 15.3 262.8 13.1 268.3 13.1"></polygon>
                    <path d="M296,34.1 L296,40.5 L279.6,40.5 L273.2,36.8 L273.2,16.4 L279.6,12.7 L289.6,12.7 L296,16.4 L296,29.5 L280.7,29.5 L280.7,34 L296,34 L296,34.1 Z M280.7,19.3 L280.7,24 L288.4,24 L288.4,19.3 L280.7,19.3 Z"></path>
                    <path d="M308.9,40.8 L302.5,37.1 L302.5,27.6 L308.9,23.9 L317.8,23.9 L317.8,19.5 L305.3,19.5 L305.3,13.1 L319,13.1 L325.4,16.8 L325.4,40.8 L321.8,40.8 L317.9,38.6 L314,40.8 L308.9,40.8 L308.9,40.8 Z M310.1,29.7 L310.1,34.5 L317.8,34.5 L317.8,29.7 L310.1,29.7 Z"></path>
                    <polygon points="340.5 0.5 340.5 24.1 340.6 24.1 349.1 13.1 357.7 13.1 347.9 25.3 359.4 40.5 350.7 40.5 343.6 30.8 340.6 34.6 340.6 40.5 333 40.5 333 0.5"></polygon>
                </g>
                <polygon id="Shape" points="381.2 31.2 366 31.2 366 40.6 381.1 40.6 381.1 31.2"></polygon>
            </g>
        </g>
    </g>
</svg>
