<?xml version="1.0" encoding="utf-8"?>
<!-- Generator: Adobe Illustrator 19.2.0, SVG Export Plug-In . SVG Version: 6.00 Build 0)  -->
<svg version="1.1" id="Layer_1" xmlns="http://www.w3.org/2000/svg" xmlns:xlink="http://www.w3.org/1999/xlink" x="0px" y="0px"
	 viewBox="0 0 449 98" style="enable-background:new 0 0 449 98;" xml:space="preserve">
<style type="text/css">
	.st0{fill:#5D00F3;}
	.st1{fill:#FFFFFF;}
</style>
<g>
	<path class="st0" d="M449,98H0V0h449V98z"/>
</g>
<g>
	<g>
		<g>
			<path class="st1" d="M67.2,68.5V43.2h-0.1l-8.7,25.3h-7.3l-8.7-25.7h-0.1v25.7h-7.4V30.1h10.2l9.7,28.3h0.1l9.6-28.3h10.1v38.4
				H67.2z"/>
		</g>
		<g>
			<path class="st1" d="M88.1,68.8l-6.4-3.7v-9.5l6.4-3.7H97v-4.4H84.5v-6.4h13.7l6.4,3.7v24h-3.6L97,66.6l-3.9,2.2H88.1z
				 M89.3,57.7v4.8H97v-4.8H89.3z"/>
		</g>
		<g>
			<path class="st1" d="M119.7,28.5v23.6h0.1l8.5-11h8.6l-9.8,12.2l11.5,15.2h-8.7l-7.1-9.7l-3,3.8v5.9h-7.5v-40H119.7z"/>
		</g>
		<g>
			<path class="st1" d="M164.7,62.1v6.4h-16.4l-6.4-3.7V44.5l6.4-3.7h10l6.4,3.7v13.1h-15.3v4.5H164.7z M149.4,47.3V52h7.7v-4.7
				H149.4z"/>
		</g>
		<g>
			<path class="st1" d="M208.3,65.1l-6.4,3.7h-11.7l-6.4-3.7V44.5l6.4-3.7h11.7l6.4,3.7V65.1z M191.4,47.3v15.1h9.4V47.3H191.4z"/>
		</g>
		<g>
			<path class="st1" d="M232.9,47.5h-9.4v21H216V41.1h6.2l1.3,2.2l3.9-2.2h5.5V47.5z"/>
		</g>
		<g>
			<path class="st1" d="M277.1,45.9l-4.8,2.7v0.1l4.8,2.7v13.4l-6.4,3.7h-20.8V30.1h20.8l6.4,3.7V45.9z M257.6,36.7v8.7h11.8v-8.7
				H257.6z M257.6,52v10h11.8V52H257.6z"/>
		</g>
		<g>
			<path class="st1" d="M302.3,47.5h-9.4v21h-7.5V41.1h6.2l1.3,2.2l3.9-2.2h5.5V47.5z"/>
		</g>
		<g>
			<path class="st1" d="M330,62.1v6.4h-16.4l-6.4-3.7V44.5l6.4-3.7h10l6.4,3.7v13.1h-15.3v4.5H330z M314.7,47.3V52h7.7v-4.7H314.7z"
				/>
		</g>
		<g>
			<path class="st1" d="M342.9,68.8l-6.4-3.7v-9.5l6.4-3.7h8.9v-4.4h-12.5v-6.4h13.7l6.4,3.7v24h-3.6l-3.9-2.2l-3.9,2.2H342.9z
				 M344.1,57.7v4.8h7.7v-4.8H344.1z"/>
		</g>
		<g>
			<path class="st1" d="M374.5,28.5v23.6h0.1l8.5-11h8.6l-9.8,12.2l11.5,15.2h-8.7l-7.1-9.7l-3,3.8v5.9H367v-40H374.5z"/>
		</g>
	</g>
	<g>
		<g>
			<path class="st1" d="M415.2,59.2H400v9.4h15.1V59.2z"/>
		</g>
	</g>
</g>
</svg>
