<?xml version="1.0" encoding="UTF-8" standalone="no"?>
<!-- Created with Inkscape (http://www.inkscape.org/) -->

<svg
   xmlns:dc="http://purl.org/dc/elements/1.1/"
   xmlns:cc="http://creativecommons.org/ns#"
   xmlns:rdf="http://www.w3.org/1999/02/22-rdf-syntax-ns#"
   xmlns:svg="http://www.w3.org/2000/svg"
   xmlns="http://www.w3.org/2000/svg"
   xmlns:sodipodi="http://sodipodi.sourceforge.net/DTD/sodipodi-0.dtd"
   xmlns:inkscape="http://www.inkscape.org/namespaces/inkscape"
   width="74.669281mm"
   height="74.668175mm"
   viewBox="0 0 264.5762 264.57227"
   id="svg5174"
   version="1.1"
   inkscape:version="0.91 r13725"
   sodipodi:docname="psc_logo_onblack.svg">
  <defs
     id="defs5176" />
  <sodipodi:namedview
     id="base"
     pagecolor="#ffffff"
     bordercolor="#666666"
     borderopacity="1.0"
     inkscape:pageopacity="0.0"
     inkscape:pageshadow="2"
     inkscape:zoom="0.35"
     inkscape:cx="-659.85477"
     inkscape:cy="138.00042"
     inkscape:document-units="px"
     inkscape:current-layer="layer1"
     showgrid="false"
     fit-margin-top="0"
     fit-margin-left="0"
     fit-margin-right="0"
     fit-margin-bottom="0"
     inkscape:window-width="1536"
     inkscape:window-height="801"
     inkscape:window-x="-8"
     inkscape:window-y="-8"
     inkscape:window-maximized="1" />
  <metadata
     id="metadata5179">
    <rdf:RDF>
      <cc:Work
         rdf:about="">
        <dc:format>image/svg+xml</dc:format>
        <dc:type
           rdf:resource="http://purl.org/dc/dcmitype/StillImage" />
        <dc:title></dc:title>
      </cc:Work>
    </rdf:RDF>
  </metadata>
  <g
     inkscape:label="Layer 1"
     inkscape:groupmode="layer"
     id="layer1"
     transform="translate(-607.71191,-291.50464)">
    <path
       inkscape:connector-curvature="0"
       style="fill:#181210;fill-opacity:1;fill-rule:nonzero;stroke:none"
       d="m 607.71191,291.50464 0,264.57227 264.57618,0 0,-264.57227 -264.57618,0 z m 204.51758,34.38867 c 4.80134,2.848 8.01953,8.08923 8.01953,14.08789 0,0.33067 -0.0105,0.66738 -0.0332,0.99805 l -7.98633,-15.08594 z m -7.59961,1.29883 c 2.33067,0.26267 4.51403,1.03125 6.44336,2.16992 l 7.98828,15.08008 c -0.144,2.364 -0.79212,4.57983 -1.82812,6.5625 l -4.46289,-8.43164 c -0.24533,-2.78533 -1.6103,-5.24163 -3.6543,-6.9043 l -4.48633,-8.47656 z m -3.01171,4.51172 c 0.63199,0 1.2456,0.0414 1.8496,0.10937 l 4.49219,8.47461 c -1.72666,-1.412 -3.93913,-2.26172 -6.34179,-2.26172 -0.0453,0 -0.097,0.008 -0.1543,0.008 l -3.16797,-5.98242 c 1.076,-0.22267 2.18892,-0.34766 3.32227,-0.34766 z m -4.47266,4.96094 3.16797,5.98828 c -1.68534,0.0293 -3.27111,0.46089 -4.64844,1.21289 l -2.96094,-5.57617 c 1.37734,-0.74667 2.86808,-1.29434 4.44141,-1.625 z m -5.59375,6.24414 2.95117,5.57617 c -1.43467,0.78133 -2.66612,1.90271 -3.57812,3.24805 l -3.17774,-5.98829 c 1.128,-1.12133 2.40336,-2.0786 3.80469,-2.83593 z m 20.06445,4.28515 4.46485,8.42969 c -0.80934,1.54933 -1.85695,2.951 -3.09961,4.15235 l -3.15625,-5.94727 c 1.15066,-1.62267 1.82812,-3.6171 1.82812,-5.75977 0,-0.3 -0.009,-0.591 -0.0371,-0.875 z m -25.01953,3.17188 3.17773,5.98828 c -1.07599,1.59467 -1.70898,3.51431 -1.70898,5.57031 0,0.484 0.0467,0.9625 0.10938,1.42383 l -4.64258,-8.76172 c 0.792,-1.56666 1.83245,-2.99003 3.06445,-4.2207 z m -15.10937,0.45508 5.08398,0 0,6.23828 -1.7832,0 -3.30078,-6.23828 z m -58.25,3.98242 c 9.028,0 16.31835,7.33199 16.31836,16.36133 -10e-6,9.02266 -7.29036,16.31445 -16.31836,16.31445 -9.02934,0 -16.36524,-7.29179 -16.36524,-16.31445 0,-9.02934 7.3359,-16.36133 16.36524,-16.36133 z m 21.86523,0.63867 7.92578,0 c 6.41467,0 11.64453,5.22791 11.64453,11.64258 0,4.30667 -2.42842,8.29362 -6.23242,10.26562 l 8.29492,9.48438 -8.29492,0 -7.10352,-8.11133 0,8.11133 -6.23437,0 0,-31.39258 z m 24.74219,0 11.64258,0 3.30078,6.23633 -3.49414,0 0,25.15625 -6.22461,0 0,-25.15625 -5.22461,0 0,-6.23633 z m -86.25977,0.004 7.93164,0 c 6.41734,0 11.64453,5.21867 11.64453,11.63867 0,6.41467 -5.22719,11.63867 -11.64453,11.63867 l -1.69531,0 0,8.11914 -6.23633,0 0,-31.39648 z m 135.08985,3.00976 3.14648,5.94141 c -1.128,1.1 -2.41613,2.03824 -3.82812,2.76758 l -2.94141,-5.54883 c 1.448,-0.74533 2.69505,-1.83882 3.62305,-3.16016 z m -27.44532,0.75196 4.63868,8.75976 c 0.33066,2.34133 1.47857,4.41979 3.14257,5.95313 l 4.66016,8.79101 c -2.38,-0.31333 -4.61345,-1.1399 -6.55078,-2.36523 L 779.49707,365.952 c 0.08,-2.42134 0.70576,-4.69881 1.73242,-6.74414 z m -67.99218,1.91992 c -5.544,0 -10.0879,4.48911 -10.0879,10.03711 0,5.548 4.5439,10.04297 10.0879,10.04297 5.548,0 10.0371,-4.49497 10.0371,-10.04297 0,-5.548 -4.4891,-10.03711 -10.0371,-10.03711 z m -33.41602,0.54687 0,10.82227 1.69531,0 c 2.98267,0 5.41016,-2.43344 5.41016,-5.41211 0,-2.98 -2.42749,-5.41016 -5.41016,-5.41016 l -1.69531,0 z m 61.51562,0.004 0,10.8125 1.69141,0 c 2.98533,0 5.41211,-2.43292 5.41211,-5.40625 0,-2.98 -2.42678,-5.40625 -5.41211,-5.40625 l -1.69141,0 z m 62.56446,4.55859 2.9414,5.55469 c -1.39066,0.71733 -2.89432,1.24697 -4.48632,1.54297 l -3.17188,-5.99219 0.125,0 c 1.65067,0 3.21313,-0.3988 4.5918,-1.10547 z m -12.57813,3.06446 c 1.77867,1.624 4.13094,2.63215 6.71094,2.66015 l 3.16602,5.99414 c -0.98934,0.188 -2.00555,0.28906 -3.04688,0.28906 -0.74,1e-5 -1.46245,-0.057 -2.17578,-0.15429 l -4.6543,-8.78906 z m -11.82617,1.27148 7.62305,14.39453 c -4.592,-2.888 -7.64063,-7.9814 -7.64063,-13.80273 0,-0.2 0.007,-0.39847 0.0176,-0.5918 z m 26.36524,9.36914 c 3.06533,0.12 5.25241,1.85254 6.09375,4.92188 0.552,1.83466 1.04392,4.62608 1.05859,8.60742 l -7.15234,-13.5293 z m -6.46094,4.60938 4.97461,0 c 0.10666,0 0.22093,0.005 0.32226,0.0117 l 7.16602,13.5293 0,0.26172 c 0,3.98267 -0.23911,6.45948 -0.78711,8.27148 l -5.12305,-9.68554 c -0.0573,-1.736 -0.1617,-3.37006 -0.20703,-3.77539 -0.124,-1.68667 -0.93481,-2.9336 -2.24414,-2.9336 l -1.09375,0 -3.00781,-5.67968 z m -5.64063,4.61914 3.32813,0 3.00781,5.67968 -0.59375,0 0,8.89258 -5.74219,-10.85156 0,-3.7207 z m -113.78906,4.30664 c 5.43733,0 7.61543,3.93706 7.74609,8.92773 0.0627,2.124 0.0625,5.4336 0.0625,5.4336 l -5.56054,0 0,-4.4375 c 0,-2.55201 -0.55738,-4.05469 -2.24805,-4.05469 -1.68,0 -2.37109,1.25184 -2.37109,4.61719 0,3.81199 1.50121,7.12197 3.31054,10.05664 0.55734,0.87066 2.62188,4.17964 3.06055,4.93164 2.99067,4.93333 3.93164,8.92368 3.93164,15.04101 0,7.24667 -3.06135,10.1875 -8.05469,10.1875 -4.68533,0 -7.80468,-2.49512 -7.80468,-7.06445 l 0,-6.73242 5.49609,0 0,5.04687 c 0,2.38134 0.93081,3.13281 2.24414,3.13281 1.44133,0 2.31445,-0.877 2.31445,-4.625 0,-3.87333 -0.31338,-7.12276 -3.24804,-11.99609 -0.68934,-1.116 -2.43822,-3.99323 -2.93555,-4.86523 -2.93333,-4.80134 -4.05859,-8.17979 -4.05859,-13.67578 0,-6.42668 3.30723,-9.92383 8.11523,-9.92383 z m 13.22266,0.31445 5.8125,0 0,41.33203 c 0,2.61867 0.74654,3.37109 2.31054,3.37109 1.55734,1e-5 2.1211,-0.87773 2.1211,-3.3164 l 0,-41.38672 5.87109,0 0,42.20703 c 0,5.18533 -2.81243,8.11133 -7.87109,8.11133 -4.99334,0 -8.24414,-2.55133 -8.24414,-8.11133 l 0,-42.20703 z m 21.95312,0 7.61914,0 4.2461,35.64648 4.55664,-35.64648 7.37109,0 0,49.94531 -5.37109,0 0.0664,-34.27343 -4.125,34.27343 -4.99218,0 -4.0625,-34.21289 0.0664,34.21289 -5.375,0 0,-49.94531 z m 29.70899,0 7.61718,0 4.25196,35.64648 4.55664,-35.64648 7.36328,0 0,49.94531 -5.3711,0 0.0684,-34.27343 -4.12304,34.27343 -4.99219,0 -4.06055,-34.21289 0.0625,34.21289 -5.37304,0 0,-49.94531 z m 29.70898,0 13.92188,0 0,5.92773 -8.05469,0 0,16.04883 7.18359,0 0,5.61524 -7.18359,0 0,16.55273 8.11719,0 0,5.80078 -13.98438,0 0,-49.94531 z m 19.19531,3.71875 5.74219,10.85156 0,7.34375 c 0.0693,0 1.37981,1.7e-4 1.86914,-0.0625 0.75733,-0.14266 1.15078,-0.56532 1.41211,-1.08398 l 3.7168,7.01367 3.92969,22.16406 -5.81055,0 -3.73633,-22.5332 -1.44922,0 0,22.5332 -5.67383,0 0,-46.22656 z m 9.88477,4.05078 5.125,9.67969 c -0.0107,0.0333 -0.0201,0.061 -0.0254,0.0957 -0.50267,1.624 -1.7491,3.1201 -2.6211,3.4961 l 0.37696,2.11328 -3.7168,-7.00586 c 0.0853,-0.17067 0.14808,-0.35302 0.21875,-0.54102 0.36933,-1.05866 0.68164,-3.93152 0.68164,-5.74219 0,-0.66666 -0.0177,-1.38903 -0.0391,-2.0957 z M 683.49707,449.2392 c 5.49467,0 8.05402,2.87128 8.30469,8.86328 0.12267,2.13066 0.12305,11.1194 0.12305,16.05273 0,5.36533 -3.8e-4,13.54566 -0.12305,16.73633 -0.184,5.868 -2.62202,8.98828 -8.30469,8.98828 -5.55333,0 -8.04885,-2.93738 -8.24219,-8.74805 0,-1.49333 -0.0605,-12.16958 -0.0605,-16.79492 0,-4.61466 0.0605,-14.91335 0.0605,-15.91601 0.128,-5.49067 2.37552,-9.18164 8.24219,-9.18164 z m 53.61328,0 c 4.87067,0 7.37788,2.93864 7.56055,9.30664 l 0,7.86328 -5.68555,0 0,-8.79688 c -0.06,-1.88 -0.99842,-2.63086 -2.12109,-2.63086 -1.748,0 -2.56055,1.06917 -2.56055,3.0625 -0.0627,2.188 -0.0625,12.421 -0.0625,15.98633 0,4.61333 0.0631,15.04871 0.12305,16.35938 0.128,3.05333 1.00371,3.93164 2.37305,3.93164 1.19066,0 2.30859,-0.69498 2.30859,-4.18164 l 0,-7.49805 5.68164,0 0,8.55664 c 0,5.30933 -2.93195,8.68164 -8.11328,8.68164 -5.372,0 -7.7444,-2.88212 -8.17774,-7.43945 -0.316,-4.18134 -0.3164,-13.67049 -0.3164,-18.28516 0,-4.62667 0.12305,-14.67404 0.12305,-16.35937 0.31599,-6.11867 3.31652,-8.55664 8.86718,-8.55664 z m 21.2461,0 c 5.49733,0 8.05526,2.87128 8.30859,8.86328 0.12933,2.13066 0.12891,11.1194 0.12891,16.05273 0,5.36533 4.2e-4,13.54566 -0.12891,16.73633 -0.188,5.868 -2.61526,8.98828 -8.30859,8.98828 -5.552,0 -8.04967,-2.93738 -8.23633,-8.74805 0,-1.49333 -0.0625,-12.16958 -0.0625,-16.79492 0,-4.61466 0.0625,-14.91335 0.0625,-15.91601 0.11866,-5.49067 2.36966,-9.18164 8.23633,-9.18164 z m -60.70704,0.25 14.17579,0 0,5.93554 -8.30469,0 0,15.98438 7.49414,0 0,5.74219 -7.49414,0 0,22.28515 -5.8711,0 0,-49.94726 z m 74.86524,0 7.49219,0 c 4.12933,0 6.37326,1.56059 7.55859,4.80859 0.87467,2.43733 0.99609,13.41978 0.99609,19.03711 0,7.31333 -0.12054,19.60597 -1.06054,21.41797 -1.37734,2.68933 -2.37469,4.68359 -6.55469,4.68359 l -8.43164,0 0,-49.94726 z m 21.58984,0 13.92774,0 0,5.93554 -8.06055,0 0,16.04102 7.1875,0 0,5.61719 -7.1875,0 0,16.55273 8.12305,0 0,5.80078 -13.99024,0 0,-49.94726 z m -15.78125,5.24023 0,39.89844 2.30274,0 c 1.00133,0 1.94657,-0.75045 2.0039,-2.67578 0.0627,-2.06267 0.125,-16.93117 0.125,-18.67383 0,-1.744 -0.125,-13.1705 -0.125,-14.92383 -0.0573,-2.428 -1.18854,-3.625 -2.56054,-3.625 l -1.7461,0 z m -94.70312,0.19336 c -1.996,0 -2.18202,1.43633 -2.30469,3.875 -0.128,1.99333 -0.0664,12.2344 -0.0664,15.78906 0,3.74934 -0.0616,14.11669 0.0664,16.30469 0.12267,2.05067 0.49669,3.36133 2.30469,3.36133 1.692,0 2.18645,-1.49333 2.31445,-3.36133 0.0627,-2.06133 0.12305,-12.373 0.12305,-16.48633 0,-3.44133 -5.5e-4,-13.73909 -0.0606,-15.73242 -0.0627,-2.68933 -0.62762,-3.75 -2.37695,-3.75 z m 74.86914,0 c -1.99467,0 -2.18655,1.43633 -2.31055,3.875 -0.128,1.99333 -0.0625,12.2344 -0.0625,15.78906 0,3.74934 -0.0655,14.11669 0.0625,16.30469 0.124,2.05067 0.49855,3.36133 2.31055,3.36133 1.68533,0 2.18797,-1.49333 2.30664,-3.36133 0.0627,-2.06133 0.12109,-12.373 0.12109,-16.48633 0,-3.44133 -0.001,-13.73909 -0.0586,-15.73242 -0.0627,-2.68933 -0.62647,-3.75 -2.36914,-3.75 z"
       id="path14" />
  </g>
</svg>
