<?xml version="1.0" encoding="utf-8"?>
<!-- Generator: Adobe Illustrator 17.0.0, SVG Export Plug-In . SVG Version: 6.00 Build 0)  -->
<!DOCTYPE svg PUBLIC "-//W3C//DTD SVG 1.1//EN" "http://www.w3.org/Graphics/SVG/1.1/DTD/svg11.dtd">
<svg version="1.1" id="Layer_1" xmlns="http://www.w3.org/2000/svg" xmlns:xlink="http://www.w3.org/1999/xlink" x="0px" y="0px"
	 width="113.386px" height="113.386px" viewBox="0 0 113.386 113.386" enable-background="new 0 0 113.386 113.386"
	 xml:space="preserve">
<g>
	<rect x="0" y="0" width="113.386" height="113.386"/>
	<path fill="#FFFFFF" d="M30.914,65.431c-2.008,0-3.345-1.069-3.345-3.027v-2.886h2.355v2.163c0,1.021,0.399,1.343,0.962,1.343
		c0.618,0,0.992-0.376,0.992-1.982c0-1.66-0.134-3.052-1.392-5.14c-0.295-0.479-1.045-1.711-1.258-2.085
		c-1.257-2.058-1.739-3.506-1.739-5.861c0-2.754,1.417-4.253,3.478-4.253c2.33,0,3.264,1.687,3.32,3.826
		c0.027,0.91,0.027,2.329,0.027,2.329h-2.383v-1.902c0-1.094-0.239-1.738-0.964-1.738c-0.72,0-1.016,0.537-1.016,1.98
		c0,1.633,0.643,3.052,1.418,4.309c0.239,0.373,1.124,1.792,1.312,2.114c1.282,2.114,1.684,3.824,1.684,6.446
		C34.366,64.171,33.054,65.431,30.914,65.431"/>
	<path fill="#FFFFFF" d="M40.167,65.401c-2.14,0-3.533-1.094-3.533-3.476V43.836h2.49v17.713c0,1.123,0.32,1.445,0.99,1.445
		c0.668,0,0.909-0.376,0.909-1.421V43.836h2.516v18.089C43.54,64.147,42.335,65.401,40.167,65.401"/>
	<polygon fill="#FFFFFF" points="53.937,65.241 53.965,50.552 52.198,65.241 50.058,65.241 48.317,50.579 48.345,65.241 
		46.042,65.241 46.042,43.836 49.307,43.836 51.127,59.113 53.08,43.836 56.239,43.836 56.239,65.241 	"/>
	<polygon fill="#FFFFFF" points="66.667,65.241 66.696,50.552 64.929,65.241 62.79,65.241 61.05,50.579 61.077,65.241 
		58.774,65.241 58.774,43.836 62.039,43.836 63.86,59.113 65.813,43.836 68.97,43.836 68.97,65.241 	"/>
	<polygon fill="#FFFFFF" points="71.506,65.241 71.506,43.836 77.473,43.836 77.473,46.377 74.021,46.377 74.021,53.255 
		77.099,53.255 77.099,55.662 74.021,55.662 74.021,62.755 77.499,62.755 77.499,65.241 	"/>
	<path fill="#FFFFFF" d="M33.523,85.449c0.027-0.883,0.052-5.302,0.052-7.065c0-1.474,0-5.888-0.026-6.743
		c-0.027-1.152-0.27-1.607-1.019-1.607c-0.856,0-0.935,0.615-0.987,1.66c-0.055,0.854-0.028,5.244-0.028,6.767
		c0,1.607-0.027,6.05,0.028,6.987c0.052,0.879,0.212,1.441,0.987,1.441C33.256,86.89,33.468,86.25,33.523,85.449 M36.037,71.397
		c0.052,0.913,0.052,4.765,0.052,6.88c0,2.3,0,5.805-0.052,7.172c-0.079,2.515-1.124,3.853-3.559,3.853
		c-2.38,0-3.45-1.259-3.533-3.75c0-0.639-0.026-5.215-0.026-7.197c0-1.978,0.026-6.392,0.026-6.821
		c0.055-2.353,1.018-3.935,3.533-3.935C34.833,67.599,35.93,68.829,36.037,71.397"/>
	<polygon fill="#FFFFFF" points="41.059,70.25 41.059,77.1 44.271,77.1 44.271,79.561 41.059,79.561 41.059,89.112 38.543,89.112 
		38.543,67.706 44.619,67.706 44.619,70.25 	"/>
	<path fill="#FFFFFF" d="M58.719,85.582c0,2.275-1.256,3.72-3.477,3.72c-2.302,0-3.319-1.235-3.504-3.188
		c-0.136-1.792-0.136-5.859-0.136-7.836c0-1.983,0.052-6.289,0.052-7.012c0.136-2.622,1.421-3.667,3.8-3.667
		c2.087,0,3.161,1.259,3.24,3.989v3.369h-2.437v-3.769c-0.026-0.806-0.427-1.128-0.908-1.128c-0.749,0-1.097,0.459-1.097,1.313
		c-0.027,0.937-0.027,5.322-0.027,6.851c0,1.977,0.027,6.45,0.052,7.011c0.055,1.309,0.43,1.685,1.017,1.685
		c0.51,0,0.99-0.298,0.99-1.792v-3.213h2.434V85.582z"/>
	<path fill="#FFFFFF" d="M65.606,85.449c0.027-0.883,0.051-5.302,0.051-7.065c0-1.474,0-5.888-0.025-6.743
		c-0.027-1.152-0.269-1.607-1.016-1.607c-0.855,0-0.937,0.615-0.991,1.66c-0.055,0.854-0.027,5.244-0.027,6.767
		c0,1.607-0.028,6.05,0.027,6.987c0.054,0.879,0.214,1.441,0.991,1.441C65.339,86.89,65.554,86.25,65.606,85.449 M68.12,71.397
		c0.056,0.913,0.056,4.765,0.056,6.88c0,2.3,0,5.805-0.056,7.172c-0.08,2.515-1.121,3.853-3.56,3.853c-2.379,0-3.45-1.259-3.53-3.75
		c0-0.639-0.027-5.215-0.027-7.197c0-1.978,0.027-6.392,0.027-6.821c0.051-2.353,1.016-3.935,3.53-3.935
		C66.916,67.599,68.012,68.829,68.12,71.397"/>
	<path fill="#FFFFFF" d="M75.016,77.901c0-0.747-0.054-5.644-0.054-6.396c-0.025-1.04-0.51-1.553-1.098-1.553h-0.748v17.099h0.987
		c0.43,0,0.835-0.322,0.859-1.147C74.989,85.02,75.016,78.648,75.016,77.901 M74.241,89.112h-3.614V67.706h3.211
		c1.77,0,2.732,0.669,3.24,2.061c0.375,1.045,0.426,5.752,0.426,8.159c0,3.134-0.051,8.403-0.454,9.179
		C76.459,88.257,76.032,89.112,74.241,89.112"/>
	<polygon fill="#FFFFFF" points="79.88,89.112 79.88,67.706 85.849,67.706 85.849,70.25 82.394,70.25 82.394,77.125 85.475,77.125 
		85.475,79.532 82.394,79.532 82.394,86.626 85.875,86.626 85.875,89.112 	"/>
	<path fill="#FFFFFF" d="M82.995,53.201c-0.21,0.027-0.771,0.027-0.801,0.027v-3.147l-2.461-4.651v19.81h2.432v-9.657h0.621
		l1.602,9.657h2.49l-1.684-9.498L83.6,52.737C83.488,52.959,83.32,53.14,82.995,53.201"/>
	<path fill="#FFFFFF" d="M83.986,48.065c0,0.776-0.134,2.007-0.292,2.461c-0.03,0.081-0.057,0.159-0.094,0.232l1.593,3.003
		l-0.162-0.906c0.374-0.161,0.908-0.803,1.124-1.499c0.002-0.015,0.007-0.027,0.011-0.041l-2.196-4.148
		C83.978,47.469,83.986,47.779,83.986,48.065"/>
	<polygon fill="#FFFFFF" points="79.733,41.856 79.733,43.45 82.194,48.101 82.194,44.29 82.448,44.29 81.159,41.856 	"/>
	<path fill="#FFFFFF" d="M84.282,39.876H82.15l1.289,2.434h0.469c0.561,0,0.908,0.535,0.962,1.257
		c0.019,0.174,0.064,0.874,0.088,1.619l2.196,4.15c0.234-0.776,0.337-1.838,0.337-3.545c0-0.041,0-0.076,0-0.112l-3.071-5.798
		C84.377,39.879,84.327,39.876,84.282,39.876"/>
	<path fill="#FFFFFF" d="M84.919,37.901l3.066,5.798c-0.007-1.706-0.218-2.903-0.454-3.689
		C87.17,38.695,86.232,37.953,84.919,37.901"/>
	<path fill="#FFFFFF" d="M31.629,30.072h-0.727v4.639h0.727c1.278,0,2.318-1.042,2.318-2.319
		C33.947,31.114,32.908,30.072,31.629,30.072 M31.629,37.379h-0.727v3.479H28.23V27.404h3.399c2.75,0,4.99,2.236,4.99,4.988
		C36.62,35.14,34.38,37.379,31.629,37.379"/>
	<path fill="#FFFFFF" d="M45.223,38.443c2.378,0,4.303-1.926,4.303-4.304c0-2.378-1.925-4.301-4.303-4.301
		c-2.376,0-4.322,1.924-4.322,4.301C40.9,36.517,42.847,38.443,45.223,38.443 M45.223,41.131c-3.87,0-7.013-3.125-7.013-6.992
		c0-3.869,3.143-7.011,7.013-7.011c3.869,0,6.994,3.142,6.994,7.011C52.217,38.006,49.092,41.131,45.223,41.131"/>
	<path fill="#FFFFFF" d="M57.991,30.075h-0.725v4.634h0.725c1.279,0,2.319-1.042,2.319-2.317
		C60.31,31.114,59.27,30.075,57.991,30.075 M60.31,36.791l3.555,4.065H60.31l-3.044-3.476v3.476h-2.672V27.401h3.397
		c2.749,0,4.99,2.241,4.99,4.99C62.981,34.237,61.941,35.946,60.31,36.791"/>
	<polygon fill="#FFFFFF" points="65.197,27.401 65.197,30.075 67.436,30.075 67.436,40.855 70.105,40.855 70.105,30.075 
		71.601,30.075 70.187,27.401 	"/>
	<path fill="#FFFFFF" d="M73.612,34.139c0,2.495,1.307,4.678,3.274,5.915l-3.267-6.169C73.616,33.968,73.612,34.054,73.612,34.139"
		/>
	<polygon fill="#FFFFFF" points="70.187,25.421 71.601,28.095 72.366,28.095 72.366,25.421 	"/>
	<path fill="#FFFFFF" d="M76.35,32.77l-1.988-3.755c-0.44,0.876-0.708,1.853-0.742,2.891l3.267,6.169
		c0.83,0.525,1.787,0.879,2.807,1.013l-1.997-3.767C76.984,34.664,76.492,33.773,76.35,32.77"/>
	<path fill="#FFFFFF" d="M75.349,27.035l1.99,3.755c-0.027-0.198-0.047-0.403-0.047-0.61c0-0.881,0.271-1.704,0.732-2.387
		l-1.362-2.566C76.134,25.753,75.688,26.364,75.349,27.035"/>
	<path fill="#FFFFFF" d="M78.688,33.341l1.994,3.767c0.306,0.042,0.616,0.066,0.933,0.066c0.446,0,0.882-0.044,1.306-0.124
		l-1.357-2.568C80.458,34.469,79.45,34.037,78.688,33.341"/>
	<path fill="#FFFFFF" d="M82.111,32.501c-0.019,0-0.035,0-0.054,0l1.359,2.568c0.682-0.127,1.326-0.354,1.922-0.662l-1.26-2.38
		C83.488,32.33,82.818,32.501,82.111,32.501"/>
	<path fill="#FFFFFF" d="M77.156,23.246l1.362,2.566c0.391-0.576,0.918-1.057,1.533-1.391l-1.264-2.39
		C78.186,22.355,77.639,22.765,77.156,23.246"/>
	<path fill="#FFFFFF" d="M79.279,20.051l1.269,2.39c0.59-0.322,1.27-0.508,1.992-0.52l-1.357-2.566
		C80.509,19.496,79.87,19.731,79.279,20.051"/>
	<path fill="#FFFFFF" d="M84.572,30.048l1.26,2.378c0.605-0.313,1.157-0.715,1.641-1.187l-1.348-2.546
		C85.727,29.259,85.192,29.728,84.572,30.048"/>
	<path fill="#FFFFFF" d="M87.401,24.242c0,0.918-0.29,1.773-0.783,2.468l1.353,2.549c0.532-0.515,0.981-1.115,1.328-1.78
		l-1.914-3.613C87.396,23.988,87.401,24.113,87.401,24.242"/>
	<path fill="#FFFFFF" d="M83.1,17.228c-0.485,0-0.962,0.054-1.423,0.149l1.357,2.563c0.025,0,0.047-0.003,0.066-0.003
		c1.03,0,1.978,0.364,2.718,0.969l-1.924-3.633C83.634,17.245,83.371,17.228,83.1,17.228"/>
	<path fill="#FFFFFF" d="M84.391,15.295l1.922,3.633c0.876,0.713,1.462,1.765,1.567,2.959l1.912,3.613
		c0.444-0.85,0.722-1.799,0.783-2.812l-3.423-6.462C86.325,15.737,85.39,15.407,84.391,15.295"/>
	<path fill="#FFFFFF" d="M87.648,14.738l3.423,6.465c0.01-0.142,0.015-0.286,0.015-0.427C91.085,18.205,89.706,15.959,87.648,14.738
		"/>
</g>
</svg>
