<?xml version="1.0" encoding="UTF-8" standalone="no"?>
<svg width="65px" height="76px" viewBox="0 0 65 76" version="1.1" xmlns="http://www.w3.org/2000/svg" xmlns:xlink="http://www.w3.org/1999/xlink">
    <!-- Generator: Sketch 42 (36781) - http://www.bohemiancoding.com/sketch -->
    <title>psc-logo-white</title>
    <desc>Created with Sketch.</desc>
    <defs></defs>
    <g id="Page-1" stroke="none" stroke-width="1" fill="none" fill-rule="evenodd">
        <g id="psc-logo-white" fill-rule="nonzero" fill="#FFFFFF">
            <g id="Group">
                <path d="M3.914,51.431 C1.906,51.431 0.569,50.362 0.569,48.404 L0.569,45.518 L2.924,45.518 L2.924,47.681 C2.924,48.702 3.323,49.024 3.886,49.024 C4.504,49.024 4.878,48.648 4.878,47.042 C4.878,45.382 4.744,43.99 3.486,41.902 C3.191,41.423 2.441,40.191 2.228,39.817 C0.971,37.759 0.489,36.311 0.489,33.956 C0.489,31.202 1.906,29.703 3.967,29.703 C6.297,29.703 7.231,31.39 7.287,33.529 C7.314,34.439 7.314,35.858 7.314,35.858 L4.931,35.858 L4.931,33.956 C4.931,32.862 4.692,32.218 3.967,32.218 C3.247,32.218 2.951,32.755 2.951,34.198 C2.951,35.831 3.594,37.25 4.369,38.507 C4.608,38.88 5.493,40.299 5.681,40.621 C6.963,42.735 7.365,44.445 7.365,47.067 C7.366,50.171 6.054,51.431 3.914,51.431" id="Shape"></path>
                <path d="M13.167,51.401 C11.027,51.401 9.634,50.307 9.634,47.925 L9.634,29.836 L12.124,29.836 L12.124,47.549 C12.124,48.672 12.444,48.994 13.114,48.994 C13.782,48.994 14.023,48.618 14.023,47.573 L14.023,29.836 L16.539,29.836 L16.539,47.925 C16.54,50.147 15.335,51.401 13.167,51.401" id="Shape"></path>
                <polygon id="Shape" points="26.937 51.241 26.965 36.552 25.198 51.241 23.058 51.241 21.317 36.579 21.345 51.241 19.042 51.241 19.042 29.836 22.307 29.836 24.127 45.113 26.08 29.836 29.239 29.836 29.239 51.241"></polygon>
                <polygon id="Shape" points="39.667 51.241 39.696 36.552 37.929 51.241 35.79 51.241 34.05 36.579 34.077 51.241 31.774 51.241 31.774 29.836 35.039 29.836 36.86 45.113 38.813 29.836 41.97 29.836 41.97 51.241"></polygon>
                <polygon id="Shape" points="44.506 51.241 44.506 29.836 50.473 29.836 50.473 32.377 47.021 32.377 47.021 39.255 50.099 39.255 50.099 41.662 47.021 41.662 47.021 48.755 50.499 48.755 50.499 51.241"></polygon>
                <path d="M6.523,71.449 C6.55,70.566 6.575,66.147 6.575,64.384 C6.575,62.91 6.575,58.496 6.549,57.641 C6.522,56.489 6.279,56.034 5.53,56.034 C4.674,56.034 4.595,56.649 4.543,57.694 C4.488,58.548 4.515,62.938 4.515,64.461 C4.515,66.068 4.488,70.511 4.543,71.448 C4.595,72.327 4.755,72.889 5.53,72.889 C6.256,72.89 6.468,72.25 6.523,71.449 M9.037,57.397 C9.089,58.31 9.089,62.162 9.089,64.277 C9.089,66.577 9.089,70.082 9.037,71.449 C8.958,73.964 7.913,75.302 5.478,75.302 C3.098,75.302 2.028,74.043 1.945,71.552 C1.945,70.913 1.919,66.337 1.919,64.355 C1.919,62.377 1.945,57.963 1.945,57.534 C2,55.181 2.963,53.599 5.478,53.599 C7.833,53.599 8.93,54.829 9.037,57.397" id="Shape"></path>
                <polygon id="Shape" points="14.059 56.25 14.059 63.1 17.271 63.1 17.271 65.561 14.059 65.561 14.059 75.112 11.543 75.112 11.543 53.706 17.619 53.706 17.619 56.25"></polygon>
                <path d="M31.719,71.582 C31.719,73.857 30.463,75.302 28.242,75.302 C25.94,75.302 24.923,74.067 24.738,72.114 C24.602,70.322 24.602,66.255 24.602,64.278 C24.602,62.295 24.654,57.989 24.654,57.266 C24.79,54.644 26.075,53.599 28.454,53.599 C30.541,53.599 31.615,54.858 31.694,57.588 L31.694,60.957 L29.257,60.957 L29.257,57.188 C29.231,56.382 28.83,56.06 28.349,56.06 C27.6,56.06 27.252,56.519 27.252,57.373 C27.225,58.31 27.225,62.695 27.225,64.224 C27.225,66.201 27.252,70.674 27.277,71.235 C27.332,72.544 27.707,72.92 28.294,72.92 C28.804,72.92 29.284,72.622 29.284,71.128 L29.284,67.915 L31.718,67.915 L31.718,71.582 L31.719,71.582 Z" id="Shape"></path>
                <path d="M38.606,71.449 C38.633,70.566 38.657,66.147 38.657,64.384 C38.657,62.91 38.657,58.496 38.632,57.641 C38.605,56.489 38.363,56.034 37.616,56.034 C36.761,56.034 36.679,56.649 36.625,57.694 C36.57,58.548 36.598,62.938 36.598,64.461 C36.598,66.068 36.57,70.511 36.625,71.448 C36.679,72.327 36.839,72.889 37.616,72.889 C38.339,72.89 38.554,72.25 38.606,71.449 M41.12,57.397 C41.176,58.31 41.176,62.162 41.176,64.277 C41.176,66.577 41.176,70.082 41.12,71.449 C41.04,73.964 39.999,75.302 37.56,75.302 C35.181,75.302 34.11,74.043 34.03,71.552 C34.03,70.913 34.003,66.337 34.003,64.355 C34.003,62.377 34.03,57.963 34.03,57.534 C34.081,55.181 35.046,53.599 37.56,53.599 C39.916,53.599 41.012,54.829 41.12,57.397" id="Shape"></path>
                <path d="M48.016,63.901 C48.016,63.154 47.962,58.257 47.962,57.505 C47.937,56.465 47.452,55.952 46.864,55.952 L46.116,55.952 L46.116,73.051 L47.103,73.051 C47.533,73.051 47.938,72.729 47.962,71.904 C47.989,71.02 48.016,64.648 48.016,63.901 M47.241,75.112 L43.627,75.112 L43.627,53.706 L46.838,53.706 C48.608,53.706 49.57,54.375 50.078,55.767 C50.453,56.812 50.504,61.519 50.504,63.926 C50.504,67.06 50.453,72.329 50.05,73.105 C49.459,74.257 49.032,75.112 47.241,75.112" id="Shape"></path>
                <polygon id="Shape" points="52.88 75.112 52.88 53.706 58.849 53.706 58.849 56.25 55.394 56.25 55.394 63.125 58.475 63.125 58.475 65.532 55.394 65.532 55.394 72.626 58.875 72.626 58.875 75.112"></polygon>
                <path d="M55.995,39.201 C55.785,39.228 55.224,39.228 55.194,39.228 L55.194,36.081 L52.733,31.43 L52.733,51.24 L55.165,51.24 L55.165,41.583 L55.786,41.583 L57.388,51.24 L59.878,51.24 L58.194,41.742 L56.6,38.737 C56.488,38.959 56.32,39.14 55.995,39.201" id="Shape"></path>
                <path d="M56.986,34.065 C56.986,34.841 56.852,36.072 56.694,36.526 C56.664,36.607 56.637,36.685 56.6,36.758 L58.193,39.761 L58.031,38.855 C58.405,38.694 58.939,38.052 59.155,37.356 C59.157,37.341 59.162,37.329 59.166,37.315 L56.97,33.167 C56.978,33.469 56.986,33.779 56.986,34.065" id="Shape"></path>
                <polygon id="Shape" points="52.733 27.856 52.733 29.45 55.194 34.101 55.194 30.29 55.448 30.29 54.159 27.856"></polygon>
                <path d="M57.282,25.876 L55.15,25.876 L56.439,28.31 L56.908,28.31 C57.469,28.31 57.816,28.845 57.87,29.567 C57.889,29.741 57.934,30.441 57.958,31.186 L60.154,35.336 C60.388,34.56 60.491,33.498 60.491,31.791 L60.491,31.679 L57.42,25.881 C57.377,25.879 57.327,25.876 57.282,25.876" id="Shape"></path>
                <path d="M57.919,23.901 L60.985,29.699 C60.978,27.993 60.767,26.796 60.531,26.01 C60.17,24.695 59.232,23.953 57.919,23.901" id="Shape"></path>
                <path d="M4.629,16.072 L3.902,16.072 L3.902,20.711 L4.629,20.711 C5.907,20.711 6.947,19.669 6.947,18.392 C6.947,17.114 5.908,16.072 4.629,16.072 M4.629,23.379 L3.902,23.379 L3.902,26.858 L1.23,26.858 L1.23,13.404 L4.629,13.404 C7.379,13.404 9.619,15.64 9.619,18.392 C9.62,21.14 7.38,23.379 4.629,23.379" id="Shape"></path>
                <path d="M18.223,24.443 C20.601,24.443 22.526,22.517 22.526,20.139 C22.526,17.761 20.601,15.838 18.223,15.838 C15.847,15.838 13.901,17.762 13.901,20.139 C13.9,22.517 15.847,24.443 18.223,24.443 M18.223,27.131 C14.353,27.131 11.21,24.006 11.21,20.139 C11.21,16.27 14.353,13.128 18.223,13.128 C22.092,13.128 25.217,16.27 25.217,20.139 C25.217,24.006 22.092,27.131 18.223,27.131" id="Shape"></path>
                <path d="M30.991,16.075 L30.266,16.075 L30.266,20.709 L30.991,20.709 C32.27,20.709 33.31,19.667 33.31,18.392 C33.31,17.114 32.27,16.075 30.991,16.075 M33.31,22.791 L36.865,26.856 L33.31,26.856 L30.266,23.38 L30.266,26.856 L27.594,26.856 L27.594,13.401 L30.991,13.401 C33.74,13.401 35.981,15.642 35.981,18.391 C35.981,20.237 34.941,21.946 33.31,22.791" id="Shape"></path>
                <polygon id="Shape" points="38.197 13.401 38.197 16.075 40.436 16.075 40.436 26.855 43.105 26.855 43.105 16.075 44.601 16.075 43.187 13.401"></polygon>
                <path d="M46.612,20.139 C46.612,22.634 47.919,24.817 49.886,26.054 L46.619,19.885 C46.616,19.968 46.612,20.054 46.612,20.139" id="Shape"></path>
                <polygon id="Shape" points="43.187 11.421 44.601 14.095 45.366 14.095 45.366 11.421"></polygon>
                <path d="M49.35,18.77 L47.362,15.015 C46.922,15.891 46.654,16.868 46.62,17.906 L49.887,24.075 C50.717,24.6 51.674,24.954 52.694,25.088 L50.697,21.321 C49.984,20.664 49.492,19.773 49.35,18.77" id="Shape"></path>
                <path d="M48.349,13.035 L50.339,16.79 C50.312,16.592 50.292,16.387 50.292,16.18 C50.292,15.299 50.563,14.476 51.024,13.793 L49.662,11.227 C49.134,11.753 48.688,12.364 48.349,13.035" id="Shape"></path>
                <path d="M51.688,19.341 L53.682,23.108 C53.988,23.15 54.298,23.174 54.615,23.174 C55.061,23.174 55.497,23.13 55.921,23.05 L54.564,20.482 C53.458,20.469 52.45,20.037 51.688,19.341" id="Shape"></path>
                <path d="M55.111,18.501 L55.057,18.501 L56.416,21.069 C57.098,20.942 57.742,20.715 58.338,20.407 L57.078,18.027 C56.488,18.33 55.818,18.501 55.111,18.501" id="Shape"></path>
                <path d="M50.156,9.246 L51.518,11.812 C51.909,11.236 52.436,10.755 53.051,10.421 L51.787,8.031 C51.186,8.355 50.639,8.765 50.156,9.246" id="Shape"></path>
                <path d="M52.279,6.051 L53.548,8.441 C54.138,8.119 54.818,7.933 55.54,7.921 L54.183,5.355 C53.509,5.496 52.87,5.731 52.279,6.051" id="Shape"></path>
                <path d="M57.572,16.048 L58.832,18.426 C59.437,18.113 59.989,17.711 60.473,17.239 L59.125,14.693 C58.727,15.259 58.192,15.728 57.572,16.048" id="Shape"></path>
                <path d="M60.401,10.242 C60.401,11.16 60.111,12.015 59.618,12.71 L60.971,15.259 C61.503,14.744 61.952,14.144 62.299,13.479 L60.385,9.866 C60.396,9.988 60.401,10.113 60.401,10.242" id="Shape"></path>
                <path d="M56.1,3.228 C55.615,3.228 55.138,3.282 54.677,3.377 L56.034,5.94 C56.059,5.94 56.081,5.937 56.1,5.937 C57.13,5.937 58.078,6.301 58.818,6.906 L56.894,3.273 C56.634,3.245 56.371,3.228 56.1,3.228" id="Shape"></path>
                <path d="M57.391,1.295 L59.313,4.928 C60.189,5.641 60.775,6.693 60.88,7.887 L62.792,11.5 C63.236,10.65 63.514,9.701 63.575,8.688 L60.152,2.226 C59.325,1.737 58.39,1.407 57.391,1.295" id="Shape"></path>
                <path d="M60.648,0.738 L64.071,7.203 C64.081,7.061 64.086,6.917 64.086,6.776 C64.085,4.205 62.706,1.959 60.648,0.738" id="Shape"></path>
            </g>
        </g>
    </g>
</svg>