<?xml version="1.0" encoding="UTF-8" standalone="no"?>
<svg width="592px" height="246px" viewBox="0 0 592 246" version="1.1" xmlns="http://www.w3.org/2000/svg" xmlns:xlink="http://www.w3.org/1999/xlink">
    <!-- Generator: Sketch 45.2 (43514) - http://www.bohemiancoding.com/sketch -->
    <title>sponsor-i2s</title>
    <desc>Created with Sketch.</desc>
    <defs></defs>
    <g id="Page-1" stroke="none" stroke-width="1" fill="none" fill-rule="evenodd">
        <g id="sponsor-i2s" transform="translate(0.000000, -1.000000)">
            <g id="Group-52" transform="translate(0.000000, 0.893000)">
                <path d="M178.6779,185.9467 C177.5699,185.9467 176.9559,186.7237 176.9559,188.0917 L176.9559,213.6617 C176.9559,215.0217 177.5699,215.7927 178.6779,215.7927 C179.7859,215.7927 180.4159,215.0217 180.4159,213.6617 L180.4159,188.0917 C180.4159,186.7237 179.7859,185.9467 178.6779,185.9467" id="Fill-2" fill="#5F6062"></path>
                <path d="M205.62,185.9467 C204.508,185.9467 203.878,186.7237 203.878,188.0917 L203.878,209.1377 L188.864,187.1117 C188.418,186.5357 187.898,185.9467 186.937,185.9467 C185.87,185.9467 185.179,186.7237 185.179,187.9257 L185.179,213.6617 C185.179,215.0217 185.834,215.7927 186.937,215.7927 C188.025,215.7927 188.676,215.0217 188.676,213.6617 L188.676,192.3337 L203.915,214.6417 C204.397,215.3367 204.794,215.7927 205.71,215.7927 C206.814,215.7927 207.379,215.1137 207.379,213.7417 L207.379,188.0917 C207.379,186.7237 206.74,185.9467 205.62,185.9467" id="Fill-4" fill="#5F6062"></path>
                <path d="M219.9521,198.1974 C216.8771,197.0504 214.2151,196.0774 214.2151,193.3924 C214.2151,191.0374 216.4191,189.1694 219.1591,189.1694 C220.9131,189.1694 221.8981,189.8254 222.8061,190.3974 C223.4521,190.8434 224.0161,191.1994 224.7071,191.1994 C225.4151,191.1994 226.1961,190.3974 226.1961,189.3734 C226.1961,187.7874 222.5691,185.9464 219.3391,185.9464 C215.2371,186.0574 210.7521,188.4984 210.7521,193.5894 C210.7521,198.3954 214.8081,199.9204 218.3731,201.2474 C221.4811,202.4034 224.4421,203.5094 224.4421,206.5824 C224.4421,209.4624 221.9881,212.5584 218.0871,212.5584 C216.1171,212.5584 213.7411,211.3924 213.4831,211.1704 C213.1231,210.8534 212.3421,210.3924 211.9091,210.3924 C210.9931,210.3924 210.2861,211.1704 210.2861,212.0834 C210.2861,213.8764 213.5851,215.7924 218.5041,215.7924 C224.0161,215.7924 227.9091,211.9304 227.9091,206.3734 C227.9091,201.1434 223.6811,199.5774 219.9521,198.1974" id="Fill-6" fill="#5F6062"></path>
                <path d="M251.2576,185.9467 C250.1416,185.9467 249.5076,186.7237 249.5076,188.0917 L249.5076,205.1407 C249.5076,210.6197 245.4226,212.5577 241.8976,212.5577 C238.3776,212.5577 234.2966,210.6197 234.2966,205.1407 L234.2966,188.0917 C234.2966,186.7237 233.6506,185.9467 232.5466,185.9467 C231.4466,185.9467 230.8246,186.7237 230.8246,188.0917 L230.8246,205.4877 C230.8246,212.5577 236.5776,215.7927 241.8976,215.7927 C247.2586,215.7927 252.9956,212.5577 252.9956,205.4877 L252.9956,188.0917 C252.9956,186.7237 252.3446,185.9467 251.2576,185.9467" id="Fill-8" fill="#5F6062"></path>
                <path d="M266.0269,199.7102 L261.2309,199.7102 L261.2309,189.4062 L266.0269,189.4062 C269.7969,189.4062 271.7429,191.2282 271.7429,194.8072 C271.7429,198.8552 268.6279,199.7102 266.0269,199.7102 L266.0269,199.7102 Z M265.1929,202.6672 L267.2209,202.6672 C271.8329,202.6672 275.2029,199.1622 275.2029,194.2842 C275.2029,190.2692 272.1159,186.1942 266.2149,186.1942 L259.8609,186.1942 C258.4419,186.1942 257.7549,186.7812 257.7549,187.9992 L257.7549,213.6622 C257.7549,215.0212 258.4219,215.7922 259.5049,215.7922 C260.5969,215.7922 261.2309,215.0212 261.2309,213.6622 L261.2309,203.1742 L272.2909,215.0622 C272.7569,215.5962 273.2069,215.7922 273.7719,215.7922 C274.5319,215.7922 275.3539,215.2202 275.3539,214.3122 C275.3539,213.6232 275.1819,213.3202 274.7039,212.8632 L265.1929,202.6672 Z" id="Fill-10" fill="#5F6062"></path>
                <path d="M294.3964,206.0667 L283.1024,206.0667 L288.7204,190.7267 L294.3964,206.0667 Z M291.2444,188.2017 C290.8634,187.2597 290.4014,185.9467 288.7204,185.9467 C287.1054,185.9467 286.5944,187.2247 286.1934,188.2307 L276.9484,213.0747 C276.7644,213.5307 276.6504,214.0567 276.6504,214.3857 C276.6504,215.2197 277.2924,215.7927 278.2284,215.7927 C279.3404,215.7927 279.7004,215.1137 280.0894,214.2897 L281.9334,209.2867 L295.5334,209.2867 L297.3974,214.2977 C297.6924,215.0587 298.0884,215.7927 299.2534,215.7927 C300.1654,215.7927 300.8284,215.2197 300.8284,214.3857 C300.8284,214.0567 300.7054,213.5207 300.5424,213.0797 L291.2444,188.2017 Z" id="Fill-12" fill="#5F6062"></path>
                <path d="M323.9353,185.9467 C322.8393,185.9467 322.2263,186.7237 322.2263,188.0917 L322.2263,209.1377 L307.1783,187.1117 C306.7773,186.5357 306.1853,185.9467 305.2403,185.9467 C304.1653,185.9467 303.4823,186.7237 303.4823,187.9257 L303.4823,213.6617 C303.4823,215.0217 304.1363,215.7927 305.2403,215.7927 C306.3323,215.7927 306.9983,215.0217 306.9983,213.6617 L306.9983,192.3337 L322.2263,214.6417 C322.7123,215.3367 323.1093,215.7927 324.0373,215.7927 C325.1213,215.7927 325.6853,215.1137 325.6853,213.7417 L325.6853,188.0917 C325.6853,186.7237 325.0353,185.9467 323.9353,185.9467" id="Fill-14" fill="#5F6062"></path>
                <path d="M350.3582,209.7405 C349.9412,209.7405 349.5202,210.0395 348.9522,210.4435 C347.8352,211.3065 346.1012,212.5585 342.7042,212.5585 C335.6172,212.5585 333.1022,206.7415 333.1022,201.2825 C333.1022,195.3305 336.5042,189.1695 342.1762,189.1695 C345.2672,189.1695 346.9272,190.5485 348.0272,191.4625 C348.6812,191.9745 349.1642,192.3705 349.6672,192.3705 C350.4362,192.3705 351.2332,191.6855 351.2332,190.5485 C351.2332,188.8235 347.0182,185.9465 342.2372,185.9465 C333.4092,185.9465 329.4062,193.8995 329.4062,201.2825 C329.4062,208.2975 332.8572,215.7925 342.5442,215.7925 C347.9212,215.7925 351.8422,212.9465 351.8422,211.4725 C351.8422,210.3805 351.2982,209.7405 350.3582,209.7405" id="Fill-16" fill="#5F6062"></path>
                <path d="M366.4691,212.329 L357.8901,212.329 L357.8901,202.528 L365.6841,202.528 C366.7221,202.528 367.4911,201.836 367.4911,200.906 C367.4911,199.997 366.7221,199.31 365.6841,199.31 L357.9431,199.31 L357.9431,189.406 L366.0481,189.406 C367.0821,189.406 367.8631,188.707 367.8631,187.811 C367.8631,186.881 367.0821,186.194 366.0481,186.194 L356.4961,186.194 C355.1341,186.194 354.4471,186.781 354.4471,188 L354.4471,213.742 C354.4471,214.956 355.1341,215.559 356.4961,215.559 L366.4691,215.559 C367.4911,215.559 368.2681,214.87 368.2681,213.946 C368.2681,213.02 367.4911,212.329 366.4691,212.329" id="Fill-18" fill="#5F6062"></path>
                <path d="M388.3656,200.0356 L400.7676,188.9016 C401.3766,188.3796 401.5036,187.9836 401.5036,187.4266 C401.5036,186.6966 400.9806,185.9466 399.9706,185.9466 C399.2546,185.9466 398.7106,186.3126 398.0236,186.9916 L385.5646,198.1976 L385.5646,188.0916 C385.5646,186.7236 384.9426,185.9466 383.8556,185.9466 C382.7346,185.9466 382.0966,186.7236 382.0966,188.0916 L382.0966,213.6626 C382.0966,215.0216 382.7346,215.7926 383.8556,215.7926 C384.9426,215.7926 385.5646,215.0216 385.5646,213.6626 L385.5646,201.9596 L398.9686,214.7436 C399.5896,215.3736 400.1586,215.7926 400.8776,215.7926 C401.9126,215.7926 402.4976,215.0216 402.4976,214.2736 C402.4976,213.8766 402.2966,213.2736 401.7486,212.7706 L388.3656,200.0356 Z" id="Fill-20" fill="#5F6062"></path>
                <path d="M425.0315,185.9467 C423.9075,185.9467 423.2815,186.7237 423.2815,188.0917 L423.2815,209.1377 L408.2505,187.1117 C407.8245,186.5357 407.2685,185.9467 406.3325,185.9467 C405.2575,185.9467 404.5825,186.7237 404.5825,187.9257 L404.5825,213.6617 C404.5825,215.0217 405.2405,215.7927 406.3325,215.7927 C407.3875,215.7927 408.0455,215.0217 408.0455,213.6617 L408.0455,192.3337 L423.2935,214.6417 C423.7925,215.3367 424.1855,215.7927 425.0885,215.7927 C426.1685,215.7927 426.7495,215.1137 426.7495,213.7417 L426.7495,188.0917 C426.7495,186.7237 426.1315,185.9467 425.0315,185.9467" id="Fill-22" fill="#5F6062"></path>
                <path d="M442.9579,212.558 C436.4689,212.558 434.1869,206.279 434.1869,200.876 C434.1869,195.486 436.4689,189.169 442.9579,189.169 C449.4549,189.169 451.7609,195.486 451.7609,200.876 C451.7609,206.279 449.4549,212.558 442.9579,212.558 M442.9579,185.947 C434.3749,185.947 430.4779,193.677 430.4779,200.876 C430.4779,208.068 434.3749,215.793 442.9579,215.793 C451.5569,215.793 455.4579,208.068 455.4579,200.876 C455.4579,193.677 451.5569,185.947 442.9579,185.947" id="Fill-24" fill="#5F6062"></path>
                <path d="M487.3603,185.9467 C486.3303,185.9467 485.6873,186.5357 485.4953,187.6377 L481.7743,211.0327 L475.1053,187.5277 C475.0033,187.1427 474.6473,185.9467 473.2983,185.9467 C471.9693,185.9467 471.6343,187.1427 471.4993,187.5277 L464.8623,211.0327 L461.1173,187.6207 C460.9043,186.5357 460.2863,185.9467 459.2563,185.9467 C458.3123,185.9467 457.6623,186.5357 457.6623,187.4267 C457.6623,187.7887 457.7183,188.1757 458.1603,190.4757 L462.2293,213.9567 C462.4543,215.2197 463.6393,215.7927 464.6543,215.7927 C465.9213,215.7927 466.7593,215.1827 467.0953,213.9827 L473.2983,191.6857 L479.3743,213.9827 C479.6933,215.1707 480.5433,215.7927 481.8113,215.7927 C482.8333,215.7927 483.9743,215.2197 484.2073,213.9567 L488.4683,190.4757 C488.6893,189.3117 488.9543,187.8277 488.9543,187.4267 C488.9543,186.5357 488.3173,185.9467 487.3603,185.9467" id="Fill-26" fill="#5F6062"></path>
                <path d="M502.9595,212.329 L495.6605,212.329 L495.6605,188.091 C495.6605,186.724 495.0435,185.947 493.9395,185.947 C492.8275,185.947 492.1975,186.724 492.1975,188.091 L492.1975,213.825 C492.1975,214.77 492.9825,215.559 493.9395,215.559 L502.9595,215.559 C504.0265,215.559 504.8035,214.87 504.8035,213.946 C504.8035,213.02 504.0265,212.329 502.9595,212.329" id="Fill-28" fill="#5F6062"></path>
                <path d="M519.1724,212.329 L510.6304,212.329 L510.6304,202.528 L518.4124,202.528 C519.4344,202.528 520.2114,201.836 520.2114,200.906 C520.2114,199.997 519.4344,199.31 518.4124,199.31 L510.6594,199.31 L510.6594,189.406 L518.7674,189.406 C519.7984,189.406 520.5624,188.707 520.5624,187.811 C520.5624,186.881 519.7984,186.194 518.7674,186.194 L509.2154,186.194 C507.8174,186.194 507.1674,186.781 507.1674,188 L507.1674,213.742 C507.1674,214.956 507.8174,215.559 509.2154,215.559 L519.1724,215.559 C520.2074,215.559 520.9714,214.87 520.9714,213.946 C520.9714,213.02 520.2074,212.329 519.1724,212.329" id="Fill-30" fill="#5F6062"></path>
                <path d="M543.1626,200.5648 C543.1626,205.9158 541.5806,212.3288 533.9946,212.3288 L528.6056,212.3288 L528.6056,189.4058 L534.1426,189.4058 C540.8076,189.4058 543.1626,195.1508 543.1626,200.5648 M534.3916,186.1938 L527.1706,186.1938 C525.7766,186.1938 525.1096,186.7808 525.1096,187.9998 L525.1096,213.7418 C525.1096,214.9568 525.7766,215.5598 527.1706,215.5598 L534.1426,215.5598 C541.6416,215.5598 546.8716,209.5918 546.8716,201.0698 C546.8716,193.6708 543.0236,186.1938 534.3916,186.1938" id="Fill-32" fill="#5F6062"></path>
                <path d="M571.7159,198.7823 L566.1759,198.7823 C565.1039,198.7823 564.3519,199.4383 564.3519,200.3893 C564.3519,201.2953 565.1449,201.9943 566.1759,201.9943 L570.9919,201.9943 C570.9559,205.3783 569.9949,212.5583 562.6839,212.5583 C555.7449,212.5583 553.2549,206.5203 553.2549,200.8763 C553.2549,195.2283 556.1409,189.1693 562.5319,189.1693 C565.7099,189.1693 567.5369,190.5223 568.9359,191.4993 C569.6879,192.0663 570.2319,192.4503 570.7799,192.4503 C571.6139,192.4503 572.5049,191.8983 572.5049,190.6243 C572.5049,189.2303 568.1949,185.9463 562.3689,185.9463 C553.5329,185.9463 549.5409,193.6773 549.5409,200.8763 C549.5409,207.7683 552.9269,215.7923 562.4499,215.7923 C570.3999,215.7923 574.4599,210.9103 574.4599,201.2823 C574.4599,199.6163 573.5519,198.7823 571.7159,198.7823" id="Fill-34" fill="#5F6062"></path>
                <path d="M589.5891,212.329 L581.0551,212.329 L581.0551,202.528 L588.8241,202.528 C589.8421,202.528 590.6441,201.836 590.6441,200.906 C590.6441,199.997 589.8421,199.31 588.8241,199.31 L581.0721,199.31 L581.0721,189.406 L589.1681,189.406 C590.2231,189.406 590.9951,188.707 590.9951,187.811 C590.9951,186.881 590.2231,186.194 589.1681,186.194 L579.6611,186.194 C578.2541,186.194 577.5841,186.781 577.5841,188 L577.5841,213.742 C577.5841,214.956 578.2541,215.559 579.6611,215.559 L589.5891,215.559 C590.6151,215.559 591.4001,214.87 591.4001,213.946 C591.4001,213.02 590.6151,212.329 589.5891,212.329" id="Fill-36" fill="#5F6062"></path>
                <path d="M161.9168,186.1736 C160.8418,186.1736 160.2078,186.9526 160.2078,188.3226 L160.2078,243.6016 C160.2078,244.9546 160.8418,245.7316 161.9168,245.7486 C163.0458,245.7486 163.6838,244.9546 163.6838,243.6016 L163.6838,188.3226 C163.6838,186.9526 163.0458,186.1736 161.9168,186.1736" id="Fill-38" fill="#00A0E1"></path>
                <path d="M12.1658,35.0689 C5.8118,35.0689 0.6718,40.0539 0.2418,46.3059 L0.1608,46.3059 L0.1608,142.6359 L0.1608,144.0819 C0.1608,150.7219 5.5288,156.0949 12.1658,156.0949 C18.8228,156.0949 24.1958,150.7219 24.1958,144.0819 L24.1958,142.6359 L24.1958,46.3059 L24.1258,46.3059 C23.7128,40.0539 18.5158,35.0689 12.1658,35.0689" id="Fill-40" fill="#5F6062"></path>
                <path d="M12.1658,25.325 C18.8228,25.325 24.1958,19.964 24.1958,13.299 C24.1958,6.665 18.8228,1.263 12.1658,1.263 C5.5288,1.263 0.1608,6.665 0.1608,13.299 C0.1608,19.964 5.5288,25.325 12.1658,25.325" id="Fill-42" fill="#5F6062"></path>
                <path d="M229.8065,69.758 L229.8145,69.758 C229.7695,69.758 229.7575,69.735 229.7415,69.725 C229.1975,69.486 228.6695,69.245 228.1625,68.991 C228.1015,68.963 228.0195,68.934 227.9625,68.901 C224.3435,67.245 220.7285,65.702 217.2535,64.207 C203.4075,58.217 191.8275,52.815 191.8275,42.38 C191.8275,32.728 201.2815,26.085 214.1135,26.085 C232.6275,26.085 237.7635,36.882 246.5635,36.882 C254.9745,36.882 259.7135,30.543 259.7135,24.489 C259.7135,18.699 256.8105,15.757 255.8455,14.966 C243.0995,4.418 226.9605,0.562 214.3455,0.562 C184.9585,0.562 163.5275,18.795 163.5275,43.449 C163.5275,51.746 165.7115,58.55 169.3545,64.207 C171.8325,68.01 172.4745,68.468 173.6605,69.758 C193.0665,90.89 233.1185,94.664 235.0735,113.243 C235.0975,113.696 235.1465,114.163 235.1465,114.651 C235.1465,126.435 224.8585,132.667 213.2785,132.667 C200.1165,132.667 189.1045,125.749 182.6275,120.486 C181.7565,119.767 178.6535,116.34 173.1735,116.34 C166.0465,116.34 160.2775,122.116 160.2775,129.23 C160.2775,135.701 164.7505,138.827 165.9895,139.948 C173.8035,146.916 189.8165,157.966 212.8535,157.966 C244.7765,157.966 263.4225,137.421 263.4505,113.243 L263.4505,113.144 C263.4505,89.17 246.9725,77.893 229.8065,69.758" id="Fill-44" fill="#00A0E1"></path>
                <path d="M133.0976,132.8166 L76.6816,132.8166 C72.6086,132.8166 70.8796,131.7376 70.8796,128.9626 C70.8796,101.3006 144.4526,98.2926 144.4526,46.8286 C144.4526,18.5306 121.7306,1.7926 95.1316,1.7926 C94.7226,1.7926 94.2936,1.7966 93.8966,1.8116 C81.2736,1.8116 65.0116,5.8486 52.2626,16.3946 C51.3136,17.1916 48.4266,20.1236 48.4266,25.9056 C48.4266,31.9696 53.1376,38.2996 61.5526,38.2996 C70.3156,38.2996 75.6066,27.6226 93.8966,27.5346 C93.9706,27.5346 94.0116,27.5296 94.0686,27.5296 C107.1616,27.5296 116.1536,35.2446 116.1536,47.2586 C116.1536,84.3576 41.7456,81.3526 41.7456,136.4656 C41.7456,150.8426 44.1006,156.6326 57.3776,156.6326 L132.5296,156.6326 C139.0956,156.6326 144.4166,151.2906 144.4166,144.7316 C144.4166,137.9766 138.8226,132.8166 133.0976,132.8166" id="Fill-46" fill="#5F6062"></path>
                <path d="M288.5558,4.2347 C281.8928,4.2347 276.4588,9.6547 276.4588,16.3177 C276.4588,22.9877 281.8928,28.4147 288.5558,28.4147 C295.2188,28.4147 300.6418,22.9877 300.6418,16.3177 C300.6418,9.6547 295.2188,4.2347 288.5558,4.2347 M288.5558,31.0027 C280.4638,31.0027 273.8738,24.4167 273.8738,16.3177 C273.8738,8.2257 280.4638,1.6457 288.5558,1.6457 C296.6448,1.6457 303.2278,8.2257 303.2278,16.3177 C303.2278,24.4167 296.6448,31.0027 288.5558,31.0027" id="Fill-48" fill="#00A0E1"></path>
                <path d="M286.6544,15.6307 L289.4024,15.6307 C291.5094,15.6307 292.4184,14.7427 292.4184,12.6467 C292.4184,11.1327 291.2314,9.8497 289.3574,9.8497 L286.6544,9.8497 L286.6544,15.6307 Z M286.6544,23.4517 C286.6544,24.1117 286.2724,24.5277 285.6544,24.5277 C285.0334,24.5277 284.6484,24.1117 284.6484,23.4517 L284.6484,9.2107 C284.6484,8.5937 284.9714,8.1147 285.7174,8.1147 L289.4474,8.1147 C292.0084,8.1147 294.4344,9.8497 294.4344,12.5007 C294.4344,15.7907 292.4184,17.0327 289.9994,17.1227 L289.1254,17.1437 L294.3164,22.8347 C294.5944,23.1327 294.7014,23.3827 294.7014,23.7507 C294.7014,24.1877 294.2924,24.5277 293.7924,24.5277 C293.3824,24.5277 293.1054,24.3197 292.8724,24.0697 L286.6544,17.2547 L286.6544,23.4517 Z" id="Fill-50" fill="#00A0E1"></path>
            </g>
        </g>
    </g>
</svg>