<?xml version="1.0" encoding="UTF-8"?>
<svg width="99px" height="100px" viewBox="0 0 99 100" version="1.1" xmlns="http://www.w3.org/2000/svg" xmlns:xlink="http://www.w3.org/1999/xlink">
    <!-- Generator: Sketch 49.1 (51147) - http://www.bohemiancoding.com/sketch -->
    <title>001-coffee-cup</title>
    <desc>Created with Sketch.</desc>
    <defs></defs>
    <g id="00_workshop_section" stroke="none" stroke-width="1" fill="none" fill-rule="evenodd">
        <g id="0001_workshops_section_2018" transform="translate(-337.000000, -560.000000)" fill-rule="nonzero">
            <g id="001-coffee-cup" transform="translate(337.000000, 560.000000)">
                <path d="M88.4654971,86.0387914 L67.4846004,86.0387914 C72.8296296,83.9038986 76.9169591,80.8668616 80.0331384,77.1888889 C92.7487329,75.2584795 98.4460039,64.7432749 98.4460039,55.0649123 C98.4460039,48.194347 94.620078,42.4578947 89.668616,41.4547758 C89.6690058,41.402729 89.6695906,41.3506823 89.6699805,41.2988304 C89.6699805,40.4384016 89.325731,39.5779727 88.6374269,38.8896686 C87.9491228,38.2013645 87.088694,37.857115 86.2282651,37.857115 L7.07270955,37.857115 C6.2122807,37.857115 5.35185185,38.2013645 4.66354776,38.8896686 C3.97524366,39.5779727 3.63099415,40.4384016 3.63099415,41.2988304 C3.76413255,59.805653 6.98791423,78.5183236 25.8163743,86.0389864 L4.66354776,86.0389864 C2.25438596,86.0389864 0.189473684,87.9317739 0.189473684,90.5130604 C0.189473684,92.5779727 1.56608187,94.1267057 3.97524366,94.642885 L25.8290448,96.1916179 C26.3452242,96.1916179 26.8615984,96.5358674 27.0335283,97.0520468 C27.8939571,98.7729045 29.6146199,99.8052632 31.5076023,99.8052632 L60.0725146,99.8052632 C61.9653021,99.8052632 63.6861598,98.7727096 64.3744639,97.0520468 C64.5465887,96.5358674 65.062768,96.1916179 65.5789474,96.1916179 L88.9814815,94.642885 L89.1536062,94.642885 C91.562768,94.1267057 92.9393762,92.5779727 92.9393762,90.5130604 C92.9393762,88.1037037 91.0465887,86.0387914 88.4654971,86.0387914 Z M89.6699805,45.0844055 C92.5953216,46.1169591 94.8323587,50.2467836 94.8323587,55.0649123 C94.8323587,61.7705653 91.7393762,69.8504873 83.1510721,72.7816764 C83.2949318,72.5374269 83.4356725,72.2912281 83.5734893,72.0430799 C88.3526316,63.7532164 89.3358674,53.7703704 89.6699805,45.0844055 Z M7.07270955,41.2986355 L86.22846,41.2986355 C86.0563353,64.5290448 81.0660819,86.0387914 46.6506823,86.0387914 C12.2352827,86.0387914 7.24483431,64.5290448 7.07270955,41.2986355 Z M88.8095517,91.2011696 L65.7510721,92.7499025 C64.0302144,92.9220273 62.4816764,93.954386 61.6212476,95.5031189 C61.2769981,96.0192982 60.7608187,96.3635478 60.2446394,96.3635478 L31.5077973,96.3635478 C30.9916179,96.3635478 30.4752437,96.0192982 30.1311891,95.5031189 C29.2707602,93.954386 27.7220273,92.9220273 26.0013645,92.7499025 L4.49161793,91.2011696 C3.63118908,91.0290448 3.63118908,90.6849903 3.63118908,90.5128655 C3.63118908,89.9966862 4.14736842,89.4803119 4.66374269,89.4803119 L88.6374269,89.4803119 C89.1536062,89.4803119 89.6699805,89.9964912 89.6699805,90.5128655 C89.6699805,90.6849903 89.6699805,91.0290448 88.8095517,91.2011696 Z" id="Shape" fill="#5D22EF"></path>
                <path d="M45.4460039,14.2824561 C42.8649123,16.8635478 41.4883041,19.4448343 41.4883041,22.1980507 C41.4883041,24.9512671 42.8649123,27.7044834 45.4460039,30.4576998 C45.7902534,30.8019493 46.134308,30.9738791 46.6504873,30.9738791 C47.1666667,30.9738791 47.5109162,30.8017544 47.8549708,30.4576998 C48.5432749,29.7693957 48.5432749,28.7368421 47.8549708,28.048538 C45.9621832,25.9836257 44.9296296,24.0908382 44.9296296,22.1978558 C44.9296296,20.3048733 45.9621832,18.4120858 47.8549708,16.691423 C50.4362573,14.2824561 51.8128655,11.5292398 51.8128655,8.77602339 C51.8128655,6.02280702 50.6083821,3.09746589 47.8551657,0.516374269 C47.1668616,-0.171929825 46.134308,-0.171929825 45.4460039,0.516374269 C44.7576998,1.20467836 44.7576998,2.23723197 45.4460039,2.92553606 C47.3387914,4.99044834 48.371345,6.88323587 48.371345,8.77621832 C48.371345,10.6692008 47.3387914,12.5615984 45.4460039,14.2824561 Z" id="Shape" fill="#BE55FA"></path>
                <path d="M60.4167641,22.1980507 C60.4167641,24.9512671 61.7933723,27.7044834 64.3744639,30.4576998 C64.7187135,30.8019493 65.062768,30.9738791 65.5789474,30.9738791 C65.9231969,30.9738791 66.4393762,30.8017544 66.611501,30.4576998 C67.2998051,29.7693957 67.2998051,28.7368421 66.611501,28.048538 C64.7187135,25.9836257 63.6861598,24.0908382 63.6861598,22.1978558 C63.6861598,20.3048733 64.7187135,18.4120858 66.611501,16.691423 C69.3647173,14.2822612 70.7413255,11.5290448 70.7413255,8.77582846 C70.7413255,5.85048733 69.5368421,3.09727096 66.7836257,0.516179337 C66.0953216,-0.172124756 65.062768,-0.172124756 64.3744639,0.516179337 C63.6861598,1.20448343 63.6861598,2.23703704 64.3744639,2.92534113 C66.2672515,4.99025341 67.2998051,6.88304094 67.2998051,8.77602339 C67.2998051,10.6690058 66.2672515,12.3896686 64.3744639,14.2824561 C61.7933723,16.8635478 60.4167641,19.4448343 60.4167641,22.1980507 Z" id="Shape" fill="#BE55FA"></path>
                <path d="M24.2805068,22.1980507 C24.2805068,24.9512671 25.657115,27.7044834 28.2382066,30.4576998 C28.5824561,30.8019493 28.9265107,30.9738791 29.4426901,30.9738791 C29.7869396,30.9738791 30.3031189,30.8017544 30.4752437,30.4576998 C31.1635478,29.7693957 31.1635478,28.7368421 30.4752437,28.048538 C28.5824561,25.9836257 27.5499025,24.0908382 27.5499025,22.1978558 C27.5499025,20.3048733 28.5824561,18.4120858 30.4752437,16.691423 C33.22846,14.2822612 34.6050682,11.5290448 34.6050682,8.77582846 C34.6050682,5.85048733 33.4005848,3.09727096 30.6473684,0.516179337 C29.9590643,-0.172124756 28.9265107,-0.172124756 28.2382066,0.516179337 C27.5499025,1.20448343 27.5499025,2.23703704 28.2382066,2.92534113 C30.1309942,4.99025341 31.1635478,6.88304094 31.1635478,8.77602339 C31.1635478,10.6690058 30.1309942,12.3896686 28.2382066,14.2824561 C25.657115,16.8635478 24.2805068,19.4448343 24.2805068,22.1980507 Z" id="Shape" fill="#BE55FA"></path>
                <path d="M36.6699805,77.4348928 C24.4524366,75.3699805 18.2576998,68.4869396 15.6764133,54.7206628 C15.5042885,53.8602339 14.4719298,53.1719298 13.611501,53.3440546 C12.7510721,53.5161793 12.062768,54.548538 12.2348928,55.4089669 C14.9881092,70.7237817 22.3875244,78.4674464 35.9816764,80.8764133 C36.1538012,80.8764133 36.1538012,80.8764133 36.3259259,80.8764133 C37.1863548,80.8764133 37.8746589,80.3602339 38.0467836,79.4998051 C38.2187135,78.4674464 37.5304094,77.6070175 36.6699805,77.4348928 Z" id="Shape" fill="#BE55FA"></path>
            </g>
        </g>
    </g>
</svg>