<?xml version="1.0" encoding="UTF-8"?>
<svg width="120px" height="120px" viewBox="0 0 120 120" version="1.1" xmlns="http://www.w3.org/2000/svg" xmlns:xlink="http://www.w3.org/1999/xlink">
    <!-- Generator: Sketch 49.1 (51147) - http://www.bohemiancoding.com/sketch -->
    <title>003-link</title>
    <desc>Created with Sketch.</desc>
    <defs></defs>
    <g id="00_workshop_section" stroke="none" stroke-width="1" fill="none" fill-rule="evenodd">
        <g id="0001_workshops_section_2018" transform="translate(-623.000000, -920.000000)" fill-rule="nonzero">
            <g id="003-link" transform="translate(623.000000, 920.000000)">
                <g id="Group" transform="translate(9.843750, 9.843750)" fill="#195C85">
                    <path d="M42.1551562,60.1551563 C41.05125,60.1551563 40.1552344,59.2591406 40.1552344,58.1552344 C40.1552344,57.6253125 40.3652344,57.1171875 40.7411719,56.74125 L56.74125,40.7411719 C57.5353125,39.973125 58.8011719,39.9951562 59.5692188,40.7910937 C60.3171094,41.5671094 60.3171094,42.795 59.5692188,43.5691406 L43.5691406,59.5692187 C43.1932031,59.9432813 42.6853125,60.1551563 42.1551562,60.1551563 Z" id="Shape"></path>
                    <path d="M10.1552344,60.1551563 C9.6253125,60.1551563 9.1153125,59.9451562 8.74125,59.5692188 L0.741328125,51.5692969 C-0.038671875,50.7892969 -0.038671875,49.5213281 0.741328125,48.7413281 L48.7413281,0.741328125 C49.5213281,-0.038671875 50.7892969,-0.038671875 51.5692969,0.741328125 L59.5692188,8.74125 C60.3372656,9.5353125 60.3152344,10.8011719 59.5192969,11.5692187 C58.7432813,12.3171094 57.5153906,12.3171094 56.74125,11.5692187 L50.1553125,4.98328125 L4.98328125,50.1553125 L11.5692188,56.74125 C12.3492188,57.5233594 12.3492188,58.7892188 11.5692188,59.5692188 C11.1932813,59.9432813 10.6851563,60.1551563 10.1552344,60.1551563 Z" id="Shape"></path>
                    <path d="M50.1553125,100.155234 C49.6253906,100.155234 49.1153906,99.9452344 48.7413281,99.5692969 L40.7414063,91.569375 C39.9733594,90.7753125 39.9953906,89.5094531 40.7913281,88.7414063 C41.5673438,87.9935156 42.7952344,87.9935156 43.569375,88.7414063 L50.1553125,95.3273438 L95.3273438,50.1553125 L88.7414063,43.569375 C87.9733594,42.7753125 87.9953906,41.5094531 88.7913281,40.7414063 C89.5673438,39.9935156 90.7952344,39.9935156 91.569375,40.7414063 L99.5692969,48.7413281 C100.349297,49.5213281 100.349297,50.7892969 99.5692969,51.5692969 L51.5692969,99.5692969 C51.1933594,99.9433594 50.6852344,100.155234 50.1553125,100.155234 Z" id="Shape"></path>
                </g>
                <path d="M99.4129687,0.585 C98.6329688,-0.195 97.365,-0.195 96.585,0.585 L56.5849219,40.5850781 C55.8049219,41.3650781 55.8049219,42.6330469 56.5849219,43.4130469 L65.1710156,51.9991406 L51.9989062,65.17125 L43.4128125,56.5851563 C42.6328125,55.8051563 41.3648437,55.8051563 40.5848438,56.5851563 L0.585,96.585 C-0.195,97.365 -0.195,98.6329688 0.585,99.4129687 L20.5849219,119.412891 C21.3670313,120.192891 22.6310156,120.192891 23.4128906,119.412891 L63.4129688,79.4128125 C64.1929687,78.6328125 64.1929687,77.3648437 63.4129688,76.5848438 L54.826875,67.99875 L67.9989844,54.8266406 L76.5850781,63.4127344 C77.3650781,64.1927344 78.6330469,64.1927344 79.4130469,63.4127344 L119.412891,23.4128906 C120.192891,22.6307812 120.192891,21.3667969 119.412891,20.5849219 L99.4129687,0.585 Z M21.9989062,115.170938 L4.82695313,97.9989844 L41.9990625,60.826875 L59.1710156,77.9988281 L21.9989062,115.170938 Z M77.9990625,59.1710156 L60.8271094,41.9990625 L97.9989844,4.82695313 L115.170938,21.9989062 L77.9990625,59.1710156 Z" id="Shape" fill="#BE55FA"></path>
                <path d="M96.585,12.5828906 L68.5849219,40.5829687 C67.8028125,41.3629687 67.8028125,42.6290625 68.5828125,43.4109375 L68.5849219,43.4130469 L76.5848437,51.4129687 C77.3648437,52.1929687 78.6328125,52.1929687 79.4128125,51.4129687 L107.413125,23.4128906 C108.195234,22.6328906 108.195234,21.3667969 107.415234,20.5849219 L107.413125,20.5828125 L99.4132031,12.5828906 C98.6189062,11.8328906 97.3769531,11.8328906 96.585,12.5828906 Z M103.170937,21.9989062 L77.9990625,47.1710156 L72.8271094,41.9990625 L97.9989844,16.8250781 L103.170937,21.9989062 Z" id="Shape" fill="#BE55FA"></path>
                <path d="M40.5850781,68.5830469 L12.585,96.5828906 C11.8028906,97.3628906 11.8028906,98.6289844 12.5828906,99.4108594 L12.585,99.4129688 L20.5849219,107.412891 C21.3670313,108.192891 22.6310156,108.192891 23.4128906,107.412891 L51.4129688,79.4128125 C52.1950781,78.6328125 52.1950781,77.3667188 51.4150781,76.5848438 L51.4129688,76.5827344 L43.4130469,68.5828125 C42.6189844,67.8330469 41.3770313,67.8330469 40.5850781,68.5830469 Z M21.9989063,103.170938 L16.8269531,97.9989844 L41.9990625,72.825 L47.1710156,77.9990625 L21.9989063,103.170938 Z" id="Shape" fill="#BE55FA"></path>
                <path d="M66.585,21.4129688 C67.3790625,22.1810156 68.6449219,22.1589844 69.4129688,21.3630469 C70.1608594,20.5870313 70.1608594,19.3591406 69.4129688,18.585 L61.4130469,10.5850781 C60.6330469,9.80507813 59.3650781,9.80507813 58.5850781,10.5850781 L10.5850781,58.5850781 C9.80507813,59.3650781 9.80507813,60.6330469 10.5850781,61.4130469 L18.585,69.4129688 C19.3790625,70.1810156 20.6449219,70.1589844 21.4129688,69.3630469 C22.1608594,68.5870313 22.1608594,67.3591406 21.4129688,66.585 L14.8270313,59.9990625 L59.9990625,14.8270313 L66.585,21.4129688 Z" id="Shape" fill="#5D22EF"></path>
                <path d="M53.4128906,98.5849219 C52.6188281,97.816875 51.3529688,97.8389062 50.5849219,98.6348437 C49.8370313,99.4108594 49.8370313,100.63875 50.5849219,101.412891 L58.5848438,109.412812 C59.3648438,110.192812 60.6328125,110.192812 61.4128125,109.412812 L109.412813,61.4128125 C110.192813,60.6328125 110.192813,59.3648437 109.412813,58.5848437 L101.412891,50.5849219 C100.618828,49.816875 99.3529688,49.8389062 98.5849219,50.6348437 C97.8370313,51.4108594 97.8370313,52.63875 98.5849219,53.4128906 L105.170859,59.9988281 L59.9990625,105.171094 L53.4128906,98.5849219 Z" id="Shape" fill="#5D22EF"></path>
            </g>
        </g>
    </g>
</svg>