<?xml version="1.0" encoding="UTF-8"?>
<svg width="120px" height="120px" viewBox="0 0 120 120" version="1.1" xmlns="http://www.w3.org/2000/svg" xmlns:xlink="http://www.w3.org/1999/xlink">
    <!-- Generator: Sketch 49.1 (51147) - http://www.bohemiancoding.com/sketch -->
    <title>Fill 1</title>
    <desc>Created with Sketch.</desc>
    <defs></defs>
    <g id="00_workshop_section" stroke="none" stroke-width="1" fill="none" fill-rule="evenodd" opacity="0.75">
        <g id="0001_workshops_section_2018" transform="translate(-911.000000, -920.000000)" fill="#FFFFFE">
            <g id="workshops" transform="translate(278.000000, 131.000000)">
                <g id="workshop_3" transform="translate(68.000000, 551.000000)">
                    <path d="M682.735516,292.654826 L630.342888,240.263504 C627.327495,237.245499 622.434173,237.245499 619.413556,240.263504 L608.535154,251.144518 L622.334922,264.945592 C625.542288,263.861669 629.221094,264.589073 631.7768,267.144779 C634.348177,269.717462 635.067745,273.426305 633.957704,276.645424 L647.258607,289.946326 C650.477726,288.836285 654.18918,289.553241 656.760558,292.128536 C660.351867,295.718539 660.351867,301.539072 656.760558,305.131687 C653.166637,308.725608 647.34741,308.725608 643.752183,305.131687 C641.050213,302.428411 640.382883,298.458382 641.751498,295.130871 L629.345157,282.725836 L629.345157,315.368876 C630.220131,315.802445 631.046785,316.380973 631.7768,317.108376 C635.368109,320.699685 635.368109,326.518912 631.7768,330.115444 C628.185491,333.705447 622.362347,333.705447 618.77365,330.115444 C615.182341,326.518912 615.182341,320.699685 618.77365,317.108376 C619.660376,316.221649 620.68945,315.550401 621.785125,315.101161 L621.785125,282.155145 C620.68945,281.70721 619.662988,281.041186 618.77365,280.149235 C616.053396,277.430288 615.399125,273.436752 616.793859,270.096182 L603.188674,256.488385 L567.262525,292.411923 C564.245825,295.432541 564.245825,300.325862 567.262525,303.343868 L619.657765,355.73519 C622.674464,358.75189 627.56648,358.75189 630.588403,355.73519 L682.735516,303.586771 C685.754828,300.568765 685.754828,295.671526 682.735516,292.654826" id="Fill-1"></path>
                </g>
            </g>
        </g>
    </g>
</svg>