<?xml version="1.0" encoding="UTF-8"?>
<svg width="130px" height="130px" viewBox="0 0 130 130" version="1.1" xmlns="http://www.w3.org/2000/svg" xmlns:xlink="http://www.w3.org/1999/xlink">
    <!-- Generator: Sketch 49.1 (51147) - http://www.bohemiancoding.com/sketch -->
    <title>002-television</title>
    <desc>Created with Sketch.</desc>
    <defs></defs>
    <g id="00_workshop_section" stroke="none" stroke-width="1" fill="none" fill-rule="evenodd">
        <g id="0001_workshops_section_2018" transform="translate(-613.000000, -534.000000)" fill-rule="nonzero">
            <g id="002-television" transform="translate(613.000000, 534.000000)">
                <path d="M73.125,43.3313867 L29.791582,43.3313867 C19.3375,43.3313867 10.8331641,51.8354687 10.8331641,62.2898047 L10.8331641,89.3732227 C10.8331641,99.8273047 19.3372461,108.331641 29.791582,108.331641 L73.125,108.331641 C83.579082,108.331641 92.083418,99.8275586 92.083418,89.3732227 L92.083418,62.2895508 C92.083418,51.8354687 83.579082,43.3313867 73.125,43.3313867 Z M86.666582,89.3729688 C86.666582,96.8370508 80.589082,102.914551 73.125,102.914551 L29.791582,102.914551 C22.3275,102.914551 16.25,96.8370508 16.25,89.3729688 L16.25,62.2895508 C16.25,54.8254687 22.3275,48.7479687 29.791582,48.7479687 L73.125,48.7479687 C80.589082,48.7479687 86.666582,54.8254687 86.666582,62.2895508 L86.666582,89.3729688 Z" id="Shape" fill="#5D22EF"></path>
                <path d="M111.041582,48.7479687 L100.208164,48.7479687 C98.7131641,48.7479687 97.4997461,49.9613867 97.4997461,51.4563867 C97.4997461,52.9513867 98.7131641,54.1648047 100.208164,54.1648047 L111.041582,54.1648047 C112.536582,54.1648047 113.75,52.9513867 113.75,51.4563867 C113.75,49.9613867 112.536582,48.7479687 111.041582,48.7479687 Z" id="Shape" fill="#BE55FA"></path>
                <path d="M111.041582,59.5813867 L100.208164,59.5813867 C98.7131641,59.5813867 97.4997461,60.7948047 97.4997461,62.2898047 C97.4997461,63.7848047 98.7131641,64.9982227 100.208164,64.9982227 L111.041582,64.9982227 C112.536582,64.9982227 113.75,63.7848047 113.75,62.2898047 C113.75,60.7948047 112.536582,59.5813867 111.041582,59.5813867 Z" id="Shape" fill="#BE55FA"></path>
                <path d="M111.041582,70.4145508 L100.208164,70.4145508 C98.7131641,70.4145508 97.4997461,71.6279687 97.4997461,73.1229687 C97.4997461,74.6179687 98.7131641,75.8313867 100.208164,75.8313867 L111.041582,75.8313867 C112.536582,75.8313867 113.75,74.6179687 113.75,73.1229687 C113.75,71.6279687 112.536582,70.4145508 111.041582,70.4145508 Z" id="Shape" fill="#BE55FA"></path>
                <path d="M111.041582,81.2479688 L100.208164,81.2479688 C98.7131641,81.2479688 97.4997461,82.4613867 97.4997461,83.9563867 L97.4997461,105.622969 C97.4997461,107.117969 98.7131641,108.331387 100.208164,108.331387 L111.041582,108.331387 C112.536582,108.331387 113.75,107.117969 113.75,105.622969 L113.75,83.9563867 C113.75,82.4613867 112.536582,81.2479688 111.041582,81.2479688 Z M108.333418,102.914551 L102.916836,102.914551 L102.916836,86.6645508 L108.333418,86.6645508 L108.333418,102.914551 Z" id="Shape" fill="#BE55FA"></path>
                <path d="M18.958418,113.747969 C17.463418,113.747969 16.25,114.961387 16.25,116.456387 L16.25,127.289805 C16.25,128.784805 17.463418,129.998223 18.958418,129.998223 C20.453418,129.998223 21.6668359,128.784805 21.6668359,127.289805 L21.6668359,116.456387 C21.666582,114.961387 20.453418,113.747969 18.958418,113.747969 Z" id="Shape" fill="#5D22EF"></path>
                <path d="M111.041582,113.747969 C109.546582,113.747969 108.333164,114.961387 108.333164,116.456387 L108.333164,127.289805 C108.333164,128.784805 109.546582,129.998223 111.041582,129.998223 C112.536582,129.998223 113.75,128.784805 113.75,127.289805 L113.75,116.456387 C113.75,114.961387 112.536582,113.747969 111.041582,113.747969 Z" id="Shape" fill="#5D22EF"></path>
                <path d="M91.287168,0.79421875 C90.230918,-0.26203125 88.51375,-0.26203125 87.4575,0.79421875 L56.875,31.3767187 L26.287168,0.79421875 C25.230918,-0.26203125 23.51375,-0.26203125 22.4575,0.79421875 C21.40125,1.85046875 21.40125,3.56763672 22.4575,4.62388672 L54.9575,37.1238867 C55.488418,37.6492187 56.181582,37.9148047 56.875,37.9148047 C57.568418,37.9148047 58.261582,37.6494727 58.787168,37.1238867 L91.287168,4.62388672 C92.343418,3.56763672 92.343418,1.85046875 91.287168,0.79421875 Z" id="Shape" fill="#5D22EF"></path>
                <path d="M116.458418,32.4979688 L13.541582,32.4979688 C6.0775,32.4979688 0,38.5754688 0,46.0395508 L0,105.622969 C0,113.087051 6.0775,119.164551 13.541582,119.164551 L116.458164,119.164551 C123.922246,119.164551 129.999746,113.087051 129.999746,105.622969 L129.999746,46.0395508 C130,38.5754688 123.9225,32.4979688 116.458418,32.4979688 Z M124.583418,105.622969 C124.583418,110.102637 120.938086,113.747969 116.458418,113.747969 L13.541582,113.747969 C9.06191406,113.747969 5.41658203,110.102637 5.41658203,105.622969 L5.41658203,46.0395508 C5.41658203,41.5598828 9.06191406,37.9145508 13.541582,37.9145508 L116.458164,37.9145508 C120.937832,37.9145508 124.583164,41.5598828 124.583164,46.0395508 L124.583164,105.622969 L124.583418,105.622969 Z" id="Shape" fill="#BE55FA"></path>
            </g>
        </g>
    </g>
</svg>