<?xml version="1.0" encoding="UTF-8"?>
<svg width="142px" height="148px" viewBox="0 0 142 148" version="1.1" xmlns="http://www.w3.org/2000/svg" xmlns:xlink="http://www.w3.org/1999/xlink">
    <!-- Generator: Sketch 49.1 (51147) - http://www.bohemiancoding.com/sketch -->
    <title>Unreal_Engine_Black</title>
    <desc>Created with Sketch.</desc>
    <defs>
        <path d="M61.5768122,47.0304202 C63.6966254,47.0416134 67.269577,45.670437 72.8726573,39.7871261 C72.8726573,39.7871261 66.8186463,53.5063529 54.2596935,60.9063529 L47.3878609,55.0995294 L47.2122551,54.9502857 L39.7132589,62.8925378 C39.7132589,62.8925378 22.6368461,61.448605 15.4990962,51.1601176 C15.4990962,51.1601176 16.6298723,51.5804874 17.8497057,51.6034958 C19.2790117,51.6289916 20.8299875,51.1078824 20.8299875,48.7224706 L20.8299875,24.5356639 C20.8299875,23.3006723 19.9281261,21.9145714 18.0598055,21.9201681 C16.3790068,21.9238992 13.9148807,23.0537983 10.6203899,26.430437 C3.66263593,33.5599328 0.771411334,40.3293782 0.771411334,40.3293782 C0.771411334,40.3293782 -1.21607039,30.4923529 9.26446197,18.5783529 C19.7456215,6.66559664 27.6064911,2.33317647 36.0989146,0.0771092437 C36.0989146,0.0771092437 29.4133497,3.95868908 29.4133497,9.82396639 C29.4133497,11.5265882 29.6560621,12.6962857 30.0329874,13.4779496 C30.5328369,14.516437 31.2666184,14.8696471 31.9771949,14.8727563 C32.5761362,14.8758655 33.1587712,14.6302353 33.5683091,14.3361008 L33.5683091,46.1044874 C33.5683091,46.1044874 33.7652385,46.6168908 34.2255767,47.2238151 C34.8922517,48.1012437 36.1108307,49.1733109 38.0863963,49.1733109 C41.4298059,49.1733109 45.7666428,45.3837647 45.7666428,45.3837647 L45.7666428,19.6616134 C45.7666428,17.0448739 43.7791611,13.8858824 41.7923065,12.802 C41.7923065,12.802 46.0369504,12.5314958 48.1166252,14.1570084 C48.1166252,14.1570084 55.1634363,5.76205042 68.0842626,3.23610084 C68.0842626,3.23610084 61.1647656,11.3742353 58.9966608,15.4100336 C58.6115823,15.433042 58.5551375,23.0662353 58.6191082,30.6944538 C58.6811974,38.0571429 58.8568033,45.415479 58.9584038,45.9247731 C58.9584038,45.9247731 59.6959483,47.0217143 61.5768122,47.0304202 Z" id="path-1"></path>
        <path d="M51.7457241,0.574279151 C80.1281741,0.574279151 103.136026,23.7797313 103.136026,52.4046725 C103.136026,81.0302318 80.1281741,104.235066 51.7457241,104.235066 C23.3632742,104.235066 0.355421929,81.0302318 0.355421929,52.4046725 C0.355421929,23.7797313 23.3632742,0.574279151 51.7457241,0.574279151 Z M51.7457241,2.85532336 C38.6229284,2.85532336 26.2851515,8.00961782 17.0064757,17.3680808 C7.7271818,26.7265437 2.61652352,39.1696707 2.61652352,52.4046725 C2.61652352,65.6396742 7.7271818,78.0828013 17.0064757,87.4418824 C26.2851515,96.7997271 38.6229284,101.954022 51.7457241,101.954022 C64.8679018,101.954022 77.2056787,96.7997271 86.4849726,87.4418824 C95.7642665,78.0828013 100.874307,65.6396742 100.874307,52.4046725 C100.874307,39.1696707 95.7642665,26.7265437 86.4849726,17.3680808 C77.2056787,8.00961782 64.8679018,2.85532336 51.7457241,2.85532336 Z" id="path-3"></path>
        <polygon id="path-5" points="11.0465865 11.0708097 0.566144184 11.0708097 0.566144184 0.327897182 10.882222 0.327897182 10.882222 2.70284726 3.37447855 2.70284726 3.37447855 4.5306436 10.4845661 4.5306436 10.4845661 6.77522491 3.37447855 6.77522491 3.37447855 8.62606624 11.0465865 8.62606624"></polygon>
        <polygon id="path-7" points="13.6253277 11.0708097 9.14988235 11.0708097 3.25662185 3.03469501 3.19878992 3.03469501 3.19878992 11.0708097 0.263042017 11.0708097 0.263042017 0.327897182 4.8112437 0.327897182 10.6323697 8.37125457 10.6895798 8.37125457 10.6895798 0.327897182 13.6253277 0.327897182"></polygon>
        <path d="M7.03772869,11.1926189 C6.05272029,11.1926189 5.20386715,11.168257 4.48921489,11.1201918 C3.77456263,11.0721265 3.16740136,10.9786298 2.66773109,10.8410183 C2.16806082,10.7034068 1.76220088,10.5118043 1.45015126,10.266869 C1.13745018,10.0225922 0.895106843,9.703913 0.723121248,9.31083144 C0.550484194,8.91774988 0.433872749,8.4423648 0.374589836,7.88335937 C0.314655462,7.32435393 0.284036815,6.66329214 0.284036815,5.89754029 L0.284036815,5.58412852 C0.284036815,4.81376767 0.315306923,4.14678003 0.378498599,3.5831656 C0.440387355,3.01955116 0.558953181,2.54153238 0.734196078,2.14845082 C0.908787515,1.75536925 1.15243377,1.43800692 1.46448339,1.19570539 C1.77718447,0.954062284 2.18304442,0.765093426 2.68271469,0.629457242 C3.18238495,0.494479486 3.78954622,0.404274839 4.50419848,0.357526446 C5.21885074,0.312094909 6.06314366,0.289049926 7.03772869,0.289049926 L7.50938615,0.289049926 C8.32892357,0.289049926 9.04618167,0.306827484 9.660509,0.3423826 C10.2754878,0.378596144 10.8038223,0.443122096 11.2461641,0.537935739 C11.6878543,0.631432526 12.0526723,0.761142857 12.3399664,0.92443302 C12.627912,1.08772318 12.8546202,1.29512803 13.0220456,1.54796441 C13.189471,1.80080079 13.3060824,2.10236085 13.370577,2.45461987 C13.4357231,2.80622046 13.4682961,3.21707958 13.4682961,3.6865388 L13.4682961,4.10003164 L10.4552909,4.10003164 L10.4552909,3.96966288 C10.4552909,3.72472763 10.4175062,3.51929807 10.3425882,3.3533742 C10.2683217,3.18810875 10.1210916,3.05510628 9.90154942,2.95568364 C9.68135574,2.85560257 9.37321489,2.78580919 8.97647539,2.74498665 C8.57973589,2.70482254 8.05661305,2.68441127 7.4077583,2.68441127 L7.14587115,2.68441127 C6.55695078,2.68441127 6.05402321,2.69428769 5.63708844,2.71469896 C5.22015366,2.73511023 4.87357663,2.77988334 4.59670588,2.84901829 C4.31918367,2.91749481 4.09964146,3.01625902 3.93742777,3.14333564 C3.77521409,3.27041226 3.65404242,3.44423727 3.57456423,3.66349382 C3.49443457,3.88275037 3.44362065,4.15468117 3.42081953,4.47796935 C3.39866987,4.80191597 3.38759504,5.19104696 3.38759504,5.64536233 L3.38759504,5.8369649 C3.38759504,6.28074543 3.39866987,6.66065843 3.42081953,6.97670391 C3.44362065,7.29340781 3.49443457,7.56007118 3.57456423,7.77669402 C3.65404242,7.99331686 3.77521409,8.16582501 3.93742777,8.29290163 C4.09964146,8.42063668 4.31918367,8.51874246 4.59670588,8.58721898 C4.87357663,8.65635393 5.22080512,8.70112704 5.63708844,8.72219674 C6.05402321,8.74194958 6.55695078,8.751826 7.14587115,8.751826 L7.4077583,8.751826 C7.88723329,8.751826 8.3002593,8.74326644 8.64683633,8.72483045 C8.99406483,8.70705289 9.28591917,8.67939891 9.52305082,8.64055166 C9.76018247,8.60302126 9.9497575,8.54968858 10.0924274,8.48055363 C10.2344458,8.41207711 10.3445426,8.32516461 10.421415,8.22047454 C10.4989388,8.11644291 10.5504042,7.99331686 10.5751597,7.85307168 C10.5999152,7.7128265 10.6122929,7.54821948 10.6122929,7.35925062 L10.6122929,7.0609827 L6.54261865,7.0609827 L6.54261865,4.98759268 L13.5875134,4.98759268 L13.5875134,7.37505289 C13.5875134,7.88994365 13.5549404,8.34294217 13.486537,8.73273159 C13.4194366,9.12317944 13.2995678,9.46029461 13.1262793,9.74276026 C12.9549452,10.0265428 12.7223737,10.2602847 12.4298679,10.4472783 C12.1380136,10.6336134 11.7666811,10.7811013 11.3171733,10.8904004 C10.8676655,11.0003579 10.3282561,11.0787108 9.70155102,11.1241424 C9.07484594,11.1702323 8.34390716,11.1926189 7.50938615,11.1926189 L7.03772869,11.1926189 Z" id="path-9"></path>
        <polygon id="path-11" points="13.550084 11.0708097 9.12189916 11.0708097 3.29082353 3.0979041 3.23361345 3.0979041 3.23361345 11.0708097 0.328957983 11.0708097 0.328957983 0.41085912 4.82927731 0.41085912 10.5882185 8.3929827 10.6454286 8.3929827 10.6454286 0.41085912 13.550084 0.41085912"></polygon>
        <polygon id="path-13" points="10.7131446 11.0708097 0.343456877 11.0708097 0.343456877 0.41085912 10.5505475 0.41085912 10.5505475 2.76869006 3.12233525 2.76869006 3.12233525 4.58134256 10.1576046 4.58134256 10.1576046 6.80814632 3.12233525 6.80814632 3.12233525 8.64450222 10.7131446 8.64450222"></polygon>
        <path d="M0,12.0327731 L0,0.581428571 L5.22042017,0.581428571 L5.22042017,10.3382353 C5.22042017,10.9414286 5.24156303,11.4594286 5.28322689,11.8922353 C5.32551261,12.3256639 5.41132773,12.695042 5.54191597,13.0009916 C5.6725042,13.3063193 5.85905882,13.5525714 6.10282353,13.7391261 C6.34658824,13.9263025 6.67057143,14.072437 7.07415126,14.1787731 C7.47710924,14.2851092 7.97334454,14.3553782 8.56223529,14.388958 C9.1505042,14.4231597 9.85194958,14.4399496 10.6678151,14.4399496 L11.1093277,14.4399496 C11.9245714,14.4399496 12.6266387,14.4212941 13.2149076,14.3827395 C13.8031765,14.3448067 14.2994118,14.2745378 14.7029916,14.1725546 C15.1059496,14.0705714 15.4299328,13.924437 15.6736975,13.7329076 C15.9174622,13.542 16.1046387,13.2957479 16.234605,12.9941513 C16.3651933,12.6931765 16.4516303,12.3237983 16.4932941,11.8866387 C16.5355798,11.4488571 16.5561008,10.9327227 16.5561008,10.3382353 L16.5561008,0.581428571 L21.776521,0.581428571 L21.776521,12.0327731 C21.776521,12.9070924 21.7180672,13.6781849 21.6005378,14.3448067 C21.4823866,15.0114286 21.2722017,15.5847731 20.9699832,16.0642185 C20.6671429,16.5442857 20.2598319,16.9435126 19.7468067,17.2612773 C19.2337815,17.5802857 18.5845714,17.8327563 17.7985546,18.0193109 C17.0125378,18.2064874 16.0729244,18.3383193 14.9803361,18.4141849 C13.8871261,18.4906723 12.6142017,18.528605 11.1596975,18.528605 L10.6174454,18.528605 C9.17973109,18.528605 7.91862185,18.4906723 6.8347395,18.4141849 C5.74961345,18.3383193 4.81497479,18.2064874 4.02833613,18.0193109 C3.24294118,17.8327563 2.5912437,17.5802857 2.07448739,17.2612773 C1.55710924,16.9435126 1.14544538,16.5442857 0.83887395,16.0642185 C0.531680672,15.5847731 0.315277311,15.0132941 0.189042017,14.3510252 C0.0628067227,13.6887563 0,12.9157983 0,12.0327731 Z" id="path-15"></path>
        <polygon id="path-17" points="23.1521939 18.3252605 15.5468882 18.3252605 5.53372032 5.05189916 5.43556389 5.05189916 5.43556389 18.3252605 0.447157078 18.3252605 0.447157078 0.581428571 8.17546132 0.581428571 18.0656307 13.866605 18.1637871 13.866605 18.1637871 0.581428571 23.1521939 0.581428571"></polygon>
        <path d="M11.6832941,9.53605042 C12.5824874,9.53605042 13.299479,9.50806723 13.8336471,9.45334454 C14.3665714,9.398 14.7726387,9.28357983 15.0499832,9.10946218 C15.3273277,8.93596639 15.5082857,8.69344538 15.5922353,8.38314286 C15.6761849,8.07346218 15.7184706,7.66366387 15.7184706,7.1537479 L15.7184706,6.84842017 C15.7184706,6.34721008 15.6761849,5.94238655 15.5922353,5.63208403 C15.5082857,5.32240336 15.3248403,5.08423529 15.0437647,4.91882353 C14.7620672,4.75278992 14.3541345,4.64272269 13.8205882,4.58737815 C13.2864202,4.53265546 12.5744034,4.50467227 11.6832941,4.50467227 L5.17689076,4.50467227 L5.17689076,9.53605042 L11.6832941,9.53605042 Z M20.9762017,18.3252605 L15.8192101,18.3252605 L15.8192101,16.8856807 C15.8192101,16.3683025 15.7980672,15.922437 15.7557815,15.548084 C15.7141176,15.1749748 15.6258151,14.8584538 15.4914958,14.5997647 C15.3565546,14.3404538 15.1675126,14.1321345 14.9237479,13.9754286 C14.6799832,13.8181008 14.3584874,13.6968403 13.9592605,13.6122689 C13.5600336,13.5270756 13.0681513,13.4704874 12.4842353,13.4406387 C11.8996975,13.4107899 11.2038487,13.3952437 10.3973109,13.3952437 L5.17689076,13.3952437 L5.17689076,18.3252605 L0.00684033613,18.3252605 L0.00684033613,0.581428571 L13.776437,0.581428571 C15.2222353,0.581428571 16.4118319,0.67097479 17.344605,0.849445378 C18.278,1.02729412 19.0136471,1.32640336 19.5515462,1.74677311 C20.0900672,2.16714286 20.4613109,2.72369748 20.6671429,3.41581513 C20.8729748,4.10793277 20.9762017,4.96359664 20.9762017,5.98280672 L20.9762017,6.60652101 C20.9762017,7.3029916 20.921479,7.91178151 20.8126555,8.43413445 C20.7032101,8.95648739 20.526605,9.40670588 20.2828403,9.78478992 C20.0396975,10.1622521 19.7237983,10.4744202 19.3376303,10.7206723 C18.9508403,10.9669244 18.4757479,11.1541008 17.9123529,11.280958 L17.9123529,11.3829412 C18.5342017,11.4849244 19.0447395,11.6142689 19.4439664,11.7715966 C19.8438151,11.9289244 20.1572269,12.1621176 20.3835798,12.4717983 C20.6105546,12.7821008 20.7660168,13.1875462 20.8499664,13.6887563 C20.9345378,14.1899664 20.9762017,14.8310924 20.9762017,15.6121345 L20.9762017,18.3252605 Z" id="path-19"></path>
        <polygon id="path-21" points="19.4215798 18.3252605 0.128722689 18.3252605 0.128722689 0.581428571 19.1193613 0.581428571 19.1193613 4.50529412 5.29877311 4.50529412 5.29877311 7.5237479 18.3874454 7.5237479 18.3874454 11.2299664 5.29877311 11.2299664 5.29877311 14.2869748 19.4215798 14.2869748"></polygon>
        <path d="M16.415563,11.4339328 L12.7970252,4.31376471 L12.6707899,4.31376471 L9.07712605,11.4339328 L16.415563,11.4339328 Z M25.5579832,18.3252605 L19.9209244,18.3252605 L18.2947899,15.1407731 L7.22339496,15.1407731 L5.62151261,18.3252605 L0.0360672269,18.3252605 L9.5690084,0.581428571 L15.9740504,0.581428571 L25.5579832,18.3252605 Z" id="path-23"></path>
        <polygon id="path-25" points="17.1990924 18.3252605 0.100117647 18.3252605 0.100117647 0.581428571 5.32115966 0.581428571 5.32115966 14.1980504 17.1990924 14.1980504"></polygon>
    </defs>
    <g id="00_workshop_section" stroke="none" stroke-width="1" fill="none" fill-rule="evenodd" opacity="0.75">
        <g id="0001_workshops_section_2018" transform="translate(-900.000000, -516.000000)">
            <g id="Unreal_Engine_Black" transform="translate(900.000000, 516.000000)">
                <g id="Group-3" transform="translate(32.336134, 21.142857)">
                    <mask id="mask-2" fill="white">
                        <use xlink:href="#path-1"></use>
                    </mask>
                    <g id="Clip-2"></g>
                    <polygon id="Fill-1" fill="#FFFFFF" mask="url(#mask-2)" points="0.576990591 62.9062185 72.9015069 62.9062185 72.9015069 0.0746218487 0.576990591 0.0746218487"></polygon>
                </g>
                <g id="Group-6" transform="translate(18.655462, 0.000000)">
                    <mask id="mask-4" fill="white">
                        <use xlink:href="#path-3"></use>
                    </mask>
                    <g id="Clip-5"></g>
                    <polygon id="Fill-4" fill="#FFFFFF" mask="url(#mask-4)" points="0.296700045 104.248047 103.177441 104.248047 103.177441 0.543988862 0.296700045 0.543988862"></polygon>
                </g>
                <g id="Group-9" transform="translate(33.579832, 136.806723)">
                    <mask id="mask-6" fill="white">
                        <use xlink:href="#path-5"></use>
                    </mask>
                    <g id="Clip-8"></g>
                    <polygon id="Fill-7" fill="#FFFFFF" mask="url(#mask-6)" points="0.518425475 11.1142659 11.0518885 11.1142659 11.0518885 0.289708354 0.518425475 0.289708354"></polygon>
                </g>
                <g id="Group-12" transform="translate(46.016807, 136.806723)">
                    <mask id="mask-8" fill="white">
                        <use xlink:href="#path-7"></use>
                    </mask>
                    <g id="Clip-11"></g>
                    <polygon id="Fill-10" fill="#FFFFFF" mask="url(#mask-8)" points="0.248739496 11.1142659 13.6806723 11.1142659 13.6806723 0.289708354 0.248739496 0.289708354"></polygon>
                </g>
                <g id="Group-15" transform="translate(60.941176, 136.806723)">
                    <mask id="mask-10" fill="white">
                        <use xlink:href="#path-9"></use>
                    </mask>
                    <g id="Clip-14"></g>
                    <polygon id="Fill-13" fill="#FFFFFF" mask="url(#mask-10)" points="0.23452581 11.1932773 13.602497 11.1932773 13.602497 0.210696985 0.23452581 0.210696985"></polygon>
                </g>
                <g id="Group-18" transform="translate(80.840336, 136.806723)">
                    <mask id="mask-12" fill="white">
                        <use xlink:href="#path-11"></use>
                    </mask>
                    <g id="Clip-17"></g>
                    <polygon id="Fill-16" fill="#FFFFFF" mask="url(#mask-12)" points="0.323361345 11.1142659 13.6060504 11.1142659 13.6060504 0.368719723 0.323361345 0.368719723"></polygon>
                </g>
                <g id="Group-21" transform="translate(97.008403, 136.806723)">
                    <mask id="mask-14" fill="white">
                        <use xlink:href="#path-13"></use>
                    </mask>
                    <g id="Clip-20"></g>
                    <polygon id="Fill-19" fill="#FFFFFF" mask="url(#mask-14)" points="0.282777532 11.1142659 10.7455462 11.1142659 10.7455462 0.368719723 0.282777532 0.368719723"></polygon>
                </g>
                <g id="Group-24" transform="translate(0.000000, 114.420168)">
                    <mask id="mask-16" fill="white">
                        <use xlink:href="#path-15"></use>
                    </mask>
                    <g id="Clip-23"></g>
                    <polygon id="Fill-22" fill="#FFFFFF" mask="url(#mask-16)" points="0 18.5310924 21.7895798 18.5310924 21.7895798 0.547226891 0 0.547226891"></polygon>
                </g>
                <g id="Group-27" transform="translate(24.873950, 114.420168)">
                    <mask id="mask-18" fill="white">
                        <use xlink:href="#path-17"></use>
                    </mask>
                    <g id="Clip-26"></g>
                    <polygon id="Fill-25" fill="#FFFFFF" mask="url(#mask-18)" points="0.412014652 18.3818487 23.1697651 18.3818487 23.1697651 0.547226891 0.412014652 0.547226891"></polygon>
                </g>
                <g id="Group-30" transform="translate(52.235294, 114.420168)">
                    <mask id="mask-20" fill="white">
                        <use xlink:href="#path-19"></use>
                    </mask>
                    <g id="Clip-29"></g>
                    <polygon id="Fill-28" fill="#FFFFFF" mask="url(#mask-20)" points="0 18.3818487 21.0433613 18.3818487 21.0433613 0.547226891 0 0.547226891"></polygon>
                </g>
                <g id="Group-33" transform="translate(75.865546, 114.420168)">
                    <mask id="mask-22" fill="white">
                        <use xlink:href="#path-21"></use>
                    </mask>
                    <g id="Clip-32"></g>
                    <polygon id="Fill-31" fill="#FFFFFF" mask="url(#mask-22)" points="0.0746218487 18.3818487 19.4763025 18.3818487 19.4763025 0.547226891 0.0746218487 0.547226891"></polygon>
                </g>
                <g id="Group-36" transform="translate(97.008403, 114.420168)">
                    <mask id="mask-24" fill="white">
                        <use xlink:href="#path-23"></use>
                    </mask>
                    <g id="Clip-35"></g>
                    <polygon id="Fill-34" fill="#FFFFFF" mask="url(#mask-24)" points="0 18.3818487 25.5952941 18.3818487 25.5952941 0.547226891 0 0.547226891"></polygon>
                </g>
                <g id="Group-39" transform="translate(124.369748, 114.420168)">
                    <mask id="mask-26" fill="white">
                        <use xlink:href="#path-25"></use>
                    </mask>
                    <g id="Clip-38"></g>
                    <polygon id="Fill-37" fill="#FFFFFF" mask="url(#mask-26)" points="0.0994957983 18.3818487 17.262521 18.3818487 17.262521 0.547226891 0.0994957983 0.547226891"></polygon>
                </g>
                <polygon id="Fill-40" fill="#FFFFFF" points="75.8655462 148 79.5966387 148 79.5966387 138.05042 75.8655462 138.05042"></polygon>
            </g>
        </g>
    </g>
</svg>